OutlineCutoutDetail-Medium.ufo
<glyph name="exclamation" format="2">
  <advance width="377.64628533333325"/>
  <unicode hex="0021"/>
  <outline>
    <contour>
      <point x="240.01086391910803" y="244.54602813720703" type="line"/>
      <point x="266.50599636539704" y="865" type="line"/>
      <point x="111.14028896793614" y="865" type="line"/>
      <point x="137.63542141422522" y="244.54602813720703" type="line"/>
    </contour>
    <contour>
      <point x="282.14828533333326" y="78.32514266666665" type="curve" smooth="yes"/>
      <point x="282.14828533333326" y="129.83269064804284"/>
      <point x="240.33069064804278" y="171.6502853333333"/>
      <point x="188.82314266666663" y="171.6502853333333" type="curve" smooth="yes"/>
      <point x="137.31559468529042" y="171.6502853333333"/>
      <point x="95.49799999999996" y="129.83269064804284"/>
      <point x="95.49799999999996" y="78.32514266666665" type="curve" smooth="yes"/>
      <point x="95.49799999999996" y="26.817594685290487"/>
      <point x="137.31559468529042" y="-15.0"/>
      <point x="188.82314266666663" y="-15.0" type="curve" smooth="yes"/>
      <point x="240.33069064804278" y="-15.000000000000014"/>
      <point x="282.14828533333326" y="26.81759468529046"/>
    </contour>
  </outline>
</glyph>
<glyph name="quote_dbl" format="2">
  <advance width="516.1067025146483"/>
  <unicode hex="0022"/>
  <outline>
    <contour>
      <point x="202.11894879150387" y="562.0224990844727" type="line"/>
      <point x="221.9291370849609" y="850" type="line"/>
      <point x="88.49799999999996" y="850" type="line"/>
      <point x="108.308188293457" y="562.0224990844727" type="line"/>
    </contour>
    <contour>
      <point x="409.79851422119134" y="562.0224990844727" type="line"/>
      <point x="429.60870251464837" y="850" type="line"/>
      <point x="296.17756542968743" y="850" type="line"/>
      <point x="315.98775372314446" y="562.0224990844727" type="line"/>
    </contour>
  </outline>
</glyph>
<glyph name="numbersign" format="2">
  <advance width="747.2551247558594"/>
  <unicode hex="0023"/>
  <outline>
    <contour>
      <point x="522.8106907348633" y="202.52452850341797" type="line"/>
      <point x="655.3958576660157" y="202.52452850341797" type="line"/>
      <point x="655.3958576660157" y="322.16353607177734" type="line"/>
      <point x="543.9062717895508" y="322.16353607177734" type="line"/>
      <point x="580.1719654541016" y="527.8364639282227" type="line"/>
      <point x="712.7571247558594" y="527.8364639282227" type="line"/>
      <point x="712.7571247558594" y="647.475471496582" type="line"/>
      <point x="601.2675465087891" y="647.475471496582" type="line"/>
      <point x="636.9780872802735" y="850" type="line"/>
      <point x="509.0995243530274" y="850" type="line"/>
      <point x="473.388983581543" y="647.475471496582" type="line"/>
      <point x="352.3229969482421" y="647.475471496582" type="line"/>
      <point x="388.0335377197265" y="850" type="line"/>
      <point x="260.1549747924804" y="850" type="line"/>
      <point x="224.44443402099606" y="647.475471496582" type="line"/>
      <point x="91.85926708984371" y="647.475471496582" type="line"/>
      <point x="91.85926708984371" y="527.8364639282227" type="line"/>
      <point x="203.34885296630856" y="527.8364639282227" type="line"/>
      <point x="167.08315930175777" y="322.16353607177734" type="line"/>
      <point x="34.49799999999996" y="322.16353607177734" type="line"/>
      <point x="34.49799999999996" y="202.52452850341797" type="line"/>
      <point x="145.98757824707027" y="202.52452850341797" type="line"/>
      <point x="110.2770374755859" y="0" type="line"/>
      <point x="238.155600402832" y="0" type="line"/>
      <point x="273.86614117431634" y="202.52452850341797" type="line"/>
      <point x="394.9321278076171" y="202.52452850341797" type="line"/>
      <point x="359.22158703613275" y="0" type="line"/>
      <point x="487.10014996337895" y="0" type="line"/>
    </contour>
    <contour>
      <point x="294.96172222900384" y="322.16353607177734" type="line"/>
      <point x="331.2274158935546" y="527.8364639282227" type="line"/>
      <point x="452.2934025268555" y="527.8364639282227" type="line"/>
      <point x="416.0277088623046" y="322.16353607177734" type="line"/>
    </contour>
  </outline>
</glyph>
<glyph name="dollar" format="2">
  <advance width="588.8680476190476"/>
  <unicode hex="0024"/>
  <outline>
    <contour>
      <point x="223.1790226440429" y="-100" type="line"/>
      <point x="350.68902478027337" y="-100" type="line"/>
      <point x="350.68902478027337" y="23.865325927734375" type="line"/>
      <point x="468.95550802441215" y="51.092638440113376"/>
      <point x="555.3700476190477" y="138.74191225881412"/>
      <point x="555.3700476190477" y="252.68490000000003" type="curve"/>
      <point x="555.3700476190477" y="398.12722104106007"/>
      <point x="432.57664631764084" y="450.6214432191833"/>
      <point x="354.12837525092124" y="481.2311580826656" type="curve"/>
      <point x="265.6672077426801" y="515.7478029634059" type="line"/>
      <point x="199.4935410987194" y="541.5680924344134"/>
      <point x="159.82025" y="564.4638242037853"/>
      <point x="159.82024999999993" y="611.69683" type="curve"/>
      <point x="159.82024999999993" y="671.2503105949594"/>
      <point x="222.89003587374202" y="713.0305599999999"/>
      <point x="307.56922380952375" y="713.0305599999999" type="curve"/>
      <point x="392.4961824612206" y="713.030561474561"/>
      <point x="468.3016158334902" y="684.731139432157"/>
      <point x="518.5360477905274" y="640.3713912963867" type="curve"/>
      <point x="518.5360477905274" y="776.9509963989258" type="line"/>
      <point x="475.26663057759714" y="808.6218960101387"/>
      <point x="416.7032509997681" y="827.0045031397731"/>
      <point x="350.68902478027337" y="832.8977584838867" type="curve"/>
      <point x="350.68902478027337" y="950" type="line"/>
      <point x="223.1790226440429" y="950" type="line"/>
      <point x="223.1790226440429" y="825.2398223876953" type="line"/>
      <point x="114.47045784610232" y="797.63438778494"/>
      <point x="35.49799999999999" y="713.9967731283824"/>
      <point x="35.49799999999996" y="608.3806999999999" type="curve"/>
      <point x="35.497999999999976" y="472.9475724233114"/>
      <point x="157.59079521048483" y="420.45129695248886"/>
      <point x="231.14036557375533" y="391.76487741134" type="curve"/>
      <point x="320.48107472077874" y="356.9194656429645" type="line"/>
      <point x="379.7589326259026" y="333.7994189456397"/>
      <point x="431.04779761904757" y="307.8407794544751"/>
      <point x="431.04779761904757" y="249.55217000000005" type="curve"/>
      <point x="431.04779761904757" y="180.7170144469715"/>
      <point x="357.3697919574526" y="137.18952000000002"/>
      <point x="266.29882380952375" y="137.18952000000002" type="curve"/>
      <point x="170.6326345472952" y="137.18952068732526"/>
      <point x="86.2242843431698" y="172.9071293571023"/>
      <point x="35.49799999999996" y="227.34882354736328" type="curve"/>
      <point x="35.49799999999996" y="86.47267150878906" type="line"/>
      <point x="81.92213849724736" y="46.920188048832685"/>
      <point x="148.0104144069208" y="23.90594433916149"/>
      <point x="223.1790226440429" y="17.129486083984382" type="curve"/>
    </contour>
  </outline>
</glyph>
<glyph name="ampersand" format="2">
  <advance width="812.3304623046876"/>
  <unicode hex="0026"/>
  <outline>
    <contour>
      <point x="202.84901026314202" y="491.2090865011704" type="curve"/>
      <point x="206.12267684326176" y="487.4297866821289" type="line"/>
      <point x="111.10741357510503" y="447.68416967231224"/>
      <point x="44.49799999999996" y="355.0604033466149"/>
      <point x="44.49799999999996" y="246.60475000000005" type="curve" smooth="yes"/>
      <point x="44.49800000000003" y="101.66481662397118"/>
      <point x="163.45974746155036" y="-14.999999999999982"/>
      <point x="310.2008875" y="-15.0" type="curve"/>
      <point x="401.6971662955027" y="-15.0"/>
      <point x="485.9337201730244" y="32.732502753027546"/>
      <point x="533.1928443847657" y="109.8443374633789" type="curve"/>
      <point x="628.3416480957032" y="0" type="line"/>
      <point x="795.8324623046876" y="0" type="line"/>
      <point x="595.8116950927736" y="230.9135513305664" type="line"/>
      <point x="735.8383064208986" y="505.7312469482422" type="line"/>
      <point x="599.8858833251954" y="505.7312469482422" type="line"/>
      <point x="510.21122359619153" y="329.73482513427734" type="line"/>
      <point x="309.67077465186867" y="561.2830725133471" type="line"/>
      <point x="289.35991263084634" y="584.7344237419042"/>
      <point x="268.46241845238103" y="608.7969326944685"/>
      <point x="268.46241845238103" y="646.3102499999999" type="curve"/>
      <point x="268.46241845238103" y="700.152457754855"/>
      <point x="312.12317544002485" y="743.8655"/>
      <point x="365.9284541666667" y="743.8655" type="curve"/>
      <point x="421.06189461517056" y="743.8655"/>
      <point x="465.54628750000006" y="698.7295145256991"/>
      <point x="465.54628750000006" y="643.1225" type="curve"/>
      <point x="586.6807899414064" y="643.1224975585938" type="line"/>
      <point x="586.6807875000001" y="765.58002485005"/>
      <point x="487.26081235005006" y="865.0"/>
      <point x="364.8032875" y="865.0" type="curve" smooth="yes"/>
      <point x="242.34576264995" y="865.0"/>
      <point x="142.9257875" y="765.58002485005"/>
      <point x="142.9257875" y="643.1225" type="curve"/>
      <point x="142.9257875" y="562.2086168721956"/>
      <point x="184.39068930337902" y="512.5183821657554"/>
    </contour>
    <contour>
      <point x="312.3260541666667" y="107.72837500000003" type="curve"/>
      <point x="225.23634742085764" y="107.72837499999999"/>
      <point x="170.41412499999998" y="169.9233605301701"/>
      <point x="170.41412499999998" y="249.84922500000002" type="curve" smooth="yes"/>
      <point x="170.41412499999998" y="322.73351014468597"/>
      <point x="216.00204210126012" y="380.8735218261685"/>
      <point x="290.0748176513672" y="390.5114212036133" type="curve"/>
      <point x="448.17856978759767" y="207.98887634277344" type="line"/>
      <point x="445.90696583245403" y="203.53468556655204" type="line"/>
      <point x="427.23033200648365" y="166.91329743675354"/>
      <point x="394.2009268747445" y="107.72837500000003"/>
    </contour>
  </outline>
</glyph>
<glyph name="quote" format="2">
  <advance width="308.42713708496086"/>
  <unicode hex="0027"/>
  <outline>
    <contour>
      <point x="202.11894879150387" y="562.0224990844727" type="line"/>
      <point x="221.9291370849609" y="850" type="line"/>
      <point x="88.49799999999996" y="850" type="line"/>
      <point x="108.308188293457" y="562.0224990844727" type="line"/>
    </contour>
  </outline>
</glyph>
<glyph name="parenleft" format="2">
  <advance width="392.84335827636744"/>
  <unicode hex="0028"/>
  <outline>
    <contour>
      <point x="192.00800000000007" y="425.0" type="curve" smooth="yes"/>
      <point x="192.00800000000018" y="624.3984093870826"/>
      <point x="257.1569953072634" y="808.5737655001117"/>
      <point x="367.3453582763675" y="956.8775024414062" type="curve"/>
      <point x="216.0934432983402" y="956.8775024414062" type="line"/>
      <point x="120.01120818536495" y="802.4122607441445"/>
      <point x="64.49800000000008" y="620.137877567007"/>
      <point x="64.49799999999996" y="424.9999999999999" type="curve" smooth="yes"/>
      <point x="64.49800000000019" y="229.86045174152244"/>
      <point x="120.01215875264202" y="47.584618137914845"/>
      <point x="216.0958160400394" y="-106.87750244140625" type="curve"/>
      <point x="367.3452896118167" y="-106.87750244140625" type="line"/>
      <point x="257.15667518641" y="41.42713947854986"/>
      <point x="192.00800000000007" y="225.60208050280048"/>
    </contour>
  </outline>
</glyph>
<glyph name="parenright" format="2">
  <advance width="391.843358276367"/>
  <unicode hex="0029"/>
  <outline>
    <contour>
      <point x="328.34535827636705" y="425.0000000000001" type="curve" smooth="yes"/>
      <point x="328.3453582763673" y="620.1395482584778"/>
      <point x="272.83119952372545" y="802.4153818620855"/>
      <point x="176.7475422363281" y="956.8775024414062" type="curve"/>
      <point x="25.498068664550743" y="956.8775024414062" type="line"/>
      <point x="135.68668308995748" y="808.5728605214501"/>
      <point x="200.83535827636743" y="624.3979194971995"/>
      <point x="200.83535827636743" y="425.0" type="curve" smooth="yes"/>
      <point x="200.83535827636732" y="225.60159061291753"/>
      <point x="135.68636296910418" y="41.42623449988841"/>
      <point x="25.497999999999962" y="-106.87750244140625" type="curve"/>
      <point x="176.7499149780273" y="-106.87750244140625" type="line"/>
      <point x="272.8321500910023" y="47.58773925585561"/>
      <point x="328.34535827636716" y="229.86212243299317"/>
    </contour>
  </outline>
</glyph>
<glyph name="asterisk" format="2">
  <advance width="443.5486012083253"/>
  <unicode hex="002A"/>
  <outline>
    <contour>
      <point x="221.77764019775384" y="618.3849411010742" type="line"/>
      <point x="276.76904949951165" y="521.2162246704102" type="line"/>
      <point x="312.09842222181936" y="532.8038314862057"/>
      <point x="342.51482565730834" y="555.2831011494692"/>
      <point x="364.0516499023437" y="584.6981582641602" type="curve"/>
      <point x="288.6690662841796" y="666.9844055175781" type="line"/>
      <point x="398.05059704589837" y="689.2525329589844" type="line"/>
      <point x="398.0588901977538" y="727.2429862475663"/>
      <point x="385.6744062818246" y="762.8974957295303"/>
      <point x="364.6729649047851" y="791.8855972290039" type="curve"/>
      <point x="263.1188114624023" y="745.6199951171875" type="line"/>
      <point x="275.745329711914" y="856.5644607543945" type="line"/>
      <point x="258.73393208624026" y="862.0441864508169"/>
      <point x="240.5982460020042" y="865.0"/>
      <point x="221.77764019775378" y="865.0" type="curve" smooth="yes"/>
      <point x="202.95703439350348" y="865.0"/>
      <point x="184.82134830926742" y="862.0441864508169"/>
      <point x="167.80995068359368" y="856.5644683837891" type="curve"/>
      <point x="180.4364689331054" y="745.6199951171875" type="line"/>
      <point x="78.88410839843746" y="791.8847808837891" type="line"/>
      <point x="58.019837589682595" y="763.0905220894938"/>
      <point x="45.65984545064204" y="727.7132614193715"/>
      <point x="45.49799999999996" y="689.2538909912109" type="curve"/>
      <point x="154.88621411132806" y="666.9844055175781" type="line"/>
      <point x="79.49814495849604" y="584.6921691894531" type="line"/>
      <point x="101.034357848011" y="555.2882091649208"/>
      <point x="131.45115790876815" y="532.8068201237276"/>
      <point x="166.78159222412103" y="521.2080230712891" type="curve"/>
    </contour>
  </outline>
</glyph>
<glyph name="plus" format="2">
  <advance width="802.750997253418"/>
  <unicode hex="002B"/>
  <outline>
    <contour>
      <point x="339.17549786376946" y="118.12249755859375" type="line"/>
      <point x="463.57549938964837" y="118.12249755859375" type="line"/>
      <point x="463.57549938964837" y="362.8000030517578" type="line"/>
      <point x="708.252997253418" y="362.8000030517578" type="line"/>
      <point x="708.252997253418" y="487.1999969482422" type="line"/>
      <point x="463.57549938964837" y="487.1999969482422" type="line"/>
      <point x="463.57549938964837" y="731.8775024414062" type="line"/>
      <point x="339.17549786376946" y="731.8775024414062" type="line"/>
      <point x="339.17549786376946" y="487.1999969482422" type="line"/>
      <point x="94.49799999999996" y="487.1999969482422" type="line"/>
      <point x="94.49799999999996" y="362.8000030517578" type="line"/>
      <point x="339.17549786376946" y="362.8000030517578" type="line"/>
    </contour>
  </outline>
</glyph>
<glyph name="hyphen" format="2">
  <advance width="537.1855238095237"/>
  <unicode hex="002D"/>
  <outline>
    <contour>
      <point x="94.49799999999996" y="241.23875000000004" type="line"/>
      <point x="442.6875238095237" y="241.23875000000004" type="line"/>
      <point x="442.6875238095237" y="365.6387500000001" type="line"/>
      <point x="94.49799999999996" y="365.6387500000001" type="line"/>
    </contour>
  </outline>
</glyph>
<glyph name="period" format="2">
  <advance width="341.64628533333325"/>
  <unicode hex="002E"/>
  <outline>
    <contour>
      <point x="264.14828533333326" y="78.32514266666665" type="curve" smooth="yes"/>
      <point x="264.14828533333326" y="129.83269064804284"/>
      <point x="222.33069064804278" y="171.6502853333333"/>
      <point x="170.82314266666663" y="171.6502853333333" type="curve" smooth="yes"/>
      <point x="119.31559468529043" y="171.6502853333333"/>
      <point x="77.49799999999996" y="129.83269064804284"/>
      <point x="77.49799999999996" y="78.32514266666665" type="curve" smooth="yes"/>
      <point x="77.49799999999996" y="26.817594685290487"/>
      <point x="119.31559468529043" y="-15.0"/>
      <point x="170.82314266666663" y="-15.0" type="curve" smooth="yes"/>
      <point x="222.33069064804278" y="-15.000000000000014"/>
      <point x="264.14828533333326" y="26.81759468529046"/>
    </contour>
  </outline>
</glyph>
<glyph name="slash" format="2">
  <advance width="419.17890710449205"/>
  <unicode hex="002F"/>
  <outline>
    <contour>
      <point x="284.8925541381835" y="956.8775024414062" type="line"/>
      <point x="28.497999999999962" y="0" type="line"/>
      <point x="157.28635296630853" y="0" type="line"/>
      <point x="413.6809071044921" y="956.8775024414062" type="line"/>
    </contour>
  </outline>
</glyph>
<glyph name="zero" format="2">
  <advance width="765.0707619047619"/>
  <unicode hex="0030"/>
  <outline>
    <contour>
      <point x="695.5727619047619" y="425.0" type="curve" smooth="yes"/>
      <point x="695.5727619047619" y="668.093089601264"/>
      <point x="585.0260027808151" y="865.0"/>
      <point x="382.5353809523809" y="865.0" type="curve" smooth="yes"/>
      <point x="180.04475912394673" y="865.0"/>
      <point x="69.49799999999996" y="668.093089601264"/>
      <point x="69.49799999999996" y="425.0" type="curve" smooth="yes"/>
      <point x="69.49799999999996" y="181.9069103987361"/>
      <point x="180.04475912394673" y="-15.0"/>
      <point x="382.5353809523809" y="-15.0" type="curve" smooth="yes"/>
      <point x="585.0260027808151" y="-15.0"/>
      <point x="695.5727619047619" y="181.9069103987361"/>
    </contour>
    <contour>
      <point x="568.0627619047619" y="425.0" type="curve" smooth="yes"/>
      <point x="568.0627619047619" y="248.59600407209842"/>
      <point x="505.3280949143621" y="106.1345"/>
      <point x="382.5353809523809" y="106.1345" type="curve" smooth="yes"/>
      <point x="259.7426669903997" y="106.1345"/>
      <point x="197.00799999999992" y="248.59600407209842"/>
      <point x="197.00799999999992" y="425.0" type="curve" smooth="yes"/>
      <point x="197.00799999999992" y="601.4039959279016"/>
      <point x="259.7426669903997" y="743.8655"/>
      <point x="382.5353809523809" y="743.8655" type="curve" smooth="yes"/>
      <point x="505.3280949143621" y="743.8655"/>
      <point x="568.0627619047619" y="601.4039959279016"/>
    </contour>
  </outline>
</glyph>
<glyph name="one" format="2">
  <advance width="609.6247384033202"/>
  <unicode hex="0031"/>
  <outline>
    <contour>
      <point x="302.82530102539056" y="0" type="line"/>
      <point x="435.12673840332025" y="0" type="line"/>
      <point x="435.12673840332025" y="850" type="line"/>
      <point x="186.95180401611324" y="850" type="line"/>
      <point x="119.49799999999996" y="728.8655014038086" type="line"/>
      <point x="302.82530102539056" y="728.8655014038086" type="line"/>
    </contour>
  </outline>
</glyph>
<glyph name="two" format="2">
  <advance width="705.745282836914"/>
  <unicode hex="0032"/>
  <outline>
    <contour>
      <point x="63.49799999999996" y="0" type="line"/>
      <point x="629.2472828369141" y="0" type="line"/>
      <point x="629.2472828369141" y="121.1344985961914" type="line"/>
      <point x="316.5251453857421" y="121.1344985961914" type="line"/>
      <point x="508.8512252193572" y="362.7882912666203" type="line"/>
      <point x="563.0128720927029" y="430.8412947674634"/>
      <point x="609.2472827875049" y="500.3660490161777"/>
      <point x="609.2472827875047" y="600.1544761904761" type="curve"/>
      <point x="609.2472827875048" y="746.3182368344931"/>
      <point x="489.24425484895545" y="865.0"/>
      <point x="341.4017589779808" y="865.0" type="curve"/>
      <point x="249.58128440434774" y="865.0"/>
      <point x="167.35497440447733" y="834.1639022556935"/>
      <point x="112.2242344360351" y="780.7092666625977" type="curve"/>
      <point x="112.2242344360351" y="627.7748794555664" type="line"/>
      <point x="154.1035708851433" y="696.8772992481645"/>
      <point x="237.49287531387535" y="744.0489000000002"/>
      <point x="333.5677589779809" y="744.0489000000002" type="curve"/>
      <point x="416.48994706944757" y="744.0489"/>
      <point x="483.81315994415473" y="685.2572573029345"/>
      <point x="483.81315994415473" y="602.2796428571428" type="curve"/>
      <point x="483.81315994415496" y="549.2102003703959"/>
      <point x="458.8808570356916" y="504.83608306341864"/>
      <point x="413.6941795752069" y="447.14044742855873" type="curve"/>
    </contour>
  </outline>
</glyph>
<glyph name="three" format="2">
  <advance width="671.5476204833984"/>
  <unicode hex="0033"/>
  <outline>
    <contour>
      <point x="293.18680989002036" y="105.38546109285716" type="curve"/>
      <point x="202.57515000549546" y="105.38546109285714"/>
      <point x="122.57601463492277" y="143.4947690501631"/>
      <point x="74.49799999999996" y="201.62540435791016" type="curve"/>
      <point x="74.49799999999996" y="56.002197265625" type="line"/>
      <point x="132.20446963085334" y="10.578883036254226"/>
      <point x="211.36690092134717" y="-14.99999999999999"/>
      <point x="298.6888098900203" y="-14.999999999999979" type="curve"/>
      <point x="469.8115018456378" y="-15.0"/>
      <point x="608.38161941383" y="113.1064536940722"/>
      <point x="608.38161941383" y="271.6088095238095" type="curve"/>
      <point x="608.38161941383" y="406.6614000487104"/>
      <point x="516.05793185845" y="509.1843758547917"/>
      <point x="388.14019665527337" y="544.680419921875" type="curve"/>
      <point x="617.0496204833985" y="850" type="line"/>
      <point x="95.83000073242184" y="850" type="line"/>
      <point x="95.83000073242184" y="728.8655014038086" type="line"/>
      <point x="383.6752689819335" y="728.8655014038086" type="line"/>
      <point x="153.77371105957025" y="426.12855529785156" type="line"/>
      <point x="198.95246852308946" y="439.8015697465369"/>
      <point x="244.75710559228497" y="442.7839579547619"/>
      <point x="276.35280989002035" y="442.78395795476183" type="curve"/>
      <point x="389.3005867171061" y="442.7839579547619"/>
      <point x="480.8716194138299" y="375.89732437127276"/>
      <point x="480.8716194138299" y="274.0847095238095" type="curve"/>
      <point x="480.8716194138299" y="179.09869786823717"/>
      <point x="396.89072145593576" y="105.38546109285716"/>
    </contour>
  </outline>
</glyph>
<glyph name="four" format="2">
  <advance width="751.1720025024414"/>
  <unicode hex="0034"/>
  <outline>
    <contour>
      <point x="23.497999999999962" y="206.24500274658203" type="line"/>
      <point x="475.7252491455078" y="206.24500274658203" type="line"/>
      <point x="475.7252491455078" y="0" type="line"/>
      <point x="603.2352512817383" y="0" type="line"/>
      <point x="603.2352512817383" y="206.24500274658203" type="line"/>
      <point x="706.6740025024415" y="206.24500274658203" type="line"/>
      <point x="706.6740025024415" y="323.30645751953125" type="line"/>
      <point x="603.2352512817383" y="323.30645751953125" type="line"/>
      <point x="603.2352512817383" y="593.3878555297852" type="line"/>
      <point x="475.7252491455078" y="593.3878555297852" type="line"/>
      <point x="475.7252491455078" y="323.30645751953125" type="line"/>
      <point x="235.7075642089843" y="323.30645751953125" type="line"/>
      <point x="560.6868580322266" y="850" type="line"/>
      <point x="417.34387860107415" y="850" type="line"/>
    </contour>
  </outline>
</glyph>
<glyph name="five" format="2">
  <advance width="669.393915568034"/>
  <unicode hex="0035"/>
  <outline>
    <contour>
      <point x="293.7799572347005" y="-15.000000000000028" type="curve"/>
      <point x="466.1467104327433" y="-15.0"/>
      <point x="605.8959155680341" y="114.85838467449386"/>
      <point x="605.8959155680341" y="274.6661583333334" type="curve"/>
      <point x="605.8959155680341" y="437.4514488161109"/>
      <point x="471.42339752368326" y="564.3323166666668"/>
      <point x="305.61395723470054" y="564.3323166666668" type="curve"/>
      <point x="295.88079019611615" y="564.3323166666668"/>
      <point x="270.79365300902185" y="564.0193143298904"/>
      <point x="242.97549328613275" y="560.8168792724609" type="curve"/>
      <point x="253.64597973632806" y="728.8655014038086" type="line"/>
      <point x="565.8959187011719" y="728.8655014038086" type="line"/>
      <point x="565.8959187011719" y="850" type="line"/>
      <point x="136.93321118164056" y="850" type="line"/>
      <point x="108.60780987548823" y="403.90550231933594" type="line"/>
      <point x="159.1819820694535" y="432.17550332232724"/>
      <point x="222.59969713897266" y="447.28064166666684"/>
      <point x="291.4439572347005" y="447.28064166666684" type="curve"/>
      <point x="394.62979128760827" y="447.2806416666668"/>
      <point x="478.38591556803397" y="376.39073297067705"/>
      <point x="478.38591556803397" y="276.3167583333334" type="curve"/>
      <point x="478.38591556803397" y="178.8024853365672"/>
      <point x="391.7693045439857" y="105.35287499999998"/>
      <point x="285.1119572347005" y="105.35287499999998" type="curve"/>
      <point x="195.0278279091491" y="105.35287499999997"/>
      <point x="115.59835786007766" y="142.98833275970327"/>
      <point x="68.49799999999996" y="200.2016830444336" type="curve"/>
      <point x="68.49799999999996" y="59.26441955566406" type="line"/>
      <point x="126.77906367944574" y="13.310822735910726"/>
      <point x="206.19635087070208" y="-14.999999999999979"/>
    </contour>
  </outline>
</glyph>
<glyph name="six" format="2">
  <advance width="728.1187442528735"/>
  <unicode hex="0036"/>
  <outline>
    <contour>
      <point x="133.5508876498671" y="491.4389875121265" type="line"/>
      <point x="89.17394984769992" y="421.3989627459597"/>
      <point x="59.49800000000003" y="365.82220349165993"/>
      <point x="59.49799999999996" y="286.1989583333335" type="curve"/>
      <point x="59.49800000000005" y="118.10696254494363"/>
      <point x="195.96737633804685" y="-14.999999999999979"/>
      <point x="364.0593721264367" y="-15.0" type="curve" smooth="yes"/>
      <point x="532.1513679148267" y="-15.0"/>
      <point x="668.6207442528736" y="118.1069625449434"/>
      <point x="668.6207442528736" y="286.1989583333333" type="curve"/>
      <point x="668.6207442528736" y="451.4961791733159"/>
      <point x="534.4203706262614" y="582.3341390068247"/>
      <point x="369.1231497862787" y="582.3341390068247" type="curve" smooth="yes"/>
      <point x="357.76541244514266" y="582.3341390068247"/>
      <point x="346.5544895863687" y="581.7164266318541"/>
      <point x="335.5238331298828" y="580.5093002319336" type="curve"/>
      <point x="509.5238255004883" y="850" type="line"/>
      <point x="360.7329853515625" y="850" type="line"/>
    </contour>
    <contour>
      <point x="541.1107442528736" y="286.19895833333334" type="curve" smooth="yes"/>
      <point x="541.1107442528736" y="186.80866945618425"/>
      <point x="462.2696235835221" y="106.1345"/>
      <point x="364.05937212643676" y="106.1345" type="curve" smooth="yes"/>
      <point x="265.8491206693514" y="106.1345"/>
      <point x="187.00799999999998" y="186.80866945618425"/>
      <point x="187.00799999999998" y="286.19895833333334" type="curve" smooth="yes"/>
      <point x="187.00799999999998" y="385.5892472104824"/>
      <point x="265.8491206693514" y="466.26341666666667"/>
      <point x="364.05937212643676" y="466.26341666666667" type="curve" smooth="yes"/>
      <point x="462.2696235835221" y="466.26341666666667"/>
      <point x="541.1107442528736" y="385.5892472104824"/>
    </contour>
  </outline>
</glyph>
<glyph name="seven" format="2">
  <advance width="722.8877388916015"/>
  <unicode hex="0037"/>
  <outline>
    <contour>
      <point x="479.336638305664" y="728.8655014038086" type="line"/>
      <point x="107.816733215332" y="0" type="line"/>
      <point x="248.7732380371093" y="0" type="line"/>
      <point x="678.3897388916016" y="850" type="line"/>
      <point x="84.49799999999996" y="850" type="line"/>
      <point x="84.49799999999996" y="728.8655014038086" type="line"/>
    </contour>
  </outline>
</glyph>
<glyph name="eight" format="2">
  <advance width="722.5401666666668"/>
  <unicode hex="0038"/>
  <outline>
    <contour>
      <point x="59.49799999999996" y="236.37549999999993" type="curve"/>
      <point x="59.497999999999976" y="97.77219559433112"/>
      <point x="194.58755381928245" y="-14.99999999999998"/>
      <point x="361.2700833333333" y="-15.0" type="curve" smooth="yes"/>
      <point x="527.9526128473843" y="-15.000000000000028"/>
      <point x="663.0421666666668" y="97.77219559433107"/>
      <point x="663.0421666666668" y="236.37549999999996" type="curve"/>
      <point x="663.0421666666668" y="329.82116125515495"/>
      <point x="615.5807022878993" y="400.7849832343229"/>
      <point x="542.2450016479493" y="443.09400939941406" type="curve"/>
      <point x="604.9404864660644" y="483.1422938104109"/>
      <point x="644.8761666666669" y="546.9659580795868"/>
      <point x="644.8761666666669" y="629.9565" type="curve"/>
      <point x="644.8761666666669" y="759.5507202731851"/>
      <point x="518.0278175054577" y="865.0"/>
      <point x="361.2700833333334" y="865.0" type="curve" smooth="yes"/>
      <point x="204.5123491612091" y="865.0"/>
      <point x="77.66399999999999" y="759.5507202731851"/>
      <point x="77.66399999999997" y="629.9565" type="curve"/>
      <point x="77.66399999999997" y="546.9631460850786"/>
      <point x="117.60238655275622" y="483.13796871802913"/>
      <point x="180.30150494384765" y="443.0953903198242" type="curve"/>
      <point x="106.96218776564554" y="400.7890551333577"/>
      <point x="59.49799999999995" y="329.8238422200219"/>
    </contour>
    <contour>
      <point x="517.3661666666668" y="620.7993871338259" type="curve" smooth="yes"/>
      <point x="517.3661666666668" y="547.4683924449668"/>
      <point x="447.48519762527377" y="497.73327426765184"/>
      <point x="361.2700833333334" y="497.73327426765184" type="curve" smooth="yes"/>
      <point x="275.0549690413929" y="497.73327426765184"/>
      <point x="205.17399999999998" y="547.4683924449668"/>
      <point x="205.17399999999998" y="620.7993871338259" type="curve" smooth="yes"/>
      <point x="205.17399999999998" y="694.1303818226851"/>
      <point x="275.0549690413929" y="743.8655"/>
      <point x="361.2700833333334" y="743.8655" type="curve" smooth="yes"/>
      <point x="447.48519762527377" y="743.8655"/>
      <point x="517.3661666666668" y="694.1303818226851"/>
    </contour>
    <contour>
      <point x="535.5321666666669" y="245.53261286617408" type="curve" smooth="yes"/>
      <point x="535.5321666666669" y="162.8877947487351"/>
      <point x="457.4985349416343" y="106.1345"/>
      <point x="361.2700833333334" y="106.1345" type="curve" smooth="yes"/>
      <point x="265.04163172503246" y="106.1345"/>
      <point x="187.00799999999998" y="162.8877947487351"/>
      <point x="187.00799999999998" y="245.53261286617408" type="curve" smooth="yes"/>
      <point x="187.00799999999998" y="328.177430983613"/>
      <point x="265.04163172503246" y="384.93072573234815"/>
      <point x="361.2700833333334" y="384.93072573234815" type="curve" smooth="yes"/>
      <point x="457.4985349416343" y="384.93072573234815"/>
      <point x="535.5321666666669" y="328.177430983613"/>
    </contour>
  </outline>
</glyph>
<glyph name="nine" format="2">
  <advance width="728.1187442528736"/>
  <unicode hex="0039"/>
  <outline>
    <contour>
      <point x="594.5678546230364" y="358.56101212439034" type="line"/>
      <point x="638.9447914738608" y="428.60103749332217"/>
      <point x="668.6207442528737" y="484.1777965083402"/>
      <point x="668.6207442528737" y="563.8010416666666" type="curve"/>
      <point x="668.6207442528736" y="731.8930374550565"/>
      <point x="532.1513679148267" y="865.0"/>
      <point x="364.0593721264367" y="865.0" type="curve" smooth="yes"/>
      <point x="195.96737633804685" y="865.0"/>
      <point x="59.497999999999976" y="731.8930374550565"/>
      <point x="59.49799999999996" y="563.8010416666666" type="curve"/>
      <point x="59.497999999999976" y="398.503820826684"/>
      <point x="193.69837362661212" y="267.6658609931752"/>
      <point x="358.9955944665947" y="267.6658609931752" type="curve" smooth="yes"/>
      <point x="370.35333180773074" y="267.6658609931752"/>
      <point x="381.5642546665047" y="268.2835733681457"/>
      <point x="392.5949161987304" y="269.4906997680664" type="curve"/>
      <point x="218.5949161987304" y="0" type="line"/>
      <point x="367.3857639770507" y="0" type="line"/>
    </contour>
    <contour>
      <point x="541.1107442528736" y="563.8010416666666" type="curve" smooth="yes"/>
      <point x="541.1107442528736" y="464.4107527895175"/>
      <point x="462.26962358352205" y="383.7365833333333"/>
      <point x="364.0593721264367" y="383.7365833333333" type="curve" smooth="yes"/>
      <point x="265.84912066935135" y="383.7365833333333"/>
      <point x="187.00799999999992" y="464.4107527895175"/>
      <point x="187.00799999999992" y="563.8010416666666" type="curve" smooth="yes"/>
      <point x="187.00799999999992" y="663.1913305438156"/>
      <point x="265.84912066935135" y="743.8654999999999"/>
      <point x="364.0593721264367" y="743.8654999999999" type="curve" smooth="yes"/>
      <point x="462.26962358352205" y="743.8654999999999"/>
      <point x="541.1107442528736" y="663.1913305438156"/>
    </contour>
  </outline>
</glyph>
<glyph name="colon" format="2">
  <advance width="347.64628533333325"/>
  <unicode hex="003A"/>
  <outline>
    <contour>
      <point x="267.14828533333326" y="528.5523573333334" type="curve" smooth="yes"/>
      <point x="267.14828533333326" y="580.0599053147096"/>
      <point x="225.33069064804278" y="621.8775"/>
      <point x="173.82314266666663" y="621.8775" type="curve" smooth="yes"/>
      <point x="122.31559468529043" y="621.8775"/>
      <point x="80.49799999999996" y="580.0599053147096"/>
      <point x="80.49799999999996" y="528.5523573333334" type="curve" smooth="yes"/>
      <point x="80.49799999999996" y="477.0448093519572"/>
      <point x="122.31559468529043" y="435.2272146666667"/>
      <point x="173.82314266666663" y="435.2272146666667" type="curve" smooth="yes"/>
      <point x="225.33069064804278" y="435.22721466666667"/>
      <point x="267.14828533333326" y="477.04480935195716"/>
    </contour>
    <contour>
      <point x="267.14828533333326" y="78.32514266666665" type="curve" smooth="yes"/>
      <point x="267.14828533333326" y="129.83269064804284"/>
      <point x="225.33069064804278" y="171.6502853333333"/>
      <point x="173.82314266666663" y="171.6502853333333" type="curve" smooth="yes"/>
      <point x="122.31559468529043" y="171.6502853333333"/>
      <point x="80.49799999999996" y="129.83269064804284"/>
      <point x="80.49799999999996" y="78.32514266666665" type="curve" smooth="yes"/>
      <point x="80.49799999999996" y="26.817594685290487"/>
      <point x="122.31559468529043" y="-15.0"/>
      <point x="173.82314266666663" y="-15.0" type="curve" smooth="yes"/>
      <point x="225.33069064804278" y="-15.000000000000014"/>
      <point x="267.14828533333326" y="26.81759468529046"/>
    </contour>
  </outline>
</glyph>
<glyph name="semicolon" format="2">
  <advance width="361.50280722949446"/>
  <unicode hex="003B"/>
  <outline>
    <contour>
      <point x="267.14828533333326" y="528.5523573333334" type="curve" smooth="yes"/>
      <point x="267.14828533333326" y="580.0599053147096"/>
      <point x="225.33069064804278" y="621.8775"/>
      <point x="173.82314266666663" y="621.8775" type="curve" smooth="yes"/>
      <point x="122.31559468529043" y="621.8775"/>
      <point x="80.49799999999996" y="580.0599053147096"/>
      <point x="80.49799999999996" y="528.5523573333334" type="curve" smooth="yes"/>
      <point x="80.49799999999996" y="477.0448093519572"/>
      <point x="122.31559468529043" y="435.2272146666667"/>
      <point x="173.82314266666663" y="435.2272146666667" type="curve" smooth="yes"/>
      <point x="225.33069064804278" y="435.22721466666667"/>
      <point x="267.14828533333326" y="477.04480935195716"/>
    </contour>
    <contour>
      <point x="80.49799999999996" y="78.32514266666665" type="curve" smooth="yes"/>
      <point x="80.49799999999996" y="26.817594685290487"/>
      <point x="122.31559468529043" y="-15.0"/>
      <point x="173.82314266666663" y="-15.0" type="curve"/>
      <point x="192.57358988097093" y="-15.0"/>
      <point x="210.03992424136675" y="-9.458331303143673"/>
      <point x="224.67224087223303" y="0.0848541259765625" type="curve"/>
      <point x="212.14013180739363" y="-76.07741893820426"/>
      <point x="166.8135865712631" y="-141.19002806403398"/>
      <point x="103.70983089908849" y="-180.28929901123047" type="curve"/>
      <point x="168.321036953776" y="-180.28929901123047" type="line"/>
      <point x="242.05168906497465" y="-133.35170190826707"/>
      <point x="291.00480722949453" y="-50.89291124872686"/>
      <point x="291.00480722949453" y="42.90927029911853" type="curve"/>
      <point x="291.00480722949453" y="83.69421408720342"/>
      <point x="273.6342245760673" y="113.06648005994842"/>
      <point x="262.07681373112865" y="128.12839111742258" type="curve"/>
      <point x="237.08882893824688" y="160.6933669156763"/>
      <point x="201.29930595268547" y="171.6502853333333"/>
      <point x="173.82314266666663" y="171.6502853333333" type="curve"/>
      <point x="122.3155946852904" y="171.6502853333333"/>
      <point x="80.49799999999996" y="129.83269064804276"/>
    </contour>
  </outline>
</glyph>
<glyph name="less" format="2">
  <advance width="696.8735024414062"/>
  <unicode hex="003C"/>
  <outline>
    <contour>
      <point x="632.3755024414063" y="114.68374633789062" type="line"/>
      <point x="632.3755024414063" y="252.86507415771484" type="line"/>
      <point x="293.87051281738275" y="425" type="line"/>
      <point x="632.3755024414063" y="597.1349258422852" type="line"/>
      <point x="632.3755024414063" y="735.3162536621094" type="line"/>
      <point x="25.497999999999962" y="425" type="line"/>
    </contour>
  </outline>
</glyph>
<glyph name="equal" format="2">
  <advance width="802.7510000000001"/>
  <unicode hex="003D"/>
  <outline>
    <contour>
      <point x="94.49799999999996" y="504.547" type="line"/>
      <point x="708.2530000000002" y="504.547" type="line"/>
      <point x="708.2530000000002" y="628.947" type="line"/>
      <point x="94.49799999999996" y="628.947" type="line"/>
    </contour>
    <contour>
      <point x="94.49799999999996" y="221.053" type="line"/>
      <point x="708.2530000000002" y="221.053" type="line"/>
      <point x="708.2530000000002" y="345.453" type="line"/>
      <point x="94.49799999999996" y="345.453" type="line"/>
    </contour>
  </outline>
</glyph>
<glyph name="greater" format="2">
  <advance width="696.8735024414062"/>
  <unicode hex="003E"/>
  <outline>
    <contour>
      <point x="64.49799999999996" y="114.68374633789062" type="line"/>
      <point x="671.3755024414063" y="425" type="line"/>
      <point x="64.49799999999996" y="735.3162536621094" type="line"/>
      <point x="64.49799999999996" y="597.1349258422852" type="line"/>
      <point x="403.00298962402337" y="425" type="line"/>
      <point x="64.49799999999996" y="252.86507415771484" type="line"/>
    </contour>
  </outline>
</glyph>
<glyph name="question" format="2">
  <advance width="603.3782868129186"/>
  <unicode hex="003F"/>
  <outline>
    <contour>
      <point x="246.93614395577566" y="455.0146142857142" type="curve"/>
      <point x="221.9716347066692" y="455.01461441382594"/>
      <point x="191.42721220080495" y="458.5422989199052"/>
      <point x="158.75992474365228" y="470.2990951538086" type="curve"/>
      <point x="165.32105145263665" y="244.54602813720703" type="line"/>
      <point x="266.85589489746087" y="244.54602813720703" type="line"/>
      <point x="272.13018688964837" y="335.2840042114258" type="line"/>
      <point x="416.1460318730822" y="344.91032105406913"/>
      <point x="529.8802868129187" y="459.476199052611"/>
      <point x="529.8802868129187" y="599.8068571428571" type="curve"/>
      <point x="529.8802868129187" y="746.0756536966444"/>
      <point x="412.2767610080321" y="865.0"/>
      <point x="267.4381439557757" y="865.0" type="curve"/>
      <point x="204.82687210635493" y="865.0"/>
      <point x="147.0226335616302" y="845.6432134424392"/>
      <point x="100.49799999999996" y="812.6517105102539" type="curve"/>
      <point x="100.49799999999996" y="676.3869323730469" type="line"/>
      <point x="140.91893512663802" y="718.1265863417605"/>
      <point x="197.46908101652008" y="744.0488999999999"/>
      <point x="260.10214395577566" y="744.0489" type="curve"/>
      <point x="339.84846158910017" y="744.0489"/>
      <point x="402.3702868129186" y="679.4181123523689"/>
      <point x="402.3702868129186" y="599.8068571428571" type="curve"/>
      <point x="402.3702868129186" y="518.7661889809334"/>
      <point x="332.713134612187" y="455.0146142857142"/>
    </contour>
    <contour>
      <point x="309.413616945376" y="78.32514266666665" type="curve" smooth="yes"/>
      <point x="309.413616945376" y="129.83269064804284"/>
      <point x="267.59602226008553" y="171.6502853333333"/>
      <point x="216.08847427870938" y="171.6502853333333" type="curve" smooth="yes"/>
      <point x="164.58092629733318" y="171.6502853333333"/>
      <point x="122.76333161204273" y="129.83269064804284"/>
      <point x="122.76333161204273" y="78.32514266666665" type="curve" smooth="yes"/>
      <point x="122.76333161204273" y="26.817594685290487"/>
      <point x="164.58092629733318" y="-15.0"/>
      <point x="216.08847427870938" y="-15.0" type="curve" smooth="yes"/>
      <point x="267.59602226008553" y="-15.000000000000014"/>
      <point x="309.413616945376" y="26.81759468529046"/>
    </contour>
  </outline>
</glyph>
<glyph name="at" format="2">
  <advance width="1088.996"/>
  <unicode hex="0040"/>
  <outline>
    <contour>
      <point x="139.1893882857143" y="425.00000000000006" type="curve"/>
      <point x="139.18938828571424" y="648.6959105404623"/>
      <point x="320.80208945953774" y="830.3086117142857"/>
      <point x="544.498" y="830.3086117142857" type="curve" smooth="yes"/>
      <point x="768.1939105404624" y="830.3086117142857"/>
      <point x="949.8066117142857" y="648.6959105404624"/>
      <point x="949.8066117142857" y="425.0" type="curve"/>
      <point x="949.8066117142857" y="272.97735306602954"/>
      <point x="901.0548186391568" y="263.1599216666666"/>
      <point x="879.9728725" y="263.1599216666666" type="curve"/>
      <point x="833.4838308989059" y="263.1599216666666"/>
      <point x="809.5883580541495" y="310.89936594503865"/>
      <point x="809.5883567154242" y="467.5" type="curve"/>
      <point x="809.5883549194336" y="677.5903549194336" type="line"/>
      <point x="687.2068775634766" y="677.5903549194336" type="line"/>
      <point x="687.2068775634766" y="639.8247833251953" type="line"/>
      <point x="645.1266028548145" y="672.8796955117739"/>
      <point x="592.0959740307401" y="692.5903571428573"/>
      <point x="534.498" y="692.5903571428574" type="curve"/>
      <point x="382.6715000356927" y="692.5903571428572"/>
      <point x="259.4076428571427" y="569.3264999643072"/>
      <point x="259.4076428571427" y="417.5" type="curve" smooth="yes"/>
      <point x="259.4076428571427" y="265.6735000356927"/>
      <point x="382.6715000356926" y="142.4096428571428"/>
      <point x="534.4979999999999" y="142.40964285714279" type="curve"/>
      <point x="611.9929338848668" y="142.40964285714279"/>
      <point x="681.7900061268974" y="175.63020356135104"/>
      <point x="730.4130085449219" y="228.61325073242188" type="curve"/>
      <point x="760.9271089932078" y="178.4897067720653"/>
      <point x="806.8490633450177" y="147.40964285714279"/>
      <point x="867.5778725" y="147.40964285714276" type="curve"/>
      <point x="997.0398110594922" y="147.40964285714279"/>
      <point x="1059.498" y="271.6445617105845"/>
      <point x="1059.498" y="425.0" type="curve"/>
      <point x="1059.498" y="709.2362353000002"/>
      <point x="828.7342353000003" y="940.0"/>
      <point x="544.498" y="940.0" type="curve" smooth="yes"/>
      <point x="260.26176469999996" y="940.0"/>
      <point x="29.497999999999962" y="709.2362353000001"/>
      <point x="29.497999999999962" y="425.00000000000006" type="curve"/>
      <point x="29.497999999999976" y="140.76376469999985"/>
      <point x="260.2617646999997" y="-89.99999999999997"/>
      <point x="544.4979999999999" y="-90.0" type="curve"/>
      <point x="635.5743172854778" y="-90.0"/>
      <point x="724.1914419104373" y="-66.14813041330481"/>
      <point x="801.998" y="-21.900314331054688" type="curve"/>
      <point x="801.998" y="103.3375244140625" type="line"/>
      <point x="728.3384417086903" y="49.323247344830115"/>
      <point x="638.9282835062126" y="19.691388285714307"/>
      <point x="546.4630000000002" y="19.691388285714297" type="curve"/>
      <point x="321.642848327296" y="19.691388285714325"/>
      <point x="139.1893882857143" y="201.30977475383887"/>
    </contour>
    <contour>
      <point x="685.6577450000001" y="417.5" type="curve" smooth="yes"/>
      <point x="685.6577450000001" y="330.5649705626308"/>
      <point x="618.9684619946053" y="259.96475499999997"/>
      <point x="534.498" y="259.96475499999997" type="curve" smooth="yes"/>
      <point x="450.0275380053948" y="259.96475499999997"/>
      <point x="383.3382549999999" y="330.5649705626308"/>
      <point x="383.3382549999999" y="417.5" type="curve" smooth="yes"/>
      <point x="383.3382549999999" y="504.43502943736917"/>
      <point x="450.0275380053948" y="575.035245"/>
      <point x="534.498" y="575.035245" type="curve" smooth="yes"/>
      <point x="618.9684619946053" y="575.035245"/>
      <point x="685.6577450000001" y="504.43502943736917"/>
    </contour>
  </outline>
</glyph>
<glyph name="A" format="2">
  <advance width="810.27480859375"/>
  <unicode hex="0041"/>
  <anchor x="405.1374047619047" y="997.1214046305419" name="top" identifier="top"/>
  <anchor x="405.1374047619047" y="-171.64163873563217" name="below" identifier="below"/>
  <anchor x="816.7768095238096" y="0" name="ogonek" identifier="ogonek"/>
  <outline>
    <contour>
      <point x="-6.502000000000038" y="0" type="line"/>
      <point x="123.58438763427729" y="0" type="line"/>
      <point x="202.8494328002929" y="169.04232788085938" type="line"/>
      <point x="600.5449131469727" y="169.04232788085938" type="line"/>
      <point x="679.8099583129883" y="0" type="line"/>
      <point x="816.77680859375" y="0" type="line"/>
      <point x="405.13740429687493" y="873.6679992675781" type="line"/>
    </contour>
    <contour>
      <point x="401.69717297363275" y="593.1092910766602" type="line"/>
      <point x="546.7999714355469" y="283.6599578857422" type="line"/>
      <point x="256.5943745117187" y="283.6599578857422" type="line"/>
    </contour>
  </outline>
</glyph>
<glyph name="B" format="2">
  <advance width="671.6924761904762"/>
  <unicode hex="0042"/>
  <anchor x="338.61378998357964" y="997.1214046305419" name="top" identifier="top"/>
  <anchor x="356.61378998357964" y="-171.64163873563217" name="below" identifier="below"/>
  <outline>
    <contour>
      <point x="94.49799999999996" y="0" type="line"/>
      <point x="344.1137913208007" y="0.0" type="line"/>
      <point x="613.3955143541234" y="0.0"/>
      <point x="637.1944761904763" y="178.31784603925712"/>
      <point x="637.1944761904763" y="243.08068620689656" type="curve"/>
      <point x="637.1944761904763" y="329.36579482439265"/>
      <point x="590.6966661283097" y="404.8764467003043"/>
      <point x="521.4127109985352" y="445.8872604370117" type="curve"/>
      <point x="567.453932800048" y="487.550597747696"/>
      <point x="596.3952761904762" y="547.7814185575859"/>
      <point x="596.3952761904762" y="614.7185137931034" type="curve"/>
      <point x="596.3952761904762" y="678.0139842406368"/>
      <point x="573.7853317140853" y="850.0"/>
      <point x="311.11378998357964" y="850.0" type="curve"/>
      <point x="94.49799999999996" y="850" type="line"/>
    </contour>
    <contour>
      <point x="222.0080021362304" y="488.80126190185547" type="line"/>
      <point x="222.0080021362304" y="728.8655014038086" type="line"/>
      <point x="318.5469784780871" y="728.8655014038086" type="line"/>
      <point x="445.72873400084524" y="728.8655014038086"/>
      <point x="468.8707865311658" y="658.6767722123461"/>
      <point x="468.8707865311658" y="608.8333827553448" type="curve" smooth="yes"/>
      <point x="468.8707865311658" y="558.9899932983435"/>
      <point x="445.728737001842" y="488.801268241877"/>
      <point x="318.5469812172037" y="488.8012646376734" type="curve"/>
    </contour>
    <contour>
      <point x="222.0080021362304" y="121.1344985961914" type="line"/>
      <point x="222.0080021362304" y="380.4651336669922" type="line"/>
      <point x="347.24722037998237" y="380.4651336669922" type="line"/>
      <point x="486.4264835040969" y="380.4651336669922"/>
      <point x="509.66998653116576" y="302.6820143489873"/>
      <point x="509.66998653116576" y="250.79981724465517" type="curve" smooth="yes"/>
      <point x="509.66998653116576" y="199.67934480444453"/>
      <point x="487.10572072019227" y="121.13450094395331"/>
      <point x="347.24722257088337" y="121.13449970533664" type="curve"/>
    </contour>
  </outline>
</glyph>
<glyph name="D" format="2">
  <advance width="818.9687380952381"/>
  <unicode hex="0044"/>
  <anchor x="392.3434591836734" y="997.1214046305419" name="top" identifier="top"/>
  <anchor x="392.3434591836734" y="-171.64163873563217" name="below" identifier="below"/>
  <anchor x="392.3434591836734" y="0" name="bottom" identifier="bottom"/>
  <anchor x="158.25299999999993" y="425.0" name="stroke" identifier="stroke"/>
  <outline>
    <contour>
      <point x="94.49799999999996" y="0" type="line"/>
      <point x="314.4707401733398" y="0.0" type="line"/>
      <point x="683.8588315808302" y="0.0"/>
      <point x="789.4707380952382" y="256.7957197583929"/>
      <point x="789.4707380952382" y="425.0" type="curve" smooth="yes"/>
      <point x="789.4707380952382" y="593.2042802416071"/>
      <point x="683.8588295027284" y="850.0"/>
      <point x="314.47073809523806" y="850.0" type="curve"/>
      <point x="94.49799999999996" y="850" type="line"/>
    </contour>
    <contour>
      <point x="222.0080021362304" y="121.1344985961914" type="line"/>
      <point x="222.0080021362304" y="728.8655014038086" type="line"/>
      <point x="311.28298840332025" y="728.8655014038086" type="line"/>
      <point x="608.3683042956751" y="728.8655014038086"/>
      <point x="660.2457725642037" y="530.2930646031385"/>
      <point x="660.2457725642037" y="425.0" type="curve" smooth="yes"/>
      <point x="660.2457725642037" y="319.70693539686147"/>
      <point x="608.3683039875929" y="121.13450249047227"/>
      <point x="311.28298809523807" y="121.13449949602989" type="curve"/>
    </contour>
  </outline>
</glyph>
<glyph name="E" format="2">
  <advance width="653.3462349853515"/>
  <unicode hex="0045"/>
  <anchor x="343.15780654761903" y="997.1214046305419" name="top" identifier="top"/>
  <anchor x="339.173119047619" y="-171.64163873563217" name="below" identifier="below"/>
  <anchor x="343.15780654761903" y="0" name="bottom" identifier="bottom"/>
  <anchor x="583.8482380952381" y="0" name="ogonek" identifier="ogonek"/>
  <outline>
    <contour>
      <point x="94.49799999999996" y="0" type="line"/>
      <point x="583.8482349853516" y="0" type="line"/>
      <point x="583.8482349853516" y="121.1344985961914" type="line"/>
      <point x="222.0080021362304" y="121.1344985961914" type="line"/>
      <point x="222.0080021362304" y="371.24693298339844" type="line"/>
      <point x="553.8482349853516" y="371.24693298339844" type="line"/>
      <point x="553.8482349853516" y="486.9190673828125" type="line"/>
      <point x="222.0080021362304" y="486.9190673828125" type="line"/>
      <point x="222.0080021362304" y="728.8655014038086" type="line"/>
      <point x="583.8482349853516" y="728.8655014038086" type="line"/>
      <point x="583.8482349853516" y="850" type="line"/>
      <point x="94.49799999999996" y="850" type="line"/>
    </contour>
  </outline>
</glyph>
<glyph name="F" format="2">
  <advance width="622.3938576660156"/>
  <unicode hex="0046"/>
  <anchor x="345.18161607142855" y="997.1214046305419" name="top" identifier="top"/>
  <anchor x="222.00799999999992" y="0" name="lefthook" identifier="lefthook"/>
  <outline>
    <contour>
      <point x="94.49799999999996" y="0" type="line"/>
      <point x="222.0080021362304" y="0" type="line"/>
      <point x="222.0080021362304" y="369.37164306640625" type="line"/>
      <point x="542.8958576660157" y="369.37164306640625" type="line"/>
      <point x="542.8958576660157" y="486.9603500366211" type="line"/>
      <point x="222.0080021362304" y="486.9603500366211" type="line"/>
      <point x="222.0080021362304" y="728.8655014038086" type="line"/>
      <point x="587.8958576660157" y="728.8655014038086" type="line"/>
      <point x="587.8958576660157" y="850" type="line"/>
      <point x="94.49799999999996" y="850" type="line"/>
    </contour>
  </outline>
</glyph>
<glyph name="G" format="2">
  <advance width="846.7109658203125"/>
  <unicode hex="0047"/>
  <anchor x="445.3554827655172" y="997.1214046305419" name="top" identifier="top"/>
  <anchor x="445.3554827655172" y="0" name="bottom" identifier="bottom"/>
  <outline>
    <contour>
      <point x="491.0780094604492" y="467.33380126953125" type="line"/>
      <point x="438.7420109252929" y="350.27234649658203" type="line"/>
      <point x="665.704153869629" y="350.27234649658203" type="line"/>
      <point x="665.704153869629" y="170.7188262939453" type="line"/>
      <point x="613.4723151470934" y="131.22282619463584"/>
      <point x="548.6113497280221" y="107.60955611066565"/>
      <point x="478.10648236083983" y="106.912166595459" type="curve"/>
      <point x="302.5282977989492" y="106.80858276551726"/>
      <point x="161.2289327655172" y="249.38576801712358"/>
      <point x="161.2289327655172" y="425.0" type="curve" smooth="yes"/>
      <point x="161.2289327655172" y="600.6142319828766"/>
      <point x="302.52829779894927" y="743.1914172344827"/>
      <point x="478.1064827655172" y="743.1914172344827" type="curve"/>
      <point x="580.6233092648324" y="743.1914172344827"/>
      <point x="673.7810788097661" y="705.2279802688641"/>
      <point x="742.5214832763672" y="641.9940643310547" type="curve"/>
      <point x="742.5214832763672" y="784.7956161499023" type="line"/>
      <point x="667.7516074996166" y="835.8378954599215"/>
      <point x="575.3351415348101" y="865.0"/>
      <point x="475.35548276551725" y="865.0000000000001" type="curve"/>
      <point x="229.28363922310757" y="865.0"/>
      <point x="29.497999999999976" y="670.9293128243328"/>
      <point x="29.497999999999962" y="425.0" type="curve" smooth="yes"/>
      <point x="29.497999999999962" y="179.0706871756674"/>
      <point x="229.28363922310763" y="-15.0"/>
      <point x="475.35548276551725" y="-15.0" type="curve"/>
      <point x="598.2144788812151" y="-15.0"/>
      <point x="709.5351797698305" y="33.37823529681405"/>
      <point x="790.2129658203125" y="112.44544219970703" type="curve"/>
      <point x="790.2129658203125" y="467.33380126953125" type="line"/>
    </contour>
  </outline>
</glyph>
<glyph name="H" format="2">
  <advance width="792.9307610473633"/>
  <unicode hex="0048"/>
  <anchor x="396.4653809523809" y="997.1214046305419" name="top" identifier="top"/>
  <anchor x="396.4653809523809" y="-171.64163873563217" name="below" identifier="below"/>
  <anchor x="396.4653809523809" y="667.783625" name="stroke" identifier="stroke"/>
  <anchor x="158.25299999999993" y="0" name="bottom" identifier="bottom"/>
  <outline>
    <contour>
      <point x="94.49799999999996" y="0" type="line"/>
      <point x="222.0080021362304" y="0" type="line"/>
      <point x="222.0080021362304" y="369.43274688720703" type="line"/>
      <point x="570.9227589111329" y="369.43274688720703" type="line"/>
      <point x="570.9227589111329" y="0" type="line"/>
      <point x="698.4327610473633" y="0" type="line"/>
      <point x="698.4327610473633" y="850" type="line"/>
      <point x="570.9227589111329" y="850" type="line"/>
      <point x="570.9227589111329" y="490.56725311279297" type="line"/>
      <point x="222.0080021362304" y="490.56725311279297" type="line"/>
      <point x="222.0080021362304" y="850" type="line"/>
      <point x="94.49799999999996" y="850" type="line"/>
    </contour>
  </outline>
</glyph>
<glyph name="I" format="2">
  <advance width="319.532172413793"/>
  <unicode hex="0049"/>
  <anchor x="159.7660862068965" y="997.1214046305419" name="top" identifier="top"/>
  <anchor x="159.7660862068965" y="-171.64163873563217" name="below" identifier="below"/>
  <anchor x="225.03417241379304" y="0" name="ogonek" identifier="ogonek"/>
  <anchor x="159.7660862068965" y="425.0" name="stroke" identifier="stroke"/>
  <outline>
    <contour>
      <point x="94.49799999999996" y="0" type="line"/>
      <point x="225.03417241379304" y="0" type="line"/>
      <point x="225.03417241379304" y="850" type="line"/>
      <point x="94.49799999999996" y="850" type="line"/>
    </contour>
  </outline>
</glyph>
<glyph name="K" format="2">
  <advance width="725.1342217407226"/>
  <unicode hex="004B"/>
  <anchor x="352.9720136054421" y="997.1214046305419" name="top" identifier="top"/>
  <anchor x="360.5741904761904" y="0" name="bottom" identifier="bottom"/>
  <anchor x="360.5741904761904" y="-171.64163873563217" name="below" identifier="below"/>
  <outline>
    <contour>
      <point x="94.49799999999996" y="0" type="line"/>
      <point x="222.0080021362304" y="0" type="line"/>
      <point x="222.0080021362304" y="324.4391098022461" type="line"/>
      <point x="243.8464802246093" y="348.1703796386719" type="line"/>
      <point x="565.5518330078125" y="0" type="line"/>
      <point x="735.6362217407227" y="0" type="line"/>
      <point x="327.4839542846679" y="439.05690002441406" type="line"/>
      <point x="705.6504963378907" y="850" type="line"/>
      <point x="547.1777409057618" y="850" type="line"/>
      <point x="222.0080021362304" y="494.9515609741211" type="line"/>
      <point x="222.0080021362304" y="850" type="line"/>
      <point x="94.49799999999996" y="850" type="line"/>
    </contour>
  </outline>
</glyph>
<glyph name="L" format="2">
  <advance width="581.9176690063476"/>
  <unicode hex="004C"/>
  <anchor x="158.25299999999993" y="997.1214046305419" name="top" identifier="top"/>
  <anchor x="320.9588333333333" y="0" name="bottom" identifier="bottom"/>
  <anchor x="320.9588333333333" y="-171.64163873563217" name="below" identifier="below"/>
  <anchor x="328.26234778872464" y="850" name="right" identifier="right"/>
  <anchor x="158.25299999999993" y="425.0" name="stroke" identifier="stroke"/>
  <anchor x="445.79503446896547" y="488.755" name="dotmiddle" identifier="dotmiddle"/>
  <outline>
    <contour>
      <point x="94.49799999999996" y="0" type="line"/>
      <point x="547.4196690063477" y="0" type="line"/>
      <point x="547.4196690063477" y="121.1344985961914" type="line"/>
      <point x="222.0080021362304" y="121.1344985961914" type="line"/>
      <point x="222.0080021362304" y="850" type="line"/>
      <point x="94.49799999999996" y="850" type="line"/>
    </contour>
  </outline>
</glyph>
<glyph name="M" format="2">
  <advance width="981.7204644165039"/>
  <unicode hex="004D"/>
  <anchor x="490.86023214285706" y="997.1214046305419" name="top" identifier="top"/>
  <anchor x="490.86023214285706" y="-171.64163873563217" name="below" identifier="below"/>
  <outline>
    <contour>
      <point x="94.49799999999996" y="0" type="line"/>
      <point x="215.63249859619134" y="0" type="line"/>
      <point x="215.63249859619134" y="554.3463668823242" type="line"/>
      <point x="486.56407055664056" y="254.47901916503906" type="line"/>
      <point x="759.7124622802735" y="556.7999420166016" type="line"/>
      <point x="759.7124622802735" y="0" type="line"/>
      <point x="887.222464416504" y="0" type="line"/>
      <point x="887.222464416504" y="873.6679992675781" type="line"/>
      <point x="490.86023602294915" y="434.97386169433594" type="line"/>
      <point x="94.49799999999996" y="873.6679992675781" type="line"/>
    </contour>
  </outline>
</glyph>
<glyph name="N" format="2">
  <advance width="900.768087097168"/>
  <unicode hex="004E"/>
  <anchor x="450.3840416666666" y="997.1214046305419" name="top" identifier="top"/>
  <anchor x="450.3840416666666" y="-171.64163873563217" name="below" identifier="below"/>
  <anchor x="450.3840416666666" y="0" name="bottom" identifier="bottom"/>
  <anchor x="806.2700833333333" y="0" name="right" identifier="right"/>
  <anchor x="215.63249999999994" y="0" name="lefthook" identifier="lefthook"/>
  <outline>
    <contour>
      <point x="215.63249859619134" y="572.1713790893555" type="line"/>
      <point x="806.270087097168" y="-23.667999267578125" type="line"/>
      <point x="806.270087097168" y="850" type="line"/>
      <point x="685.1355808715821" y="850" type="line"/>
      <point x="685.1355808715821" y="277.82862091064453" type="line"/>
      <point x="94.49799999999996" y="873.6679992675781" type="line"/>
      <point x="94.49799999999996" y="0" type="line"/>
      <point x="215.63249859619134" y="0" type="line"/>
    </contour>
  </outline>
</glyph>
<glyph name="Q" format="2">
  <advance width="973.8293282470703"/>
  <unicode hex="0051"/>
  <outline>
    <contour>
      <point x="921.2129655310346" y="425.0" type="curve" smooth="yes"/>
      <point x="921.2129655310346" y="671.0754415176801"/>
      <point x="721.4309242831974" y="865.0"/>
      <point x="475.35548276551725" y="865.0" type="curve" smooth="yes"/>
      <point x="229.28004124783706" y="865.0"/>
      <point x="29.497999999999962" y="671.0754415176801"/>
      <point x="29.497999999999962" y="425.0" type="curve" smooth="yes"/>
      <point x="29.497999999999962" y="178.92455848231987"/>
      <point x="229.28004124783706" y="-15.0"/>
      <point x="475.35548276551725" y="-15.0" type="curve" smooth="yes"/>
      <point x="573.8080522377675" y="-15.0"/>
      <point x="664.8503071239475" y="16.04204867091796"/>
      <point x="738.6520451049805" y="69.05559539794922" type="curve"/>
      <point x="807.7076405029297" y="0" type="line"/>
      <point x="978.3313282470704" y="0" type="line"/>
      <point x="826.1601322631836" y="152.17119598388672" type="line"/>
      <point x="885.6931292531679" y="226.75417818133087"/>
      <point x="921.2129655310346" y="321.2410597068626"/>
    </contour>
    <contour>
      <point x="786.37555" y="425.0" type="curve" smooth="yes"/>
      <point x="786.37555" y="249.00797002295062"/>
      <point x="649.166154525306" y="106.1345"/>
      <point x="475.35548276551725" y="106.1345" type="curve" smooth="yes"/>
      <point x="301.5448110057286" y="106.1345"/>
      <point x="164.33541553103447" y="249.00797002295062"/>
      <point x="164.33541553103447" y="425.0" type="curve" smooth="yes"/>
      <point x="164.33541553103447" y="600.9920299770494"/>
      <point x="301.5448110057286" y="743.8655"/>
      <point x="475.35548276551725" y="743.8655" type="curve" smooth="yes"/>
      <point x="649.166154525306" y="743.8655"/>
      <point x="786.37555" y="600.9920299770494"/>
    </contour>
  </outline>
</glyph>
<glyph name="T" format="2">
  <advance width="649.4176690063476"/>
  <unicode hex="0054"/>
  <anchor x="324.7088333333333" y="997.1214046305419" name="top" identifier="top"/>
  <anchor x="324.7088333333333" y="-171.64163873563217" name="below" identifier="below"/>
  <anchor x="324.7088333333333" y="0" name="bottom" identifier="bottom"/>
  <anchor x="324.7088333333333" y="393.1225" name="stroke" identifier="stroke"/>
  <outline>
    <contour>
      <point x="388.463835571289" y="0" type="line"/>
      <point x="388.463835571289" y="728.8655014038086" type="line"/>
      <point x="614.9196690063477" y="728.8655014038086" type="line"/>
      <point x="614.9196690063477" y="850" type="line"/>
      <point x="34.49799999999996" y="850" type="line"/>
      <point x="34.49799999999996" y="728.8655014038086" type="line"/>
      <point x="260.9538334350585" y="728.8655014038086" type="line"/>
      <point x="260.9538334350585" y="0" type="line"/>
    </contour>
  </outline>
</glyph>
<glyph name="U" format="2">
  <advance width="776.9771935424804"/>
  <unicode hex="0055"/>
  <anchor x="388.4885952380952" y="997.1214046305419" name="top" identifier="top"/>
  <anchor x="388.4885952380952" y="-171.64163873563217" name="below" identifier="below"/>
  <anchor x="702.4791904761905" y="681.66" name="horn" identifier="horn"/>
  <outline>
    <contour>
      <point x="74.49799999999996" y="342.2657699584961" type="line"/>
      <point x="74.49799999999998" y="-1.3719290079434927"/>
      <point x="335.17503937797136" y="-14.999999999999993"/>
      <point x="388.4885952380951" y="-15.0" type="curve" smooth="yes"/>
      <point x="441.80215109821887" y="-15.0"/>
      <point x="702.4791888618404" y="-1.3719313145513183"/>
      <point x="702.4791907510786" y="342.26576765188827" type="curve"/>
      <point x="702.4791935424805" y="850" type="line"/>
      <point x="574.96919140625" y="850" type="line"/>
      <point x="574.96919140625" y="345.5048892791315" type="line"/>
      <point x="574.96919140625" y="153.7068684191167"/>
      <point x="478.1511346762881" y="106.1345"/>
      <point x="388.4885952380952" y="106.1345" type="curve" smooth="yes"/>
      <point x="298.79593358759314" y="106.13450000000002"/>
      <point x="202.00799945238816" y="153.73722886489486"/>
      <point x="202.0080001915834" y="345.50488185009726" type="curve"/>
      <point x="202.0080021362304" y="850" type="line"/>
      <point x="74.49799999999996" y="850" type="line"/>
    </contour>
  </outline>
</glyph>
<glyph name="V" format="2">
  <advance width="792.1557595214844"/>
  <unicode hex="0056"/>
  <anchor x="396.0778809523809" y="997.1214046305419" name="top" identifier="top"/>
  <anchor x="396.0778809523809" y="-171.64163873563217" name="below" identifier="below"/>
  <outline>
    <contour>
      <point x="802.6577595214844" y="850" type="line"/>
      <point x="670.7706669311524" y="850" type="line"/>
      <point x="399.5828770141601" y="261.6587677001953" type="line"/>
      <point x="128.3950870971679" y="850" type="line"/>
      <point x="-10.502000000000038" y="850" type="line"/>
      <point x="396.0778797607421" y="-23.667999267578125" type="line"/>
    </contour>
  </outline>
</glyph>
<glyph name="W" format="2">
  <advance width="1168.805524536133"/>
  <unicode hex="0057"/>
  <anchor x="584.402761904762" y="997.1214046305419" name="top" identifier="top"/>
  <anchor x="584.402761904762" y="-171.64163873563217" name="below" identifier="below"/>
  <outline>
    <contour>
      <point x="1171.3075245361329" y="850" type="line"/>
      <point x="1042.9802998046875" y="850" type="line"/>
      <point x="842.8187321166993" y="295.25254821777344" type="line"/>
      <point x="588.7509296875" y="850" type="line"/>
      <point x="586.8711994628907" y="850" type="line"/>
      <point x="332.80339703369134" y="295.25254821777344" type="line"/>
      <point x="132.64182934570306" y="850" type="line"/>
      <point x="-2.502000000000038" y="850" type="line"/>
      <point x="314.3684528808593" y="-23.667999267578125" type="line"/>
      <point x="584.4027622680665" y="563.2952423095703" type="line"/>
      <point x="854.4370716552735" y="-23.667999267578125" type="line"/>
    </contour>
  </outline>
</glyph>
<glyph name="X" format="2">
  <advance width="766.9176690063475"/>
  <unicode hex="0058"/>
  <anchor x="383.4588356730143" y="997.1214046305419" name="top" identifier="top"/>
  <outline>
    <contour>
      <point x="746.4196690063476" y="0" type="line"/>
      <point x="464.375456665039" y="438.98297119140625" type="line"/>
      <point x="728.7313831787109" y="850" type="line"/>
      <point x="586.3361958007812" y="850" type="line"/>
      <point x="388.23348126220696" y="538.1233215332031" type="line"/>
      <point x="190.2760380249023" y="850" type="line"/>
      <point x="40.36974224853512" y="850" type="line"/>
      <point x="303.64068493652337" y="440.36949157714844" type="line"/>
      <point x="20.497999999999962" y="0" type="line"/>
      <point x="162.9401234130859" y="0" type="line"/>
      <point x="379.7828052978515" y="341.26976776123047" type="line"/>
      <point x="596.4664753417968" y="0" type="line"/>
    </contour>
  </outline>
</glyph>
<glyph name="Y" format="2">
  <advance width="746.601239868164"/>
  <unicode hex="0059"/>
  <anchor x="373.30061904761897" y="997.1214046305419" name="top" identifier="top"/>
  <anchor x="373.30061904761897" y="-171.64163873563217" name="below" identifier="below"/>
  <outline>
    <contour>
      <point x="309.545622680664" y="0" type="line"/>
      <point x="437.0556171875" y="0" type="line"/>
      <point x="437.0556171875" y="356.31370544433594" type="line"/>
      <point x="731.1032398681641" y="850" type="line"/>
      <point x="591.5791767578125" y="850" type="line"/>
      <point x="376.9933994750976" y="487.7082824707031" type="line"/>
      <point x="162.40762219238275" y="850" type="line"/>
      <point x="15.497999999999962" y="850" type="line"/>
      <point x="309.545622680664" y="356.31370544433594" type="line"/>
    </contour>
  </outline>
</glyph>
<glyph name="Z" format="2">
  <advance width="694.5605217895508"/>
  <unicode hex="005A"/>
  <anchor x="348.78026190476186" y="997.1214046305419" name="top" identifier="top"/>
  <anchor x="348.78026190476186" y="-171.64163873563217" name="below" identifier="below"/>
  <anchor x="348.78026190476186" y="425.0" name="stroke" identifier="stroke"/>
  <outline>
    <contour>
      <point x="260.56455883789056" y="121.1344985961914" type="line"/>
      <point x="645.0625217895508" y="850" type="line"/>
      <point x="67.49799999999996" y="850" type="line"/>
      <point x="67.49799999999996" y="728.8655014038086" type="line"/>
      <point x="436.9959705810546" y="728.8655014038086" type="line"/>
      <point x="52.49799999999996" y="0" type="line"/>
      <point x="640.0625217895508" y="0" type="line"/>
      <point x="640.0625217895508" y="121.1344985961914" type="line"/>
    </contour>
  </outline>
</glyph>
<glyph name="bracketleft" format="2">
  <advance width="404.50600213623034"/>
  <unicode hex="005B"/>
  <outline>
    <contour>
      <point x="94.49799999999996" y="-106.87750244140625" type="line"/>
      <point x="372.0080021362304" y="-106.87750244140625" type="line"/>
      <point x="372.0080021362304" y="14.257003784179688" type="line"/>
      <point x="222.0080021362304" y="14.257003784179688" type="line"/>
      <point x="222.0080021362304" y="835.7429962158203" type="line"/>
      <point x="372.0080021362304" y="835.7429962158203" type="line"/>
      <point x="372.0080021362304" y="956.8775024414062" type="line"/>
      <point x="94.49799999999996" y="956.8775024414062" type="line"/>
    </contour>
  </outline>
</glyph>
<glyph name="backslash" format="2">
  <advance width="419.17890710449205"/>
  <unicode hex="005C"/>
  <outline>
    <contour>
      <point x="134.28635296630856" y="956.8775024414062" type="line"/>
      <point x="5.497999999999962" y="956.8775024414062" type="line"/>
      <point x="261.8925541381835" y="0" type="line"/>
      <point x="390.6809071044921" y="0" type="line"/>
    </contour>
  </outline>
</glyph>
<glyph name="power" format="2">
  <advance width="466.8515755615233"/>
  <unicode hex="005E"/>
  <outline>
    <contour>
      <point x="33.49799999999996" y="535.8300018310547" type="line"/>
      <point x="151.76193127441402" y="535.8300018310547" type="line"/>
      <point x="233.42578778076168" y="674.8556747436523" type="line"/>
      <point x="315.0896442871093" y="535.8300018310547" type="line"/>
      <point x="433.35357556152337" y="535.8300018310547" type="line"/>
      <point x="233.42578778076168" y="873.6679992675781" type="line"/>
    </contour>
  </outline>
</glyph>
<glyph name="underscore" format="2">
  <advance width="736.6867142857143"/>
  <unicode hex="005F"/>
  <outline>
    <contour>
      <point x="94.49799999999996" y="-218.89800000000002" type="line"/>
      <point x="642.1887142857144" y="-218.89800000000002" type="line"/>
      <point x="642.1887142857144" y="-94.49800000000002" type="line"/>
      <point x="94.49799999999996" y="-94.49800000000002" type="line"/>
    </contour>
  </outline>
</glyph>
<glyph name="grave" format="2">
  <advance width="431.88906640624987"/>
  <unicode hex="0060"/>
  <anchor x="281.9651370443752" y="997.1214046305419" name="center" identifier="center"/>
  <anchor x="281.9651370443752" y="901.6194046305419" name="bottom" identifier="bottom"/>
  <outline>
    <contour>
      <point x="240.39568981933587" y="901.6194076538086" type="line"/>
      <point x="337.39106640624993" y="901.6194076538086" type="line"/>
      <point x="231.2176426391601" y="1093.9554061889648" type="line"/>
      <point x="94.49799999999996" y="1093.9554061889648" type="line"/>
    </contour>
  </outline>
</glyph>
<glyph name="b" format="2">
  <advance width="771.4265079932483"/>
  <unicode hex="0062"/>
  <anchor x="419.9360198651694" y="778.5191387356322" name="top" identifier="top"/>
  <anchor x="401.36459129374083" y="-171.64163873563217" name="below" identifier="below"/>
  <outline>
    <contour>
      <point x="94.49799999999996" y="0" type="line"/>
      <point x="216.3772648315429" y="0" type="line"/>
      <point x="216.3772648315429" y="57.925323486328125" type="line"/>
      <point x="268.33434208986046" y="12.515964569294212"/>
      <point x="336.3043306755605" y="-14.999999999999966"/>
      <point x="410.6503055794551" y="-14.999999999999957" type="curve"/>
      <point x="586.4014346544803" y="-15.0"/>
      <point x="726.9285079932483" y="127.68762092497494"/>
      <point x="726.9285079932483" y="303.43875" type="curve" smooth="yes"/>
      <point x="726.9285079932483" y="479.18987907502515"/>
      <point x="586.4014346544803" y="621.8775"/>
      <point x="410.6503055794551" y="621.8775" type="curve"/>
      <point x="337.349552874002" y="621.8775"/>
      <point x="270.2467680817623" y="595.1297849029733"/>
      <point x="218.57806286621087" y="550.8574142456055" type="curve"/>
      <point x="218.57806286621087" y="881.8775024414062" type="line"/>
      <point x="94.49799999999996" y="881.8775024414062" type="line"/>
    </contour>
    <contour>
      <point x="601.1706004346277" y="303.43875" type="curve" smooth="yes"/>
      <point x="601.1706004346277" y="192.76707903406515"/>
      <point x="514.749334693843" y="102.87606549103444"/>
      <point x="406.51191937255857" y="102.87606549103444" type="curve" smooth="yes"/>
      <point x="298.27450405127416" y="102.87606549103444"/>
      <point x="211.85323831048953" y="192.76707903406515"/>
      <point x="211.85323831048953" y="303.43875" type="curve" smooth="yes"/>
      <point x="211.85323831048953" y="414.1104209659349"/>
      <point x="298.27450405127416" y="504.00143450896564"/>
      <point x="406.51191937255857" y="504.00143450896564" type="curve" smooth="yes"/>
      <point x="514.749334693843" y="504.00143450896564"/>
      <point x="601.1706004346277" y="414.1104209659349"/>
    </contour>
  </outline>
</glyph>
<glyph name="d" format="2">
  <advance width="771.4265104346545"/>
  <unicode hex="0064"/>
  <anchor x="351.49048812807877" y="778.5191387356322" name="top" identifier="top"/>
  <anchor x="370.0619166995073" y="-171.64163873563217" name="below" identifier="below"/>
  <anchor x="370.0619166995073" y="0" name="bottom" identifier="bottom"/>
  <anchor x="789.9076864094144" y="850" name="right" identifier="right"/>
  <anchor x="621.6133041517243" y="751.8775" name="stroke" identifier="stroke"/>
  <outline>
    <contour>
      <point x="555.0492456031116" y="0" type="line"/>
      <point x="676.9285104346545" y="0" type="line"/>
      <point x="676.9285104346545" y="881.8775024414062" type="line"/>
      <point x="552.8484399390491" y="881.8775024414062" type="line"/>
      <point x="552.8484399390491" y="550.8622436523438" type="line"/>
      <point x="501.1797399114859" y="595.1297849029733"/>
      <point x="434.0769551192463" y="621.8775"/>
      <point x="360.7762024137931" y="621.8775" type="curve"/>
      <point x="185.02507333876798" y="621.8775"/>
      <point x="44.497999999999976" y="479.18987907502515"/>
      <point x="44.49799999999996" y="303.43875" type="curve" smooth="yes"/>
      <point x="44.497999999999976" y="127.68762092497494"/>
      <point x="185.02507333876792" y="-14.999999999999979"/>
      <point x="360.77620241379304" y="-15.0" type="curve"/>
      <point x="435.12217731768754" y="-15.0"/>
      <point x="503.09216590338775" y="12.515964569294177"/>
      <point x="555.0492456031116" y="57.917083740234375" type="curve"/>
    </contour>
    <contour>
      <point x="559.5732696827588" y="303.43875" type="curve" smooth="yes"/>
      <point x="559.5732696827588" y="192.76707903406515"/>
      <point x="473.152003941974" y="102.87606549103444"/>
      <point x="364.9145886206896" y="102.87606549103444" type="curve" smooth="yes"/>
      <point x="256.6771732994052" y="102.87606549103444"/>
      <point x="170.25590755862055" y="192.76707903406515"/>
      <point x="170.25590755862055" y="303.43875" type="curve" smooth="yes"/>
      <point x="170.25590755862055" y="414.1104209659349"/>
      <point x="256.6771732994052" y="504.00143450896564"/>
      <point x="364.9145886206896" y="504.00143450896564" type="curve" smooth="yes"/>
      <point x="473.152003941974" y="504.00143450896564"/>
      <point x="559.5732696827588" y="414.1104209659349"/>
    </contour>
  </outline>
</glyph>
<glyph name="e" format="2">
  <advance width="714.8930631000002"/>
  <unicode hex="0065"/>
  <anchor x="357.44653155000003" y="778.5191387356322" name="top" identifier="top"/>
  <anchor x="357.44653155000003" y="-171.64163873563217" name="below" identifier="below"/>
  <anchor x="385.01060748571433" y="0" name="bottom" identifier="bottom"/>
  <outline>
    <contour>
      <point x="670.3950631000002" y="303.43875" type="curve"/>
      <point x="670.3950631000002" y="479.18987907502515"/>
      <point x="533.1976606250252" y="621.8775"/>
      <point x="357.44653155000003" y="621.8775" type="curve" smooth="yes"/>
      <point x="181.69540247497497" y="621.8775"/>
      <point x="44.497999999999976" y="479.18987907502515"/>
      <point x="44.49799999999996" y="303.43875" type="curve"/>
      <point x="44.497999999999976" y="120.95854245825507"/>
      <point x="198.11634961562748" y="-14.999999999999977"/>
      <point x="387.4465315500001" y="-15.0" type="curve"/>
      <point x="468.09395697795645" y="-15.0"/>
      <point x="542.5879612756312" y="7.04555642886514"/>
      <point x="602.8298099975586" y="45.26841735839844" type="curve"/>
      <point x="602.8298099975586" y="174.82447814941406" type="line"/>
      <point x="547.5745844335103" y="128.2046624642594"/>
      <point x="472.76697446419684" y="100.07921549103449"/>
      <point x="390.43551775689656" y="100.0792154910345" type="curve"/>
      <point x="285.952124728254" y="100.0792154910344"/>
      <point x="197.84553652920744" y="157.9786888739068"/>
      <point x="171.34754071044915" y="246.71983337402344" type="curve"/>
      <point x="665.2122639160157" y="246.71983337402344" type="line"/>
      <point x="669.628312118799" y="270.6819824057787"/>
      <point x="670.3950631000002" y="290.5431083799246"/>
    </contour>
    <contour>
      <point x="358.54693155" y="506.9037431296552" type="curve" smooth="yes"/>
      <point x="452.717435564923" y="506.90374312965525"/>
      <point x="528.7686322105315" y="440.1535710293846"/>
      <point x="548.7481449584961" y="350.4327697753906" type="curve"/>
      <point x="168.34680065917962" y="350.4327697753906" type="line"/>
      <point x="188.3278969757534" y="440.1559110292126"/>
      <point x="264.37807817422544" y="506.9037431296552"/>
    </contour>
  </outline>
</glyph>
<glyph name="f" format="2">
  <advance width="511.78546685791014"/>
  <unicode hex="0066"/>
  <anchor x="312.8285771411901" y="1000.0445713805418" name="top" identifier="top"/>
  <outline>
    <contour>
      <point x="130.9931095581054" y="0" type="line"/>
      <point x="255.07318005371087" y="0" type="line"/>
      <point x="255.07318005371087" y="489.79412841796875" type="line"/>
      <point x="452.28746685791015" y="489.79412841796875" type="line"/>
      <point x="452.28746685791015" y="606.8775024414062" type="line"/>
      <point x="255.07318005371087" y="606.8775024414062" type="line"/>
      <point x="255.08233532077003" y="654.2628317182254" type="line"/>
      <point x="255.1050215392579" y="771.6809175205026"/>
      <point x="325.22785966299557" y="774.8682345089655"/>
      <point x="343.45744268707483" y="774.8682345089655" type="curve"/>
      <point x="371.1045338007163" y="774.8682345089655"/>
      <point x="422.17505347294184" y="769.0124517923675"/>
      <point x="467.28746685791015" y="731.3959732055664" type="curve"/>
      <point x="467.28746685791015" y="856.8449630737305" type="line"/>
      <point x="429.1919987755058" y="879.3791168753148"/>
      <point x="382.85493525589163" y="891.8775"/>
      <point x="332.88984268707486" y="891.8775" type="curve"/>
      <point x="238.48567013717144" y="891.8775"/>
      <point x="130.99311271328395" y="842.3859396198021"/>
      <point x="130.99310987435234" y="630.4827678571429" type="curve"/>
      <point x="130.9931095581054" y="606.8775024414062" type="line"/>
      <point x="34.49799999999996" y="606.8775024414062" type="line"/>
      <point x="34.49799999999996" y="489.79412841796875" type="line"/>
      <point x="130.9931095581054" y="489.79412841796875" type="line"/>
    </contour>
  </outline>
</glyph>
<glyph name="h" format="2">
  <advance width="704.9890267333984"/>
  <unicode hex="0068"/>
  <anchor x="363.9945133928571" y="997.1214046305419" name="top" identifier="top"/>
  <anchor x="363.9945133928571" y="-171.64163873563217" name="below" identifier="below"/>
  <anchor x="156.53803446896546" y="997.1214046305419" name="stem" identifier="stem"/>
  <anchor x="156.53803446896546" y="751.8775" name="stroke" identifier="stroke"/>
  <anchor x="156.53803446896546" y="0" name="bottom" identifier="bottom"/>
  <outline>
    <contour>
      <point x="94.49799999999996" y="0" type="line"/>
      <point x="218.5780704956054" y="0" type="line"/>
      <point x="218.5780704956054" y="313.1226505350787" type="line"/>
      <point x="218.5780704956054" y="359.84650935065775"/>
      <point x="220.47872035083378" y="509.05742795418803"/>
      <point x="362.3256792518726" y="509.05742795418803" type="curve" smooth="yes"/>
      <point x="504.1726381529114" y="509.05742795418803"/>
      <point x="506.0732895922243" y="359.8465121832782"/>
      <point x="506.0732892381414" y="313.12265538678264" type="curve"/>
      <point x="506.0732868652343" y="0" type="line"/>
      <point x="633.4910267333985" y="0" type="line"/>
      <point x="633.4910267333985" y="317.17543029785156" type="line"/>
      <point x="633.4910267333985" y="593.7815065675175"/>
      <point x="456.64662378056346" y="621.8775"/>
      <point x="384.33694329804996" y="621.8775" type="curve"/>
      <point x="321.1802368057001" y="621.8775"/>
      <point x="263.31892456935674" y="599.0248975229636"/>
      <point x="218.5780704956054" y="561.1376495361328" type="curve"/>
      <point x="218.5780704956054" y="881.8775024414062" type="line"/>
      <point x="94.49799999999996" y="881.8775024414062" type="line"/>
    </contour>
  </outline>
</glyph>
<glyph name="i" format="2">
  <advance width="331.0760689379309"/>
  <unicode hex="0069"/>
  <anchor x="165.53803446896546" y="-171.64163873563217" name="below" identifier="below"/>
  <anchor x="229.84769824827578" y="0" name="ogonek" identifier="ogonek"/>
  <outline>
    <contour>
      <point x="247.57806893793094" y="778.5191387356322" type="curve" smooth="yes"/>
      <point x="247.57806893793094" y="823.798266000372"/>
      <point x="210.81716173370523" y="860.5591732045976"/>
      <point x="165.53803446896546" y="860.5591732045976" type="curve" smooth="yes"/>
      <point x="120.25890720422568" y="860.5591732045976"/>
      <point x="83.49799999999996" y="823.798266000372"/>
      <point x="83.49799999999996" y="778.5191387356322" type="curve" smooth="yes"/>
      <point x="83.49799999999996" y="733.2400114708923"/>
      <point x="120.25890720422568" y="696.4791042666667"/>
      <point x="165.53803446896546" y="696.4791042666667" type="curve" smooth="yes"/>
      <point x="210.81716173370523" y="696.4791042666667"/>
      <point x="247.57806893793094" y="733.2400114708923"/>
    </contour>
    <contour>
      <point x="101.22837068965512" y="0" type="line"/>
      <point x="229.84769824827578" y="0" type="line"/>
      <point x="229.84769824827578" y="606.8775" type="line"/>
      <point x="101.22837068965512" y="606.8775" type="line"/>
    </contour>
  </outline>
</glyph>
<glyph name="j" format="2">
  <advance width="341.60041433588015"/>
  <unicode hex="006A"/>
  <outline>
    <contour>
      <point x="260.1024143358802" y="778.5191387356322" type="curve" smooth="yes"/>
      <point x="260.1024143358802" y="823.798266000372"/>
      <point x="223.34150713165448" y="860.5591732045976"/>
      <point x="178.0623798669147" y="860.5591732045976" type="curve" smooth="yes"/>
      <point x="132.78325260217488" y="860.5591732045976"/>
      <point x="96.02234539794918" y="823.798266000372"/>
      <point x="96.02234539794918" y="778.5191387356322" type="curve" smooth="yes"/>
      <point x="96.02234539794918" y="733.2400114708923"/>
      <point x="132.78325260217488" y="696.4791042666667"/>
      <point x="178.06237986691465" y="696.4791042666667" type="curve" smooth="yes"/>
      <point x="223.34150713165442" y="696.4791042666667"/>
      <point x="260.1024143358802" y="733.2400114708923"/>
    </contour>
    <contour>
      <point x="25.958878621594437" y="-171.53811450896552" type="curve"/>
      <point x="2.6711788637585414" y="-171.53811450896552"/>
      <point x="-44.23190012955021" y="-166.5111234805279"/>
      <point x="-87.50200000000004" y="-132.1853485107422" type="curve"/>
      <point x="-87.50200000000004" y="-255.69519805908203" type="line"/>
      <point x="-53.388755643017845" y="-276.97487523706394"/>
      <point x="-12.428582193396494" y="-289.3775"/>
      <point x="31.6268786215945" y="-289.3775" type="curve"/>
      <point x="114.85091327165705" y="-289.3775"/>
      <point x="240.1024139605489" y="-252.93973043815924"/>
      <point x="240.10241444828816" y="-35.989205665024585" type="curve"/>
      <point x="240.10241589355465" y="606.8775024414062" type="line"/>
      <point x="116.02234539794918" y="606.8775024414062" type="line"/>
      <point x="116.02234539794918" y="-30.592547721063802" type="line"/>
      <point x="116.02234539794918" y="-106.90617009011012"/>
      <point x="107.57671165272367" y="-171.53811450896552"/>
    </contour>
  </outline>
</glyph>
<glyph name="k" format="2">
  <advance width="637.5587288818359"/>
  <unicode hex="006B"/>
  <anchor x="320.6973473639455" y="997.1214046305419" name="top" identifier="top"/>
  <anchor x="327.350269345238" y="0" name="bottom" identifier="bottom"/>
  <anchor x="327.350269345238" y="-171.64163873563217" name="below" identifier="below"/>
  <anchor x="156.53803446896546" y="997.1214046305419" name="stem" identifier="stem"/>
  <outline>
    <contour>
      <point x="94.49799999999996" y="0" type="line"/>
      <point x="218.5780704956054" y="0" type="line"/>
      <point x="218.5780704956054" y="208.8050308227539" type="line"/>
      <point x="246.2574909667968" y="236.16355895996094" type="line"/>
      <point x="484.4037235717773" y="0" type="line"/>
      <point x="656.060728881836" y="0" type="line"/>
      <point x="331.59792980957025" y="320.5146255493164" type="line"/>
      <point x="621.3196171264649" y="606.8775024414062" type="line"/>
      <point x="458.65918621826165" y="606.8775024414062" type="line"/>
      <point x="218.5780704956054" y="368.57750701904297" type="line"/>
      <point x="218.5780704956054" y="881.8775024414062" type="line"/>
      <point x="94.49799999999996" y="881.8775024414062" type="line"/>
    </contour>
  </outline>
</glyph>
<glyph name="l" format="2">
  <advance width="317.6153275586206"/>
  <unicode hex="006C"/>
  <anchor x="158.8076637793103" y="997.1214046305419" name="top" identifier="top"/>
  <anchor x="158.8076637793103" y="0" name="bottom" identifier="bottom"/>
  <anchor x="158.8076637793103" y="-171.64163873563217" name="below" identifier="below"/>
  <anchor x="329.37167534734533" y="850" name="right" identifier="right"/>
  <anchor x="158.8076637793103" y="440.93875" name="stroke" identifier="stroke"/>
  <anchor x="442.3651034068965" y="440.93875" name="dotmiddle" identifier="dotmiddle"/>
  <outline>
    <contour>
      <point x="94.49799999999996" y="0" type="line"/>
      <point x="223.11732755862062" y="0" type="line"/>
      <point x="223.11732755862062" y="881.8775" type="line"/>
      <point x="94.49799999999996" y="881.8775" type="line"/>
    </contour>
  </outline>
</glyph>
<glyph name="n" format="2">
  <advance width="708.9890267333984"/>
  <unicode hex="006E"/>
  <anchor x="359.9945133928571" y="778.5191387356322" name="top" identifier="top"/>
  <anchor x="359.9945133928571" y="-171.64163873563217" name="below" identifier="below"/>
  <anchor x="359.9945133928571" y="0" name="bottom" identifier="bottom"/>
  <anchor x="629.4910267857143" y="0" name="right" identifier="right"/>
  <anchor x="214.578068937931" y="0" name="lefthook" identifier="lefthook"/>
  <outline>
    <contour>
      <point x="90.49799999999996" y="0" type="line"/>
      <point x="214.5780704956054" y="0" type="line"/>
      <point x="214.5780704956054" y="313.1226505350788" type="line"/>
      <point x="214.5780704956054" y="359.84650935065775"/>
      <point x="216.47872035083373" y="509.05742795418803"/>
      <point x="358.32567925187254" y="509.05742795418803" type="curve" smooth="yes"/>
      <point x="500.17263815291136" y="509.05742795418803"/>
      <point x="502.0732895922242" y="359.8465121832782"/>
      <point x="502.07328923814134" y="313.12265538678264" type="curve"/>
      <point x="502.0732868652343" y="0" type="line"/>
      <point x="629.4910267333985" y="0" type="line"/>
      <point x="629.4910267333985" y="317.17543029785156" type="line"/>
      <point x="629.4910267333985" y="590.1319001430617"/>
      <point x="459.7335659677365" y="621.8775"/>
      <point x="382.1862708842569" y="621.8775" type="curve"/>
      <point x="316.48041315711697" y="621.8775"/>
      <point x="256.71853299784095" y="596.2258959977604"/>
      <point x="212.37727246093743" y="554.3853988647461" type="curve"/>
      <point x="212.37727246093743" y="606.8775024414062" type="line"/>
      <point x="90.49799999999996" y="606.8775024414062" type="line"/>
    </contour>
  </outline>
</glyph>
<glyph name="o" format="2">
  <advance width="731.3755"/>
  <unicode hex="006F"/>
  <anchor x="365.68774999999994" y="778.5191387356322" name="top" identifier="top"/>
  <anchor x="365.68774999999994" y="-171.64163873563217" name="below" identifier="below"/>
  <anchor x="365.68774999999994" y="303.43875" name="stroke" identifier="stroke"/>
  <anchor x="552.054431062069" y="438.5375" name="horn" identifier="horn"/>
  <outline>
    <contour>
      <point x="686.8775" y="303.43875" type="curve" smooth="yes"/>
      <point x="686.8775" y="480.708197295045"/>
      <point x="542.957197295045" y="621.8775"/>
      <point x="365.68774999999994" y="621.8775" type="curve" smooth="yes"/>
      <point x="188.41830270495495" y="621.8775"/>
      <point x="44.49799999999996" y="480.708197295045"/>
      <point x="44.49799999999996" y="303.43875" type="curve" smooth="yes"/>
      <point x="44.49799999999996" y="126.16930270495502"/>
      <point x="188.41830270495495" y="-15.0"/>
      <point x="365.68774999999994" y="-15.0" type="curve" smooth="yes"/>
      <point x="542.957197295045" y="-15.0"/>
      <point x="686.8775" y="126.16930270495502"/>
    </contour>
    <contour>
      <point x="560.0464310620691" y="303.43875" type="curve" smooth="yes"/>
      <point x="560.0464310620691" y="192.7434480010248"/>
      <point x="473.80020783634853" y="102.87606549103444"/>
      <point x="365.68774999999994" y="102.87606549103444" type="curve" smooth="yes"/>
      <point x="257.5752921636514" y="102.87606549103444"/>
      <point x="171.3290689379309" y="192.7434480010248"/>
      <point x="171.3290689379309" y="303.43875" type="curve" smooth="yes"/>
      <point x="171.3290689379309" y="414.1340519989752"/>
      <point x="257.5752921636514" y="504.00143450896564"/>
      <point x="365.68774999999994" y="504.00143450896564" type="curve" smooth="yes"/>
      <point x="473.80020783634853" y="504.00143450896564"/>
      <point x="560.0464310620691" y="414.1340519989752"/>
    </contour>
  </outline>
</glyph>
<glyph name="q" format="2">
  <advance width="766.4265104346545"/>
  <unicode hex="0071"/>
  <outline>
    <contour>
      <point x="552.8484399390491" y="-281.87750244140625" type="line"/>
      <point x="676.9285104346545" y="-281.87750244140625" type="line"/>
      <point x="676.9285104346545" y="606.8775024414062" type="line"/>
      <point x="555.0492456031116" y="606.8775024414062" type="line"/>
      <point x="555.0492456031116" y="547.4208755493164" type="line"/>
      <point x="503.52709658797113" y="593.7064282193473"/>
      <point x="435.4155432268312" y="621.8775"/>
      <point x="360.77620241379304" y="621.8775" type="curve"/>
      <point x="185.02507333876792" y="621.8775"/>
      <point x="44.497999999999976" y="479.18987907502515"/>
      <point x="44.49799999999996" y="303.43875" type="curve" smooth="yes"/>
      <point x="44.497999999999976" y="127.68762092497494"/>
      <point x="185.02507333876792" y="-14.999999999999979"/>
      <point x="360.77620241379304" y="-15.0" type="curve"/>
      <point x="434.3576547149625" y="-15.0"/>
      <point x="501.5950492991381" y="12.378174709727553"/>
      <point x="552.8484399390491" y="57.509857177734375" type="curve"/>
    </contour>
    <contour>
      <point x="559.5732696827588" y="303.43875" type="curve" smooth="yes"/>
      <point x="559.5732696827588" y="192.76707903406515"/>
      <point x="473.152003941974" y="102.87606549103444"/>
      <point x="364.9145886206896" y="102.87606549103444" type="curve" smooth="yes"/>
      <point x="256.6771732994052" y="102.87606549103444"/>
      <point x="170.25590755862055" y="192.76707903406515"/>
      <point x="170.25590755862055" y="303.43875" type="curve" smooth="yes"/>
      <point x="170.25590755862055" y="414.1104209659349"/>
      <point x="256.6771732994052" y="504.00143450896564"/>
      <point x="364.9145886206896" y="504.00143450896564" type="curve" smooth="yes"/>
      <point x="473.152003941974" y="504.00143450896564"/>
      <point x="559.5732696827588" y="414.1104209659349"/>
    </contour>
  </outline>
</glyph>
<glyph name="r" format="2">
  <advance width="473.4941231689452"/>
  <unicode hex="0072"/>
  <anchor x="272.24705987490694" y="778.5191387356322" name="top" identifier="top"/>
  <anchor x="157.53803446896546" y="0" name="bottom" identifier="bottom"/>
  <anchor x="219.578068937931" y="-171.64163873563217" name="below" identifier="below"/>
  <outline>
    <contour>
      <point x="95.49799999999996" y="0" type="line"/>
      <point x="219.5780704956054" y="0" type="line"/>
      <point x="219.5780704956054" y="319.79395224289897" type="line"/>
      <point x="219.5780704956054" y="360.67634014856"/>
      <point x="222.08501789380358" y="496.50143450896564"/>
      <point x="352.8467440946896" y="496.50143450896564" type="curve"/>
      <point x="380.0473184833925" y="496.50143450896553"/>
      <point x="414.31541495848364" y="491.17393151542706"/>
      <point x="448.99612316894525" y="472.8260955810547" type="curve"/>
      <point x="448.99612316894525" y="595.9523696899414" type="line"/>
      <point x="414.5479942029925" y="610.0171418456765"/>
      <point x="381.62901170695983" y="614.3775"/>
      <point x="354.44553685344823" y="614.3775" type="curve"/>
      <point x="301.78246839238045" y="614.3775"/>
      <point x="253.72591568514787" y="594.4977954421772"/>
      <point x="217.37727246093743" y="561.8231964111328" type="curve"/>
      <point x="217.37727246093743" y="606.8775024414062" type="line"/>
      <point x="95.49799999999996" y="606.8775024414062" type="line"/>
    </contour>
  </outline>
</glyph>
<glyph name="t" format="2">
  <advance width="491.6415383300781"/>
  <unicode hex="0074"/>
  <anchor x="199.9294477342716" y="887.820271683087" name="top" identifier="top"/>
  <anchor x="244.5707678571428" y="887.820271683087" name="_diaeresis" identifier="_diaeresis"/>
  <anchor x="368.2238299919618" y="713.1318477887247" name="caron" identifier="caron"/>
  <anchor x="315.04218112244894" y="0" name="bottom" identifier="bottom"/>
  <anchor x="315.04218112244894" y="-171.64163873563217" name="below" identifier="below"/>
  <anchor x="244.5707678571428" y="312.9738286018829" name="stroke" identifier="stroke"/>
  <outline>
    <contour>
      <point x="137.88941082763665" y="242.48552703857422" type="line"/>
      <point x="137.88941082763665" y="22.566851463756535"/>
      <point x="264.2981884178652" y="-11.249999999999991"/>
      <point x="341.04618112244896" y="-11.25" type="curve"/>
      <point x="383.8117070520555" y="-11.25"/>
      <point x="423.6714403339751" y="0.759186831920438"/>
      <point x="457.1435383300781" y="21.624786376953125" type="curve"/>
      <point x="457.1435383300781" y="143.21299743652344" type="line"/>
      <point x="415.4194877064839" y="111.64436258521111"/>
      <point x="371.28311553605994" y="106.44266549103445"/>
      <point x="346.5481811224489" y="106.44266549103446" type="curve"/>
      <point x="266.25305406113745" y="106.44266549103448"/>
      <point x="261.9694823182061" y="169.36329285609128"/>
      <point x="261.96948209789673" y="240.314534533591" type="curve"/>
      <point x="261.9694813232421" y="489.79412841796875" type="line"/>
      <point x="449.64353833007806" y="489.79412841796875" type="line"/>
      <point x="449.64353833007806" y="606.8775024414062" type="line"/>
      <point x="261.9694813232421" y="606.8775024414062" type="line"/>
      <point x="261.9694813232421" y="790.6324996948242" type="line"/>
      <point x="137.88941082763665" y="694.8236541748047" type="line"/>
      <point x="137.88941082763665" y="606.8775024414062" type="line"/>
      <point x="39.49799999999996" y="606.8775024414062" type="line"/>
      <point x="39.49799999999996" y="489.79412841796875" type="line"/>
      <point x="137.88941082763665" y="489.79412841796875" type="line"/>
    </contour>
  </outline>
</glyph>
<glyph name="u" format="2">
  <advance width="713.9890267333984"/>
  <unicode hex="0075"/>
  <anchor x="348.9945133928571" y="778.5191387356322" name="top" identifier="top"/>
  <anchor x="348.9945133928571" y="-171.64163873563217" name="below" identifier="below"/>
  <anchor x="618.4910267857143" y="0" name="ogonek" identifier="ogonek"/>
  <anchor x="616.9400259239902" y="438.5375" name="horn" identifier="horn"/>
  <outline>
    <contour>
      <point x="79.49799999999996" y="289.70206451416016" type="line"/>
      <point x="79.49799999999998" y="16.745594668950048"/>
      <point x="249.2554608179775" y="-14.999999999999991"/>
      <point x="326.8027559014572" y="-15.0" type="curve"/>
      <point x="392.50861362859706" y="-15.0"/>
      <point x="452.27049497884764" y="10.651605126045403"/>
      <point x="496.61175427246087" y="52.492103576660156" type="curve"/>
      <point x="496.61175427246087" y="0" type="line"/>
      <point x="618.4910267333985" y="0" type="line"/>
      <point x="618.4910267333985" y="606.8775024414062" type="line"/>
      <point x="492.74212536621087" y="606.8775024414062" type="line"/>
      <point x="492.74212536621087" y="293.75484078632957" type="line"/>
      <point x="492.74212536621087" y="247.0309846906784"/>
      <point x="490.841468596104" y="97.82007204581208"/>
      <point x="348.9945133928571" y="97.82007204581208" type="curve" smooth="yes"/>
      <point x="207.14755449181825" y="97.8200720458121"/>
      <point x="205.24690309565517" y="247.03098781672193"/>
      <point x="205.24690287122428" y="293.75484461321764" type="curve"/>
      <point x="205.24690136718743" y="606.8775024414062" type="line"/>
      <point x="79.49799999999996" y="606.8775024414062" type="line"/>
    </contour>
  </outline>
</glyph>
<glyph name="v" format="2">
  <advance width="694.3491112670898"/>
  <unicode hex="0076"/>
  <anchor x="347.17455624999997" y="778.5191387356322" name="top" identifier="top"/>
  <anchor x="347.17455624999997" y="-171.64163873563217" name="below" identifier="below"/>
  <outline>
    <contour>
      <point x="662.8511112670899" y="606.8775024414062" type="line"/>
      <point x="532.4451282958985" y="606.8775024414062" type="line"/>
      <point x="350.62507519531243" y="241.7659149169922" type="line"/>
      <point x="168.80502972412103" y="606.8775024414062" type="line"/>
      <point x="31.497999999999962" y="606.8775024414062" type="line"/>
      <point x="347.1745594482421" y="-23.667999267578125" type="line"/>
    </contour>
  </outline>
</glyph>
<glyph name="w" format="2">
  <advance width="975.8927819213867"/>
  <unicode hex="0077"/>
  <anchor x="487.9463928571428" y="778.5191387356322" name="top" identifier="top"/>
  <anchor x="487.9463928571428" y="-171.64163873563217" name="below" identifier="below"/>
  <outline>
    <contour>
      <point x="944.3947819213868" y="606.8775024414062" type="line"/>
      <point x="817.8238895874024" y="606.8775024414062" type="line"/>
      <point x="672.6927097778321" y="251.2982635498047" type="line"/>
      <point x="491.2678287963867" y="601.7270584106445" type="line"/>
      <point x="309.84295544433587" y="251.2982635498047" type="line"/>
      <point x="164.71177563476556" y="606.8775024414062" type="line"/>
      <point x="31.497999999999962" y="606.8775024414062" type="line"/>
      <point x="290.2302158813476" y="-23.667999267578125" type="line"/>
      <point x="487.9463947753906" y="356.2023696899414" type="line"/>
      <point x="685.6625736694336" y="-23.667999267578125" type="line"/>
    </contour>
  </outline>
</glyph>
<glyph name="x" format="2">
  <advance width="652.6245705566405"/>
  <unicode hex="0078"/>
  <anchor x="326.31228484235487" y="778.5191387356322" name="top" identifier="top"/>
  <outline>
    <contour>
      <point x="625.1265705566406" y="0" type="line"/>
      <point x="402.8359135131835" y="316.63038635253906" type="line"/>
      <point x="607.0643833618163" y="606.8775024414062" type="line"/>
      <point x="466.2574375610351" y="606.8775024414062" type="line"/>
      <point x="326.95135388183587" y="405.59798431396484" type="line"/>
      <point x="187.90051922607418" y="606.8775024414062" type="line"/>
      <point x="39.70722088623043" y="606.8775024414062" type="line"/>
      <point x="246.87675366210934" y="311.9101104736328" type="line"/>
      <point x="27.497999999999962" y="0" type="line"/>
      <point x="168.36501202392574" y="0" type="line"/>
      <point x="322.7606190185546" y="222.9893341064453" type="line"/>
      <point x="476.8733128051757" y="0" type="line"/>
    </contour>
  </outline>
</glyph>
<glyph name="y" format="2">
  <advance width="712.8334710083008"/>
  <unicode hex="0079"/>
  <anchor x="358.43418524344304" y="778.5191387356322" name="top" identifier="top"/>
  <anchor x="519.8848294398717" y="-171.64163873563217" name="below" identifier="below"/>
  <outline>
    <contour>
      <point x="361.83953747558587" y="186.78309631347656" type="line"/>
      <point x="168.735808227539" y="606.8775024414062" type="line"/>
      <point x="31.497999999999962" y="606.8775024414062" type="line"/>
      <point x="293.8135212402343" y="38.911643981933594" type="line"/>
      <point x="146.52581677246087" y="-281.87750244140625" type="line"/>
      <point x="275.9290760498046" y="-281.87750244140625" type="line"/>
      <point x="681.3354710083008" y="606.8775024414062" type="line"/>
      <point x="552.5600651245118" y="606.8775024414062" type="line"/>
    </contour>
  </outline>
</glyph>
<glyph name="z" format="2">
  <advance width="620.8008782348633"/>
  <unicode hex="007A"/>
  <anchor x="310.45514285714285" y="778.5191387356322" name="top" identifier="top"/>
  <anchor x="310.45514285714285" y="-171.64163873563217" name="below" identifier="below"/>
  <anchor x="310.45514285714285" y="303.43875" name="stroke" identifier="stroke"/>
  <outline>
    <contour>
      <point x="269.5007465820312" y="117.87606811523438" type="line"/>
      <point x="565.3028782348633" y="606.8775024414062" type="line"/>
      <point x="79.5852421264648" y="606.8775024414062" type="line"/>
      <point x="79.5852421264648" y="490.83543395996094" type="line"/>
      <point x="351.4095371704101" y="490.83543395996094" type="line"/>
      <point x="54.49799999999996" y="0" type="line"/>
      <point x="556.3250416259766" y="0" type="line"/>
      <point x="556.3250416259766" y="117.87606811523438" type="line"/>
    </contour>
  </outline>
</glyph>
<glyph name="braceleft" format="2">
  <advance width="364.0145852864582"/>
  <unicode hex="007B"/>
  <outline>
    <contour>
      <point x="306.51658520507806" y="2.113189697265625" type="line" smooth="yes"/>
      <point x="294.09667884674786" y="2.113189976271957"/>
      <point x="244.62913804243962" y="5.564635107698521"/>
      <point x="244.62913909864616" y="87.44714820173408" type="curve"/>
      <point x="244.62914110758882" y="243.19062417333816" type="line"/>
      <point x="244.62914192499673" y="306.56025157078"/>
      <point x="244.62913759366515" y="374.5614471866845"/>
      <point x="171.8614872436523" y="424.9990768432617" type="curve"/>
      <point x="244.6291384617792" y="475.4397634628728"/>
      <point x="244.62913859549164" y="543.4400465698234"/>
      <point x="244.62913941289557" y="606.8093656956095" type="curve"/>
      <point x="244.62914142183834" y="762.5528477097467" type="line"/>
      <point x="244.62914247804488" y="844.4353620875906"/>
      <point x="294.096678928128" y="847.8868095238096"/>
      <point x="306.5165852864583" y="847.8868095238096" type="curve"/>
      <point x="306.51658520507806" y="956.8775024414062" type="line"/>
      <point x="301.51658520507806" y="956.8775024414062" type="line"/>
      <point x="122.55433402789814" y="956.8775024414062"/>
      <point x="117.11913880265871" y="799.1817062812199"/>
      <point x="117.11913901160611" y="731.2177380952381" type="curve"/>
      <point x="117.11913945952847" y="585.522772558481" type="line"/>
      <point x="117.1191397419941" y="493.6456380061011"/>
      <point x="63.53138195059854" y="480.56724999999994"/>
      <point x="35.49800195312497" y="480.56724999999994" type="curve"/>
      <point x="35.49799999999996" y="369.43274688720703" type="line" smooth="yes"/>
      <point x="63.53137999747348" y="369.4327488169202"/>
      <point x="117.11913864225988" y="356.35436479860977"/>
      <point x="117.11913892472555" y="264.47723322488457" type="curve"/>
      <point x="117.11913938869509" y="113.56262873785127" type="line"/>
      <point x="117.1191400567404" y="-103.7313695808418"/>
      <point x="255.7192030427918" y="-106.87749341389917"/>
      <point x="301.5165852050782" y="-106.8775015528263" type="curve" smooth="yes"/>
      <point x="306.51658520507806" y="-106.87750244140625" type="line"/>
    </contour>
  </outline>
</glyph>
<glyph name="bar" format="2">
  <advance width="313.39599999999996"/>
  <unicode hex="007C"/>
  <outline>
    <contour>
      <point x="94.49799999999996" y="-106.8775" type="line"/>
      <point x="218.89799999999997" y="-106.8775" type="line"/>
      <point x="218.89799999999997" y="956.8775" type="line"/>
      <point x="94.49799999999996" y="956.8775" type="line"/>
    </contour>
  </outline>
</glyph>
<glyph name="braceright" format="2">
  <advance width="364.0145852864582"/>
  <unicode hex="007D"/>
  <outline>
    <contour>
      <point x="57.49799999999996" y="2.113190476190425" type="curve"/>
      <point x="57.498000081380155" y="-106.87750244140625" type="line"/>
      <point x="62.498000081380155" y="-106.87750244140625" type="line"/>
      <point x="241.4602512585601" y="-106.87750244140625"/>
      <point x="246.89544648379945" y="50.81829371878008"/>
      <point x="246.89544627485213" y="118.78226190476187" type="curve"/>
      <point x="246.8954458269298" y="264.47722744151895" type="line"/>
      <point x="246.8954455444641" y="356.3543619938989"/>
      <point x="300.4832033358597" y="369.43275000000006"/>
      <point x="328.51658333333324" y="369.43275000000006" type="curve"/>
      <point x="328.5165852864583" y="480.56725311279297" type="line" smooth="yes"/>
      <point x="300.4832052889848" y="480.5672511830798"/>
      <point x="246.89544664419833" y="493.64563520139023"/>
      <point x="246.8954463617327" y="585.5227667751154" type="curve"/>
      <point x="246.89544589776318" y="736.4373712621488" type="line"/>
      <point x="246.89544522971784" y="953.7313695808418"/>
      <point x="108.29538224366638" y="956.8774934138992"/>
      <point x="62.49800008138007" y="956.8775015528263" type="curve" smooth="yes"/>
      <point x="57.498000081380155" y="956.8775024414062" type="line"/>
      <point x="57.498000081380155" y="847.8868103027344" type="line" smooth="yes"/>
      <point x="69.9179064397104" y="847.886810023728"/>
      <point x="119.38544724401865" y="844.4353648923014"/>
      <point x="119.38544618781211" y="762.5528517982659" type="curve"/>
      <point x="119.38544417886942" y="606.8093758266618" type="line"/>
      <point x="119.38544336146151" y="543.43974842922"/>
      <point x="119.3854476927931" y="475.4385528133155"/>
      <point x="192.15309804280594" y="425.0009231567383" type="curve"/>
      <point x="119.38544682467904" y="374.5602365371272"/>
      <point x="119.3854466909666" y="306.5599534301766"/>
      <point x="119.38544587356267" y="243.19063430439041" type="curve"/>
      <point x="119.38544386461993" y="87.4471522902532" type="line"/>
      <point x="119.38544280841339" y="5.5646379124092675"/>
      <point x="69.91790635833021" y="2.113190476190425"/>
    </contour>
  </outline>
</glyph>
<glyph name="tilde" format="2">
  <advance width="763.7510048828125"/>
  <unicode hex="007E"/>
  <outline>
    <contour>
      <point x="254.85657391357418" y="410.3920015714286" type="curve"/>
      <point x="287.21413170389235" y="410.3920015714287"/>
      <point x="305.11827419328597" y="400.9403159371792"/>
      <point x="345.9087083134747" y="376.689550623471" type="curve"/>
      <point x="350.20652689448366" y="374.13440768329434" type="line"/>
      <point x="404.6516535736341" y="341.7656423575607"/>
      <point x="449.63561635791075" y="315.2079984285713"/>
      <point x="517.8944310564314" y="315.2079984285714" type="curve"/>
      <point x="584.7695589897361" y="315.2079984285714"/>
      <point x="646.0107732092863" y="339.52150262975806"/>
      <point x="693.2530048828125" y="379.7904739379883" type="curve"/>
      <point x="693.2530048828125" y="529.3515243530273" type="line"/>
      <point x="653.9488308227315" y="474.99002981099676"/>
      <point x="590.0209847624093" y="439.6079984285715"/>
      <point x="517.8944310564314" y="439.60799842857153" type="curve"/>
      <point x="485.53687326611316" y="439.60799842857125"/>
      <point x="467.6327310792557" y="449.0596838311187"/>
      <point x="426.84229695906686" y="473.31044914482686" type="curve"/>
      <point x="422.5444783780579" y="475.8655920850035" type="line"/>
      <point x="368.0993516989074" y="508.23435741073723"/>
      <point x="323.1153886120949" y="534.7920015714286"/>
      <point x="254.85657391357424" y="534.7920015714286" type="curve"/>
      <point x="187.98144598026948" y="534.7920015714286"/>
      <point x="126.7402317102187" y="510.47849732719556"/>
      <point x="79.49799999999996" y="470.2095260620117" type="curve"/>
      <point x="79.49799999999996" y="320.64847564697266" type="line"/>
      <point x="118.80217411734128" y="375.0099701476033"/>
      <point x="182.73002020759625" y="410.3920015714286"/>
    </contour>
  </outline>
</glyph>
<glyph name="inv_exclamation" format="2">
  <advance width="335.64628533333325"/>
  <unicode hex="00A1"/>
  <outline>
    <contour>
      <point x="74.49799999999996" y="528.5523573333335" type="curve" smooth="yes"/>
      <point x="74.49799999999996" y="477.0448093519572"/>
      <point x="116.31559468529042" y="435.2272146666668"/>
      <point x="167.8231426666666" y="435.2272146666668" type="curve" smooth="yes"/>
      <point x="219.33069064804278" y="435.2272146666668"/>
      <point x="261.14828533333326" y="477.0448093519572"/>
      <point x="261.14828533333326" y="528.5523573333334" type="curve" smooth="yes"/>
      <point x="261.14828533333326" y="580.0599053147096"/>
      <point x="219.33069064804283" y="621.8775"/>
      <point x="167.82314266666663" y="621.8775" type="curve" smooth="yes"/>
      <point x="116.31559468529048" y="621.8775"/>
      <point x="74.49799999999999" y="580.0599053147096"/>
    </contour>
    <contour>
      <point x="116.63542141422522" y="362.3314743041992" type="line"/>
      <point x="90.14028896793616" y="-258.12249755859375" type="line"/>
      <point x="245.5059963653971" y="-258.12249755859375" type="line"/>
      <point x="219.01086391910803" y="362.3314743041992" type="line"/>
    </contour>
  </outline>
</glyph>
<glyph name="cent" format="2">
  <advance width="576.3828865966796"/>
  <unicode hex="00A2"/>
  <outline>
    <contour>
      <point x="278.6893681030273" y="0" type="line"/>
      <point x="406.1993626098632" y="0" type="line"/>
      <point x="406.1993626098632" y="109.82470703125" type="line"/>
      <point x="455.5777403724259" y="116.61087821971996"/>
      <point x="501.3510717531553" y="133.80047575908034"/>
      <point x="540.8848865966796" y="159.25032806396484" type="curve"/>
      <point x="540.8848865966796" y="295.9308853149414" type="line"/>
      <point x="492.9149571319377" y="253.49573815194617"/>
      <point x="429.59758745967355" y="227.69574999999992"/>
      <point x="360.21711607142856" y="227.69574999999986" type="curve"/>
      <point x="251.47748109807566" y="227.69574999999998"/>
      <point x="163.59199999999993" y="316.10377958305037"/>
      <point x="163.59199999999993" y="425.0" type="curve" smooth="yes"/>
      <point x="163.59199999999993" y="533.8962204169496"/>
      <point x="251.47748109807566" y="622.30425"/>
      <point x="360.217116141183" y="622.3042474975587" type="curve"/>
      <point x="429.5975097242486" y="622.3042478163997"/>
      <point x="492.91481516300877" y="596.5043187543602"/>
      <point x="540.8848865966796" y="554.0800628662109" type="curve"/>
      <point x="540.8848865966796" y="690.7413787841797" type="line"/>
      <point x="501.3510717635508" y="716.2019675025316"/>
      <point x="455.5777403745698" y="733.3926898998336"/>
      <point x="406.1993626098632" y="740.1805038452148" type="curve"/>
      <point x="406.1993626098632" y="850" type="line"/>
      <point x="278.6893681030273" y="850" type="line"/>
      <point x="278.6893681030273" y="733.8230514526367" type="line"/>
      <point x="138.4122052312813" y="699.2958705343193"/>
      <point x="34.497999999999976" y="575.4526850694357"/>
      <point x="34.49799999999996" y="425.00000000000006" type="curve" smooth="yes"/>
      <point x="34.497999999999934" y="274.5473149305644"/>
      <point x="138.41220523128123" y="150.70412946568075"/>
      <point x="278.6893681030273" y="116.17777252197266" type="curve"/>
    </contour>
  </outline>
</glyph>
<glyph name="pound" format="2">
  <advance width="672.5401665649414"/>
  <unicode hex="00A3"/>
  <outline>
    <contour>
      <point x="35.49799999999996" y="0" type="line"/>
      <point x="609.0421665649415" y="0" type="line"/>
      <point x="609.0421665649415" y="121.1344985961914" type="line"/>
      <point x="223.50804028320306" y="121.1344985961914" type="line"/>
      <point x="263.00799971595495" y="166.94867022146914"/>
      <point x="263.00799983889635" y="217.18398763056396"/>
      <point x="263.0080006490543" y="269.1114585080366" type="curve"/>
      <point x="263.0080021362304" y="364.43274688720703" type="line"/>
      <point x="486.2390354614258" y="364.43274688720703" type="line"/>
      <point x="486.2390354614258" y="485.56725311279297" type="line"/>
      <point x="263.0080021362304" y="485.56725311279297" type="line"/>
      <point x="263.0080021362304" y="533.825340354205" type="line"/>
      <point x="263.0080021362304" y="709.2050954028956"/>
      <point x="352.20634030950333" y="743.8655"/>
      <point x="423.61504885057474" y="743.8655" type="curve"/>
      <point x="491.04296437940496" y="743.8655"/>
      <point x="551.773746550988" y="714.1447439446889"/>
      <point x="594.0421665649415" y="666.7290267944336" type="curve"/>
      <point x="594.0421665649415" y="807.8062286376953" type="line"/>
      <point x="546.1498812919278" y="843.7225490249913"/>
      <point x="486.67518275946674" y="864.9999999999999"/>
      <point x="422.27008333333333" y="865.0" type="curve"/>
      <point x="325.38814849083474" y="865.0"/>
      <point x="135.498" y="816.0924232407237"/>
      <point x="135.49799999999993" y="528.2279166666666" type="curve"/>
      <point x="135.49799999999993" y="485.56725311279297" type="line"/>
      <point x="35.49799999999996" y="485.56725311279297" type="line"/>
      <point x="35.49799999999996" y="364.43274688720703" type="line"/>
      <point x="135.49799999999993" y="364.43274688720703" type="line"/>
      <point x="135.49799999999993" y="257.53803437274263" type="line"/>
      <point x="135.49799999999993" y="139.40846796692875"/>
      <point x="73.61893339797338" y="121.13449999999999"/>
      <point x="35.49799999999996" y="121.13449999999999" type="curve"/>
    </contour>
  </outline>
</glyph>
<glyph name="currency" format="2">
  <advance width="750.1805550537109"/>
  <unicode hex="00A4"/>
  <outline>
    <contour>
      <point x="157.46208843994137" y="119.40772247314453" type="line"/>
      <point x="233.31438336181637" y="195.26001739501953" type="line"/>
      <point x="274.5292356451199" y="169.7530907011676"/>
      <point x="323.1036255380735" y="155.02726190476184"/>
      <point x="375.0902775268554" y="155.02726190476187" type="curve" smooth="yes"/>
      <point x="427.0760355035824" y="155.02726190476187"/>
      <point x="475.6496487444996" y="169.75258422672624"/>
      <point x="516.8641422729493" y="195.26204681396484" type="curve"/>
      <point x="592.7184666137696" y="119.40772247314453" type="line"/>
      <point x="680.682555053711" y="207.37181091308594" type="line"/>
      <point x="604.830260131836" y="283.22410583496094" type="line"/>
      <point x="630.3361738506754" y="324.43561679613657"/>
      <point x="645.0630156220936" y="373.01155998710834"/>
      <point x="645.0630156220936" y="425.0" type="curve" smooth="yes"/>
      <point x="645.0630156220936" y="476.989781030974"/>
      <point x="630.3354140965527" y="525.5668891901614"/>
      <point x="604.8282307128907" y="566.7738647460938" type="curve"/>
      <point x="680.682555053711" y="642.6281890869141" type="line"/>
      <point x="592.7184666137696" y="730.5922775268555" type="line"/>
      <point x="516.8661716918946" y="654.7399826049805" type="line"/>
      <point x="475.651319408591" y="680.2469092988324"/>
      <point x="427.0769295156373" y="694.9727380952381"/>
      <point x="375.0902775268554" y="694.9727380952381" type="curve" smooth="yes"/>
      <point x="323.10451955012843" y="694.9727380952381"/>
      <point x="274.5309063092112" y="680.2474157732737"/>
      <point x="233.31641278076168" y="654.7379531860352" type="curve"/>
      <point x="157.46208843994137" y="730.5922775268555" type="line"/>
      <point x="69.49799999999996" y="642.6281890869141" type="line"/>
      <point x="145.35029492187496" y="566.7758941650391" type="line"/>
      <point x="119.84438120303551" y="525.5643832038635"/>
      <point x="105.11753943161736" y="476.9884400128917"/>
      <point x="105.1175394316173" y="425.0000000000001" type="curve" smooth="yes"/>
      <point x="105.1175394316173" y="373.0102189690261"/>
      <point x="119.84514095715826" y="324.43311080983864"/>
      <point x="145.35232434082027" y="283.22613525390625" type="curve"/>
      <point x="69.49799999999996" y="207.37181091308594" type="line"/>
    </contour>
    <contour>
      <point x="520.6630156220936" y="425.0" type="curve" smooth="yes"/>
      <point x="520.6630156220936" y="344.65621934271184"/>
      <point x="455.4340581841435" y="279.42726190476185"/>
      <point x="375.0902775268554" y="279.42726190476185" type="curve" smooth="yes"/>
      <point x="294.7464968695673" y="279.42726190476185"/>
      <point x="229.5175394316173" y="344.6562193427119"/>
      <point x="229.5175394316173" y="425.0" type="curve" smooth="yes"/>
      <point x="229.5175394316173" y="505.3437806572881"/>
      <point x="294.7464968695673" y="570.5727380952382"/>
      <point x="375.0902775268554" y="570.5727380952382" type="curve" smooth="yes"/>
      <point x="455.4340581841435" y="570.5727380952382"/>
      <point x="520.6630156220936" y="505.3437806572881"/>
    </contour>
  </outline>
</glyph>
<glyph name="yen" format="2">
  <advance width="756.601239868164"/>
  <unicode hex="00A5"/>
  <outline>
    <contour>
      <point x="122.72731671142573" y="227.48313903808594" type="line"/>
      <point x="314.545622680664" y="227.48313903808594" type="line"/>
      <point x="314.545622680664" y="0" type="line"/>
      <point x="442.0556171875" y="0" type="line"/>
      <point x="442.0556171875" y="227.48313903808594" type="line"/>
      <point x="633.8739155273438" y="227.48313903808594" type="line"/>
      <point x="633.8739155273438" y="332.3060302734375" type="line"/>
      <point x="442.0556171875" y="332.3060302734375" type="line"/>
      <point x="442.0556171875" y="356.31370544433594" type="line"/>
      <point x="453.7973621826172" y="376.02730560302734" type="line"/>
      <point x="633.8739155273438" y="376.02730560302734" type="line"/>
      <point x="633.8739155273438" y="480.8501968383789" type="line"/>
      <point x="516.2315815429688" y="480.8501968383789" type="line"/>
      <point x="736.1032398681641" y="850" type="line"/>
      <point x="596.5791767578125" y="850" type="line"/>
      <point x="381.9933994750976" y="487.7082824707031" type="line"/>
      <point x="167.40762219238275" y="850" type="line"/>
      <point x="20.497999999999962" y="850" type="line"/>
      <point x="240.36965832519525" y="480.8501968383789" type="line"/>
      <point x="122.72731671142573" y="480.8501968383789" type="line"/>
      <point x="122.72731671142573" y="376.02730560302734" type="line"/>
      <point x="302.8038776855468" y="376.02730560302734" type="line"/>
      <point x="314.545622680664" y="356.31370544433594" type="line"/>
      <point x="314.545622680664" y="332.3060302734375" type="line"/>
      <point x="122.72731671142573" y="332.3060302734375" type="line"/>
    </contour>
  </outline>
</glyph>
<glyph name="brokenbar" format="2">
  <advance width="313.3960015258788"/>
  <unicode hex="00A6"/>
  <outline>
    <contour>
      <point x="218.89800152587884" y="956.8775024414062" type="line"/>
      <point x="94.49799999999996" y="956.8775024414062" type="line"/>
      <point x="94.49799999999996" y="468.12249755859375" type="line"/>
      <point x="218.89800152587884" y="468.12249755859375" type="line"/>
    </contour>
    <contour>
      <point x="94.49799999999996" y="-106.87750244140625" type="line"/>
      <point x="218.89800152587884" y="-106.87750244140625" type="line"/>
      <point x="218.89800152587884" y="381.87750244140625" type="line"/>
      <point x="94.49799999999996" y="381.87750244140625" type="line"/>
    </contour>
  </outline>
</glyph>
<glyph name="section" format="2">
  <advance width="573.9877619047616"/>
  <unicode hex="00A7"/>
  <outline>
    <contour>
      <point x="512.6557619047618" y="14.934685001046347" type="curve"/>
      <point x="512.6557619047618" y="72.41203488530579"/>
      <point x="485.61106349002057" y="123.22770614265305"/>
      <point x="441.9582054443357" y="159.4911117553711" type="curve"/>
      <point x="501.4456086695128" y="198.8929384506198"/>
      <point x="539.4897619047617" y="260.36091374119496"/>
      <point x="539.4897619047616" y="333.3099000000001" type="curve"/>
      <point x="539.4897619047618" y="466.2280738007121"/>
      <point x="430.4388947041231" y="514.7085240109653"/>
      <point x="355.8890645760715" y="545.7275823141717" type="curve"/>
      <point x="271.8459250376751" y="580.6966632744931" type="line"/>
      <point x="231.5027891643983" y="597.4828327619065"/>
      <point x="187.6542499999998" y="613.707865843383"/>
      <point x="187.6542499999998" y="658.57183" type="curve"/>
      <point x="187.6542499999998" y="707.4771769788682"/>
      <point x="239.75842552705288" y="743.0305599999999"/>
      <point x="313.54608095238075" y="743.0305599999999" type="curve"/>
      <point x="379.38055470075847" y="743.0305617049912"/>
      <point x="439.0286452233671" y="723.0800840111535"/>
      <point x="482.655760986328" y="690.7455902099609" type="curve"/>
      <point x="482.655760986328" y="822.9209442138672" type="line"/>
      <point x="436.44398281925623" y="850.9880395027631"/>
      <point x="375.3726114918618" y="864.9999999999999"/>
      <point x="308.4108809523807" y="864.9999999999999" type="curve"/>
      <point x="173.06111949431872" y="865.0"/>
      <point x="63.33199999999982" y="775.284578345822"/>
      <point x="63.33199999999981" y="655.2557" type="curve"/>
      <point x="63.33199999999981" y="597.7784309429355"/>
      <point x="90.37662235188921" y="546.9628217769013"/>
      <point x="134.02955554199198" y="510.6992721557617" type="curve"/>
      <point x="74.54215209510346" y="471.2974457952447"/>
      <point x="36.49799999999996" y="409.82947125985163"/>
      <point x="36.497999999999976" y="336.88048500104645" type="curve"/>
      <point x="36.497999999999806" y="203.96231120033443"/>
      <point x="145.54886678759055" y="155.48186055608488"/>
      <point x="220.09869679439086" y="124.46280196146851" type="curve"/>
      <point x="304.14183778501706" y="89.49372001150245" type="line"/>
      <point x="344.484973592678" y="72.70755036639062"/>
      <point x="388.33351190476174" y="56.482519157663376"/>
      <point x="388.33351190476174" y="11.618555001046445" type="curve"/>
      <point x="388.33351190476174" y="-37.286791977821814"/>
      <point x="336.2293363777087" y="-72.8401749989535"/>
      <point x="262.4416809523808" y="-72.8401749989535" type="curve"/>
      <point x="187.09013794466915" y="-72.84017654028919"/>
      <point x="119.51905749601013" y="-48.72836054378836"/>
      <point x="73.33200091843364" y="-10.570189339773862" type="curve"/>
      <point x="73.3319999999998" y="-145.6021957397461" type="line"/>
      <point x="122.57269650345762" y="-178.8812465638013"/>
      <point x="191.4002926096573" y="-194.80961499895358"/>
      <point x="267.57688095238075" y="-194.8096149989537" type="curve"/>
      <point x="402.9266424104428" y="-194.80961499895358"/>
      <point x="512.6557619047618" y="-105.09419334477553"/>
    </contour>
    <contour>
      <point x="160.82024999999982" y="342.76421500104647" type="curve"/>
      <point x="160.82024999999985" y="378.09540356695635"/>
      <point x="180.16753450760675" y="426.09185205532333"/>
      <point x="247.9346153564451" y="451.9517822265625" type="curve"/>
      <point x="325.0858827737467" y="419.6805106523671" type="line"/>
      <point x="364.95689266368186" y="403.00303753794634"/>
      <point x="415.1675119047617" y="384.34369776718523"/>
      <point x="415.1675119047618" y="327.42616999999996" type="curve"/>
      <point x="415.1675119047617" y="292.0949814340901"/>
      <point x="395.82022615787844" y="244.0985326965914"/>
      <point x="328.0531456298826" y="218.2386016845703" type="curve"/>
      <point x="250.90187945421658" y="250.50987273940734" type="line"/>
      <point x="211.0308695642814" y="267.18734585382805"/>
      <point x="160.8202499999999" y="285.8466872338612"/>
    </contour>
  </outline>
</glyph>
<glyph name="diaeresis" format="2">
  <advance width="559.603569733169"/>
  <unicode hex="00A8"/>
  <anchor x="279.8017848665845" y="997.1214046305419" name="center" identifier="center"/>
  <anchor x="279.8017848665845" y="1182.9265372858513" name="top" identifier="top"/>
  <outline>
    <contour>
      <point x="253.59956973316906" y="997.1214046305419" type="curve" smooth="yes"/>
      <point x="253.59956973316906" y="1041.0266776511985"/>
      <point x="217.95405788724122" y="1076.6721894971265"/>
      <point x="174.04878486658453" y="1076.6721894971265" type="curve" smooth="yes"/>
      <point x="130.1435118459278" y="1076.6721894971265"/>
      <point x="94.49799999999996" y="1041.0266776511985"/>
      <point x="94.49799999999996" y="997.1214046305419" type="curve" smooth="yes"/>
      <point x="94.49799999999996" y="953.2161316098851"/>
      <point x="130.14351184592778" y="917.5706197639573"/>
      <point x="174.0487848665845" y="917.5706197639573" type="curve" smooth="yes"/>
      <point x="217.95405788724122" y="917.5706197639573"/>
      <point x="253.59956973316906" y="953.2161316098851"/>
    </contour>
    <contour>
      <point x="465.10556973316903" y="997.1214046305419" type="curve" smooth="yes"/>
      <point x="465.10556973316903" y="1041.0266776511985"/>
      <point x="429.46005788724125" y="1076.6721894971265"/>
      <point x="385.5547848665845" y="1076.6721894971265" type="curve" smooth="yes"/>
      <point x="341.6495118459278" y="1076.6721894971265"/>
      <point x="306.00399999999996" y="1041.0266776511985"/>
      <point x="306.00399999999996" y="997.1214046305419" type="curve" smooth="yes"/>
      <point x="306.00399999999996" y="953.2161316098851"/>
      <point x="341.6495118459278" y="917.5706197639573"/>
      <point x="385.5547848665845" y="917.5706197639573" type="curve" smooth="yes"/>
      <point x="429.46005788724125" y="917.5706197639573"/>
      <point x="465.10556973316903" y="953.2161316098851"/>
    </contour>
  </outline>
</glyph>
<glyph name="copyright" format="2">
  <advance width="938.996"/>
  <unicode hex="00A9"/>
  <outline>
    <contour>
      <point x="909.498" y="425.0" type="curve" smooth="yes"/>
      <point x="909.498" y="667.8426088"/>
      <point x="712.3406087999999" y="865.0"/>
      <point x="469.49800000000005" y="865.0" type="curve" smooth="yes"/>
      <point x="226.65539119999997" y="865.0"/>
      <point x="29.497999999999962" y="667.8426088000001"/>
      <point x="29.497999999999962" y="425.0" type="curve" smooth="yes"/>
      <point x="29.497999999999905" y="182.15739120000003"/>
      <point x="226.6553911999999" y="-14.999999999999943"/>
      <point x="469.49799999999993" y="-15.0" type="curve" smooth="yes"/>
      <point x="712.3406087999999" y="-15.000000000000057"/>
      <point x="909.498" y="182.1573911999999"/>
    </contour>
    <contour>
      <point x="807.9664826845162" y="425.0" type="curve" smooth="yes"/>
      <point x="807.9664826845162" y="238.19416060980546"/>
      <point x="656.3038393901944" y="86.53151731548365"/>
      <point x="469.49799999999993" y="86.53151731548371" type="curve" smooth="yes"/>
      <point x="282.69216060980546" y="86.53151731548371"/>
      <point x="131.02951731548367" y="238.19416060980555"/>
      <point x="131.02951731548367" y="425.0" type="curve" smooth="yes"/>
      <point x="131.02951731548367" y="611.8058393901945"/>
      <point x="282.69216060980557" y="763.4684826845163"/>
      <point x="469.49800000000005" y="763.4684826845163" type="curve" smooth="yes"/>
      <point x="656.3038393901945" y="763.4684826845163"/>
      <point x="807.9664826845162" y="611.8058393901945"/>
    </contour>
    <contour>
      <point x="484.079664921313" y="557.7615434915618" type="curve"/>
      <point x="513.5691448489653" y="557.7615433050652"/>
      <point x="565.1157622016584" y="551.3299030182159"/>
      <point x="613.9315616657914" y="512.9133708600198" type="curve"/>
      <point x="613.9315616657914" y="635.1596534732804" type="line"/>
      <point x="575.4084034650978" y="657.4378795830088"/>
      <point x="529.971016127053" y="670.0096165715618"/>
      <point x="481.332" y="670.0096165715618" type="curve"/>
      <point x="343.0521254407315" y="670.0096165715618"/>
      <point x="230.79533180849987" y="562.8368511086107"/>
      <point x="230.79533180849987" y="425.0" type="curve" smooth="yes"/>
      <point x="230.79533180849987" y="287.1631488913894"/>
      <point x="343.0521254407314" y="179.9903834284382"/>
      <point x="481.332" y="179.99038342843818" type="curve"/>
      <point x="529.971016127053" y="179.99038342843818"/>
      <point x="575.4084034650978" y="192.56212041699118"/>
      <point x="613.9315616657914" y="214.84418159629513" type="curve"/>
      <point x="613.9315616657914" y="337.0944324135493" type="line"/>
      <point x="578.2580591968529" y="309.0126975179385"/>
      <point x="533.125869555027" y="292.2384565084382"/>
      <point x="484.079664921313" y="292.23845650843816" type="curve"/>
      <point x="406.7494610395105" y="292.23845650843816"/>
      <point x="351.5065108983622" y="351.02841506692835"/>
      <point x="351.5065108983622" y="425.0" type="curve" smooth="yes"/>
      <point x="351.5065108983622" y="498.97158493307165"/>
      <point x="406.7494610395105" y="557.7615434915618"/>
    </contour>
  </outline>
</glyph>
<glyph name="ordinal_a" format="2">
  <advance width="497.5869228273258"/>
  <unicode hex="00AA"/>
  <outline>
    <contour>
      <point x="319.0640116149716" y="473.9242857142857" type="line"/>
      <point x="412.08892282732586" y="473.9242857142857" type="line"/>
      <point x="412.08892282732586" y="662.192886133461" type="line"/>
      <point x="412.08892282732586" y="733.1824096109624"/>
      <point x="412.08892216097564" y="859.295344965476"/>
      <point x="238.23389496764406" y="859.295344965476" type="curve"/>
      <point x="184.6663061204705" y="859.295344965476"/>
      <point x="136.0808856476982" y="847.3627142167022"/>
      <point x="100.32937477555325" y="825.6202682447849" type="curve"/>
      <point x="100.32937477555325" y="723.7300201110322" type="line"/>
      <point x="129.05270031063736" y="750.8803068081008"/>
      <point x="177.154937906035" y="767.6656307266512"/>
      <point x="231.75397053189783" y="767.6656307266512" type="curve"/>
      <point x="315.3984284970048" y="767.665630726651"/>
      <point x="315.8786875166626" y="724.4514791480815"/>
      <point x="315.8786849197536" y="706.5583047729015" type="curve"/>
      <point x="315.87868419408335" y="701.5583047729015" type="line"/>
      <point x="284.2522154001225" y="707.8417661373417"/>
      <point x="255.27963119635143" y="709.2036858045556"/>
      <point x="236.78638358493197" y="709.2036858045554" type="curve"/>
      <point x="143.25298186430246" y="709.2036858045554"/>
      <point x="68.49799999999996" y="669.2039286661098"/>
      <point x="68.49799999999996" y="586.9163132766826" type="curve"/>
      <point x="68.49799999999996" y="510.256074117952"/>
      <point x="137.66594706649613" y="464.6289407488096"/>
      <point x="218.1940910058138" y="464.6289407488096" type="curve"/>
      <point x="259.0236648298459" y="464.6289407488096"/>
      <point x="295.41078094700373" y="477.02273457971137"/>
      <point x="319.0640116149716" y="498.6149181266943" type="curve"/>
    </contour>
    <contour>
      <point x="169.59120618669579" y="589.1192851937467" type="curve"/>
      <point x="169.59120618669579" y="618.7291857199777"/>
      <point x="198.5744901438477" y="635.2519356899206"/>
      <point x="242.71848745062084" y="635.2519356899206" type="curve"/>
      <point x="256.4813581203196" y="635.2519356899206"/>
      <point x="285.86374304393394" y="634.1243437157339"/>
      <point x="315.87868419408335" y="626.3340065910043" type="curve"/>
      <point x="315.8786857375234" y="579.178538960066"/>
      <point x="275.53129375922634" y="545.8832546306375"/>
      <point x="225.76430712286322" y="545.8832546306375" type="curve"/>
      <point x="194.7381606809854" y="545.8832546306375"/>
      <point x="169.59120618669579" y="561.8573474179789"/>
    </contour>
    <contour>
      <point x="77.793344965476" y="325.75872218333336" type="line"/>
      <point x="412.0889223897666" y="325.75872218333336" type="line"/>
      <point x="412.0889223897666" y="422.0898492452381" type="line"/>
      <point x="77.793344965476" y="422.0898492452381" type="line"/>
    </contour>
  </outline>
</glyph>
<glyph name="angleleft_dbl" format="2">
  <advance width="639.4291359863281"/>
  <unicode hex="00AB"/>
  <outline>
    <contour>
      <point x="175.13673291015618" y="303.4387512207031" type="line"/>
      <point x="328.517302368164" y="541.5076751708984" type="line"/>
      <point x="211.87294659423821" y="541.5076751708984" type="line"/>
      <point x="33.49799999999996" y="303.4387512207031" type="line"/>
      <point x="211.87294659423821" y="65.36981964111328" type="line"/>
      <point x="328.517302368164" y="65.36981964111328" type="line"/>
    </contour>
    <contour>
      <point x="431.5505588989257" y="303.4387512207031" type="line"/>
      <point x="584.9311283569336" y="541.5076751708984" type="line"/>
      <point x="468.2867725830078" y="541.5076751708984" type="line"/>
      <point x="289.91182598876946" y="303.4387512207031" type="line"/>
      <point x="468.2867725830078" y="65.36981964111328" type="line"/>
      <point x="584.9311359863282" y="65.36981964111328" type="line"/>
    </contour>
  </outline>
</glyph>
<glyph name="logicalnot" format="2">
  <advance width="663.9317147216797"/>
  <unicode hex="00AC"/>
  <outline>
    <contour>
      <point x="441.92371258544915" y="92.43643188476562" type="line"/>
      <point x="569.4337147216797" y="92.43643188476562" type="line"/>
      <point x="569.4337147216797" y="488.75499725341797" type="line"/>
      <point x="35.49799999999996" y="488.75499725341797" type="line"/>
      <point x="35.49799999999996" y="367.62049865722656" type="line"/>
      <point x="441.92371258544915" y="367.62049865722656" type="line"/>
    </contour>
  </outline>
</glyph>
<glyph name="registered" format="2">
  <advance width="938.996"/>
  <unicode hex="00AE"/>
  <outline>
    <contour>
      <point x="909.498" y="425.0" type="curve" smooth="yes"/>
      <point x="909.498" y="667.8426088"/>
      <point x="712.3406087999999" y="865.0"/>
      <point x="469.49800000000005" y="865.0" type="curve" smooth="yes"/>
      <point x="226.65539119999997" y="865.0"/>
      <point x="29.497999999999962" y="667.8426088000001"/>
      <point x="29.497999999999962" y="425.0" type="curve" smooth="yes"/>
      <point x="29.497999999999905" y="182.15739120000003"/>
      <point x="226.6553911999999" y="-14.999999999999943"/>
      <point x="469.49799999999993" y="-15.0" type="curve" smooth="yes"/>
      <point x="712.3406087999999" y="-15.000000000000057"/>
      <point x="909.4979999999998" y="182.1573911999999"/>
    </contour>
    <contour>
      <point x="809.6069697124885" y="425.0" type="curve" smooth="yes"/>
      <point x="809.6069697124885" y="237.28875117895237"/>
      <point x="657.2092488210476" y="84.89103028751128"/>
      <point x="469.49799999999993" y="84.89103028751134" type="curve" smooth="yes"/>
      <point x="281.7867511789524" y="84.89103028751134"/>
      <point x="129.3890302875113" y="237.28875117895245"/>
      <point x="129.3890302875113" y="425.0" type="curve" smooth="yes"/>
      <point x="129.3890302875113" y="612.7112488210475"/>
      <point x="281.7867511789524" y="765.1089697124887"/>
      <point x="469.49800000000005" y="765.1089697124887" type="curve" smooth="yes"/>
      <point x="657.2092488210476" y="765.1089697124887"/>
      <point x="809.6069697124885" y="612.7112488210475"/>
    </contour>
    <contour>
      <point x="312.46607072177346" y="182.39103028751134" type="line"/>
      <point x="430.1931951740039" y="182.39103028751134" type="line"/>
      <point x="430.1931951740039" y="342.69103438214654" type="line"/>
      <point x="453.49454600581623" y="342.69103438214654" type="line"/>
      <point x="553.9795162737225" y="182.39103028751134" type="line"/>
      <point x="683.3974667208274" y="182.39103028751134" type="line"/>
      <point x="567.9044983487206" y="364.6548557142789" type="line"/>
      <point x="616.2594519480464" y="392.8083877725538"/>
      <point x="648.7909684285951" y="445.21010036413264"/>
      <point x="648.7909684285951" y="505.1500012838936" type="curve" smooth="yes"/>
      <point x="648.7909684285951" y="567.6264404006672"/>
      <point x="621.4392327592366" y="667.6089697124887"/>
      <point x="444.91687284590205" y="667.6089697124887" type="curve"/>
      <point x="312.46607072177346" y="667.6089697124887" type="line"/>
    </contour>
    <contour>
      <point x="430.1931951740039" y="451.0627734260245" type="line"/>
      <point x="430.1931951740039" y="555.7682014828698" type="line"/>
      <point x="467.8080056943427" y="555.7682014828698" type="line"/>
      <point x="515.8542034415669" y="555.7682014828698"/>
      <point x="530.272148793393" y="526.4898304821255"/>
      <point x="530.272148793393" y="503.41548773253646" type="curve" smooth="yes"/>
      <point x="530.272148793393" y="480.34114297662956"/>
      <point x="515.8542003119732" y="451.0627751859861"/>
      <point x="467.80800434916046" y="451.06277419884543" type="curve"/>
    </contour>
  </outline>
</glyph>
<glyph name="macron" format="2">
  <advance width="533.4380238095237"/>
  <unicode hex="00AF"/>
  <anchor x="266.7190119047618" y="997.1214046305419" name="center" identifier="center"/>
  <anchor x="266.7190119047618" y="1172.957271527422" name="top" identifier="top"/>
  <outline>
    <contour>
      <point x="94.49799999999996" y="943.8867082591133" type="line"/>
      <point x="438.9400238095237" y="943.8867082591133" type="line"/>
      <point x="438.9400238095237" y="1050.3561010019705" type="line"/>
      <point x="94.49799999999996" y="1050.3561010019705" type="line"/>
    </contour>
  </outline>
</glyph>
<glyph name="degree" format="2">
  <advance width="476.42433333333315"/>
  <unicode hex="00B0"/>
  <outline>
    <contour>
      <point x="410.9263333333332" y="692.2858333333334" type="curve" smooth="yes"/>
      <point x="410.9263333333332" y="787.60937608345"/>
      <point x="333.5357094167832" y="865.0"/>
      <point x="238.21216666666658" y="865.0" type="curve" smooth="yes"/>
      <point x="142.88862391654993" y="865.0"/>
      <point x="65.49799999999996" y="787.60937608345"/>
      <point x="65.49799999999996" y="692.2858333333334" type="curve" smooth="yes"/>
      <point x="65.49799999999996" y="596.9622905832167"/>
      <point x="142.88862391654993" y="519.5716666666667"/>
      <point x="238.21216666666658" y="519.5716666666667" type="curve" smooth="yes"/>
      <point x="333.5357094167832" y="519.5716666666667"/>
      <point x="410.9263333333332" y="596.9622905832167"/>
    </contour>
    <contour>
      <point x="301.368599815238" y="692.2858333333334" type="curve" smooth="yes"/>
      <point x="301.368599815238" y="654.3965081717264"/>
      <point x="273.5096162334321" y="623.6515135088572"/>
      <point x="238.21216666666658" y="623.6515135088572" type="curve" smooth="yes"/>
      <point x="202.9147170999011" y="623.6515135088572"/>
      <point x="175.05573351809522" y="654.3965081717264"/>
      <point x="175.05573351809522" y="692.2858333333334" type="curve" smooth="yes"/>
      <point x="175.05573351809522" y="730.1751584949403"/>
      <point x="202.9147170999011" y="760.9201531578095"/>
      <point x="238.21216666666658" y="760.9201531578095" type="curve" smooth="yes"/>
      <point x="273.5096162334321" y="760.9201531578095"/>
      <point x="301.368599815238" y="730.1751584949403"/>
    </contour>
  </outline>
</glyph>
<glyph name="plusminus" format="2">
  <advance width="641.8864351190476"/>
  <unicode hex="00B1"/>
  <outline>
    <contour>
      <point x="259.520720336914" y="290.50425720214844" type="line"/>
      <point x="382.3657139282226" y="290.50425720214844" type="line"/>
      <point x="382.3657139282226" y="450.5269775390625" type="line"/>
      <point x="542.3884342651368" y="450.5269775390625" type="line"/>
      <point x="542.3884342651368" y="573.3719787597656" type="line"/>
      <point x="382.3657139282226" y="573.3719787597656" type="line"/>
      <point x="382.3657139282226" y="733.3946914672852" type="line"/>
      <point x="259.520720336914" y="733.3946914672852" type="line"/>
      <point x="259.520720336914" y="573.3719787597656" type="line"/>
      <point x="99.49799999999996" y="573.3719787597656" type="line"/>
      <point x="99.49799999999996" y="450.5269775390625" type="line"/>
      <point x="259.520720336914" y="450.5269775390625" type="line"/>
    </contour>
    <contour>
      <point x="99.49799999999996" y="116.60530625000001" type="line"/>
      <point x="542.3884351190477" y="116.60530625000001" type="line"/>
      <point x="542.3884351190477" y="239.45030625" type="line"/>
      <point x="99.49799999999996" y="239.45030625" type="line"/>
    </contour>
  </outline>
</glyph>
<glyph name="sup_two" format="2">
  <advance width="517.0605446777342"/>
  <unicode hex="00B2"/>
  <outline>
    <contour>
      <point x="69.49799999999996" y="303.57142639160156" type="line"/>
      <point x="438.5625446777343" y="303.57142639160156" type="line"/>
      <point x="438.5625446777343" y="404.34071350097656" type="line"/>
      <point x="271.4412067871093" y="404.34071350097656" type="line"/>
      <point x="352.10566010963663" y="512.3555501249499" type="line"/>
      <point x="396.9073561867415" y="572.3478724294998"/>
      <point x="425.70540510814106" y="621.1561430376689"/>
      <point x="425.70540510814106" y="683.914199820197" type="curve"/>
      <point x="425.70540510814106" y="780.8958706362629"/>
      <point x="346.1437111461708" y="859.6428571428571"/>
      <point x="248.0481763569095" y="859.6428571428571" type="curve"/>
      <point x="188.74545208392271" y="859.6428571428571"/>
      <point x="135.40128292989255" y="840.2179337231654"/>
      <point x="98.46257672119137" y="806.4976196289062" type="curve"/>
      <point x="98.46257672119137" y="689.7155532836914" type="line"/>
      <point x="127.41020607310362" y="730.7351458383771"/>
      <point x="180.70283475596432" y="759.1521542677341"/>
      <point x="241.40521906134308" y="759.152154267734" type="curve"/>
      <point x="285.6248046024588" y="759.1521542677341"/>
      <point x="321.52356138504354" y="730.1280195410784"/>
      <point x="321.52356138504354" y="685.6820820012316" type="curve"/>
      <point x="321.52356138504354" y="650.4394995767149"/>
      <point x="301.6007482930597" y="621.5058998134398"/>
      <point x="282.9084729478859" y="595.9012106719733" type="curve"/>
    </contour>
  </outline>
</glyph>
<glyph name="sup_three" format="2">
  <advance width="489.2064426879882"/>
  <unicode hex="00B3"/>
  <outline>
    <contour>
      <point x="211.06662759487057" y="394.5027740912868" type="curve"/>
      <point x="155.19489413392597" y="394.5027740912869"/>
      <point x="105.58835331944708" y="417.06426120711194"/>
      <point x="74.49799999999996" y="451.8751607622419" type="curve"/>
      <point x="74.49800109863277" y="336.36243438720703" type="line"/>
      <point x="125.14561560603288" y="299.71745101297347"/>
      <point x="187.12071226790158" y="293.92857142857133"/>
      <point x="219.42407091014155" y="293.92857142857133" type="curve"/>
      <point x="332.37562193269946" y="293.92857142857133"/>
      <point x="424.1361561385019" y="378.05956468670627"/>
      <point x="424.1361561385019" y="482.1941279327938" type="curve"/>
      <point x="317.9736194610595" y="482.1941261291504" type="line"/>
      <point x="424.13615417480463" y="482.19412994384766" type="line"/>
      <point x="424.1361561385019" y="566.1787802448255"/>
      <point x="372.53848185311193" y="628.2731475127575"/>
      <point x="298.4175256914411" y="655.3821868896484" type="curve"/>
      <point x="429.7084426879882" y="850" type="line"/>
      <point x="84.99780273437496" y="850" type="line"/>
      <point x="84.99780273437496" y="749.230712890625" type="line"/>
      <point x="248.73886871337885" y="749.230712890625" type="line"/>
      <point x="124.72695159912105" y="568.5402374267578" type="line"/>
      <point x="145.890666416461" y="574.7257379174154"/>
      <point x="171.29755974574402" y="577.4071807580445"/>
      <point x="198.63795601358993" y="577.4071807580445" type="curve"/>
      <point x="266.61001480298546" y="577.4071807580445"/>
      <point x="318.063225276433" y="542.466380775871"/>
      <point x="318.063225276433" y="485.9549774246657" type="curve"/>
      <point x="317.9945572211221" y="482.37354469514975"/>
      <point x="317.98026256709494" y="482.20286228614077"/>
      <point x="317.9714288711547" y="482.19412422180176" type="curve"/>
      <point x="315.6218937341206" y="429.91677459822563"/>
      <point x="268.6595270730724" y="394.5027740912868"/>
    </contour>
  </outline>
</glyph>
<glyph name="acute" format="2">
  <advance width="431.88906640624987"/>
  <unicode hex="00B4"/>
  <anchor x="149.92392992974646" y="997.1214046305419" name="center" identifier="center"/>
  <anchor x="149.92392992974646" y="901.6194046305419" name="bottom" identifier="bottom"/>
  <anchor x="149.92392992974646" y="1230.2982642504855" name="top" identifier="top"/>
  <outline>
    <contour>
      <point x="191.493376586914" y="901.6194076538086" type="line"/>
      <point x="337.39106640624993" y="1093.9554061889648" type="line"/>
      <point x="200.67142376708978" y="1093.9554061889648" type="line"/>
      <point x="94.49799999999996" y="901.6194076538086" type="line"/>
    </contour>
  </outline>
</glyph>
<glyph name="micron" format="2">
  <advance width="734.8665291748047"/>
  <unicode hex="00B5"/>
  <outline>
    <contour>
      <point x="94.49799999999996" y="-281.87750244140625" type="line"/>
      <point x="218.5780704956054" y="-281.87750244140625" type="line"/>
      <point x="218.5780704956054" y="35.18437194824219" type="line"/>
      <point x="258.6936320313621" y="3.7417244995051497"/>
      <point x="309.2108290395454" y="-14.999999999999979"/>
      <point x="364.07084959975356" y="-14.999999999999986" type="curve" smooth="yes"/>
      <point x="422.0427640518119" y="-15.000000000000012"/>
      <point x="475.1651944269918" y="5.9282494314593155"/>
      <point x="516.2884586791993" y="40.64179992675781" type="curve"/>
      <point x="516.2884586791993" y="0" type="line"/>
      <point x="640.3685291748047" y="0" type="line"/>
      <point x="640.3685291748047" y="606.8775024414062" type="line"/>
      <point x="516.2884586791993" y="606.8775024414062" type="line"/>
      <point x="516.2884586791993" y="300.35244383273783" type="line"/>
      <point x="516.2884586791993" y="252.75309042919633"/>
      <point x="512.8899110480683" y="102.87606549103444"/>
      <point x="367.43326339285704" y="102.87606549103444" type="curve" smooth="yes"/>
      <point x="221.97661699324345" y="102.87606549103445"/>
      <point x="218.57806891479777" y="252.75308600426857"/>
      <point x="218.5780691272808" y="300.35244101224123" type="curve"/>
      <point x="218.5780704956054" y="606.8775024414062" type="line"/>
      <point x="94.49799999999996" y="606.8775024414062" type="line"/>
    </contour>
  </outline>
</glyph>
<glyph name="pilcrow" format="2">
  <advance width="761.2377352876209"/>
  <unicode hex="00B6"/>
  <outline>
    <contour>
      <point x="304.47073809523806" y="-185.71428680419922" type="line"/>
      <point x="425.60523669142947" y="-185.71428680419922" type="line"/>
      <point x="425.60523669142947" y="728.8655014038086" type="line"/>
      <point x="545.6052366914296" y="728.8655014038086" type="line"/>
      <point x="545.6052366914296" y="-185.71428680419922" type="line"/>
      <point x="666.739735287621" y="-185.71428680419922" type="line"/>
      <point x="666.739735287621" y="850" type="line"/>
      <point x="354.47073809523806" y="850.0" type="line"/>
      <point x="72.98433596108939" y="850.0"/>
      <point x="34.49799999999996" y="663.6948344423938"/>
      <point x="34.49799999999996" y="580.0272619047619" type="curve" smooth="yes"/>
      <point x="34.497999999999976" y="431.02525275947374"/>
      <point x="155.46872894994985" y="310.05452380952374"/>
      <point x="304.47073809523806" y="310.05452380952374" type="curve"/>
    </contour>
  </outline>
</glyph>
<glyph name="interpunct" format="2">
  <advance width="343.64628533333325"/>
  <unicode hex="00B7"/>
  <outline>
    <contour>
      <point x="265.14828533333326" y="425.0" type="curve" smooth="yes"/>
      <point x="265.14828533333326" y="476.5075479813762"/>
      <point x="223.33069064804278" y="518.3251426666667"/>
      <point x="171.82314266666663" y="518.3251426666667" type="curve" smooth="yes"/>
      <point x="120.31559468529043" y="518.3251426666667"/>
      <point x="78.49799999999996" y="476.5075479813762"/>
      <point x="78.49799999999996" y="425.0" type="curve" smooth="yes"/>
      <point x="78.49799999999996" y="373.49245201862385"/>
      <point x="120.31559468529043" y="331.67485733333336"/>
      <point x="171.82314266666663" y="331.67485733333336" type="curve" smooth="yes"/>
      <point x="223.33069064804278" y="331.6748573333333"/>
      <point x="265.14828533333326" y="373.4924520186238"/>
    </contour>
  </outline>
</glyph>
<glyph name="cedilla" format="2">
  <advance width="282.37992660881685"/>
  <unicode hex="00B8"/>
  <anchor x="138.9062293945312" y="0" name="top" identifier="top"/>
  <outline>
    <contour>
      <point x="155.79891368669882" y="-160.95408422615918" type="curve"/>
      <point x="155.79891368669882" y="-190.69742761553528"/>
      <point x="129.8808965811436" y="-210.9305865388659"/>
      <point x="97.95442939453122" y="-210.9305865388659" type="curve"/>
      <point x="84.63951533045488" y="-210.9305865388659"/>
      <point x="45.18972596775579" y="-208.90142509072408"/>
      <point x="13.497999999999962" y="-186.87166595458984" type="curve"/>
      <point x="13.497999999999962" y="-278.00477600097656" type="line"/>
      <point x="46.161974010849065" y="-293.83935040680177"/>
      <point x="78.0193666481128" y="-296.8775"/>
      <point x="97.95442939453116" y="-296.8775" type="curve"/>
      <point x="180.75801940962228" y="-296.8775"/>
      <point x="247.88192660881688" y="-236.0226289485677"/>
      <point x="247.88192660881688" y="-161.15495663995227" type="curve"/>
      <point x="247.88192654613053" y="-106.71214246772472"/>
      <point x="215.76773507018387" y="-61.04198968783449"/>
      <point x="169.0863178710937" y="-39.23693084716797" type="curve"/>
      <point x="186.97580609130856" y="1.1550521850585938" type="line"/>
      <point x="95.22240338134762" y="1.1550521850585938" type="line"/>
      <point x="40.332060668945275" y="-122.77973175048828" type="line"/>
      <point x="63.3358225990915" y="-111.31110517531613"/>
      <point x="85.45253353120762" y="-109.87718191345246"/>
      <point x="95.45442939453122" y="-109.87718191345247" type="curve"/>
      <point x="129.47155534006563" y="-109.87718191345246"/>
      <point x="155.79891368669882" y="-130.79879582725377"/>
    </contour>
  </outline>
</glyph>
<glyph name="sup_one" format="2">
  <advance width="513.7302529296874"/>
  <unicode hex="00B9"/>
  <outline>
    <contour>
      <point x="228.89477429199215" y="303.57142639160156" type="line"/>
      <point x="339.23225292968743" y="303.57142639160156" type="line"/>
      <point x="339.23225292968743" y="850" type="line"/>
      <point x="158.0200031738281" y="850" type="line"/>
      <point x="105.49799999999996" y="749.230712890625" type="line"/>
      <point x="228.89477429199215" y="749.230712890625" type="line"/>
    </contour>
  </outline>
</glyph>
<glyph name="ordinal_o" format="2">
  <advance width="539.071936750003"/>
  <unicode hex="00BA"/>
  <outline>
    <contour>
      <point x="468.57393675000304" y="661.9621428571429" type="curve" smooth="yes"/>
      <point x="468.57393675000304" y="771.8141871535912"/>
      <point x="379.38801267144976" y="859.295344965476"/>
      <point x="269.53596837500146" y="859.295344965476" type="curve" smooth="yes"/>
      <point x="159.6839240785531" y="859.295344965476"/>
      <point x="70.49799999999996" y="771.8141871535912"/>
      <point x="70.49799999999996" y="661.9621428571429" type="curve" smooth="yes"/>
      <point x="70.49799999999996" y="552.1100985606945"/>
      <point x="159.6839240785531" y="464.6289407488096"/>
      <point x="269.53596837500146" y="464.6289407488096" type="curve" smooth="yes"/>
      <point x="379.38801267144976" y="464.6289407488096"/>
      <point x="468.57393675000304" y="552.1100985606945"/>
    </contour>
    <contour>
      <point x="365.0836534488519" y="661.9621428571429" type="curve" smooth="yes"/>
      <point x="365.0836534488519" y="606.4077219543166"/>
      <point x="322.96159841880814" y="561.3251819315683"/>
      <point x="269.53596837500146" y="561.3251819315683" type="curve" smooth="yes"/>
      <point x="216.11033833119478" y="561.3251819315683"/>
      <point x="173.988283301151" y="606.4077219543166"/>
      <point x="173.988283301151" y="661.9621428571429" type="curve" smooth="yes"/>
      <point x="173.988283301151" y="717.5165637599691"/>
      <point x="216.11033833119478" y="762.5991037827175"/>
      <point x="269.53596837500146" y="762.5991037827175" type="curve" smooth="yes"/>
      <point x="322.96159841880814" y="762.5991037827175"/>
      <point x="365.0836534488519" y="717.5165637599691"/>
    </contour>
    <contour>
      <point x="81.49811123214434" y="325.75872218333336" type="line"/>
      <point x="457.5738255178586" y="325.75872218333336" type="line"/>
      <point x="457.5738255178586" y="422.0898492452381" type="line"/>
      <point x="81.49811123214434" y="422.0898492452381" type="line"/>
    </contour>
  </outline>
</glyph>
<glyph name="angleright_dbl" format="2">
  <advance width="640.4291359863281"/>
  <unicode hex="00BB"/>
  <outline>
    <contour>
      <point x="606.9311359863282" y="303.4387512207031" type="line"/>
      <point x="428.5561893920898" y="541.5076751708984" type="line"/>
      <point x="311.91182598876946" y="541.5076751708984" type="line"/>
      <point x="465.2923954467773" y="303.4387512207031" type="line"/>
      <point x="311.91182598876946" y="65.36981964111328" type="line"/>
      <point x="428.5561893920898" y="65.36981964111328" type="line"/>
    </contour>
    <contour>
      <point x="350.517302368164" y="303.4387512207031" type="line"/>
      <point x="172.14235577392574" y="541.5076751708984" type="line"/>
      <point x="55.49799999999996" y="541.5076751708984" type="line"/>
      <point x="208.87856945800777" y="303.4387512207031" type="line"/>
      <point x="55.49799999999996" y="65.36981964111328" type="line"/>
      <point x="172.14235577392574" y="65.36981964111328" type="line"/>
    </contour>
  </outline>
</glyph>
<glyph name="one_over_four" format="2">
  <advance width="1069.6607951269011"/>
  <unicode hex="00BC"/>
  <outline>
    <contour>
      <point x="152.34669423841248" y="0" type="line"/>
      <point x="282.5576012208344" y="0" type="line"/>
      <point x="887.7337715699555" y="850" type="line"/>
      <point x="757.5228645875336" y="850" type="line"/>
    </contour>
    <contour>
      <point x="193.89477429199215" y="303.57142639160156" type="line"/>
      <point x="304.23225292968743" y="303.57142639160156" type="line"/>
      <point x="304.23225292968743" y="850" type="line"/>
      <point x="123.02000317382809" y="850" type="line"/>
      <point x="70.49799999999996" y="749.230712890625" type="line"/>
      <point x="193.89477429199215" y="749.230712890625" type="line"/>
    </contour>
    <contour>
      <point x="560.2678824071745" y="126.56051635742188" type="line"/>
      <point x="849.580748618112" y="126.56051635742188" type="line"/>
      <point x="849.580748618112" y="0" type="line"/>
      <point x="955.6536856298308" y="0" type="line"/>
      <point x="955.6536856298308" y="126.56051635742188" type="line"/>
      <point x="1025.162795126901" y="126.56051635742188" type="line"/>
      <point x="1025.162795126901" y="222.63873291015625" type="line"/>
      <point x="955.6536856298308" y="222.63873291015625" type="line"/>
      <point x="955.6536856298308" y="369.41251373291016" type="line"/>
      <point x="849.580748618112" y="369.41251373291016" type="line"/>
      <point x="849.580748618112" y="222.63873291015625" type="line"/>
      <point x="731.5644598607878" y="222.63873291015625" type="line"/>
      <point x="926.496993124948" y="546.4285736083984" type="line"/>
      <point x="810.050116599069" y="546.4285736083984" type="line"/>
    </contour>
  </outline>
</glyph>
<glyph name="one_over_two" format="2">
  <advance width="1123.745611105905"/>
  <unicode hex="00BD"/>
  <outline>
    <contour>
      <point x="152.34669423841248" y="0" type="line"/>
      <point x="282.5576012208344" y="0" type="line"/>
      <point x="887.7337715699555" y="850" type="line"/>
      <point x="757.5228645875336" y="850" type="line"/>
    </contour>
    <contour>
      <point x="193.89477429199215" y="303.57142639160156" type="line"/>
      <point x="304.23225292968743" y="303.57142639160156" type="line"/>
      <point x="304.23225292968743" y="850" type="line"/>
      <point x="123.02000317382809" y="850" type="line"/>
      <point x="70.49799999999996" y="749.230712890625" type="line"/>
      <point x="193.89477429199215" y="749.230712890625" type="line"/>
    </contour>
    <contour>
      <point x="678.1830664281706" y="0" type="line"/>
      <point x="1047.247611105905" y="0" type="line"/>
      <point x="1047.247611105905" y="100.769287109375" type="line"/>
      <point x="880.12627321528" y="100.769287109375" type="line"/>
      <point x="960.7907265378074" y="208.78412373334834" type="line"/>
      <point x="1005.5924226149123" y="268.7764460378983"/>
      <point x="1034.3904715363117" y="317.5847144662404"/>
      <point x="1034.3904715363117" y="380.34277124876854" type="curve"/>
      <point x="1034.3904715363117" y="477.3244420648344"/>
      <point x="954.8287775743414" y="556.0714285714287"/>
      <point x="856.7332427850802" y="556.0714285714287" type="curve"/>
      <point x="797.4305185120934" y="556.0714285714287"/>
      <point x="744.0863504434636" y="536.6465061425687"/>
      <point x="707.147643149362" y="502.9261932373047" type="curve"/>
      <point x="707.147643149362" y="386.1441116333008" type="line"/>
      <point x="736.0954376657695" y="427.1638051706411"/>
      <point x="789.3879950093245" y="455.58072569630554"/>
      <point x="850.0902854895137" y="455.58072569630554" type="curve"/>
      <point x="894.3098710306294" y="455.58072569630554"/>
      <point x="930.2086278132142" y="426.5565909696498"/>
      <point x="930.2086278132142" y="382.11065342980305" type="curve"/>
      <point x="930.2086278132142" y="346.86807100528625"/>
      <point x="910.285814453334" y="317.93447305487365"/>
      <point x="891.5935391081601" y="292.32978391340714" type="curve"/>
    </contour>
  </outline>
</glyph>
<glyph name="three_over_four" format="2">
  <advance width="1134.3988897292134"/>
  <unicode hex="00BE"/>
  <outline>
    <contour>
      <point x="217.08478884072483" y="0" type="line"/>
      <point x="347.29569582314673" y="0" type="line"/>
      <point x="952.4718661722678" y="850" type="line"/>
      <point x="822.260959189846" y="850" type="line"/>
    </contour>
    <contour>
      <point x="211.0666275948706" y="394.5027740912868" type="curve"/>
      <point x="155.19489413392597" y="394.5027740912869"/>
      <point x="105.5883533194471" y="417.06426120711194"/>
      <point x="74.49799999999996" y="451.8751607622419" type="curve"/>
      <point x="74.49800054495671" y="336.36243438720703" type="line"/>
      <point x="125.145615307134" y="299.7174513651051"/>
      <point x="187.12071226790155" y="293.92857142857133"/>
      <point x="219.42407091014155" y="293.92857142857133" type="curve"/>
      <point x="332.37562193269946" y="293.92857142857133"/>
      <point x="424.136156138502" y="378.05956468670627"/>
      <point x="424.136156138502" y="482.1941279327938" type="curve"/>
      <point x="317.9736189073835" y="482.1941261291504" type="line"/>
      <point x="424.13615362112864" y="482.19412994384766" type="line"/>
      <point x="424.136156138502" y="566.1787802448255"/>
      <point x="372.538481853112" y="628.2731475127575"/>
      <point x="298.41752569144114" y="655.3821868896484" type="curve"/>
      <point x="429.70844213431224" y="850" type="line"/>
      <point x="84.9978021806989" y="850" type="line"/>
      <point x="84.9978021806989" y="749.230712890625" type="line"/>
      <point x="248.73886815970283" y="749.230712890625" type="line"/>
      <point x="124.72695104544499" y="568.5402374267578" type="line"/>
      <point x="145.89066590635852" y="574.7257377683283"/>
      <point x="171.29755974574402" y="577.4071807580445"/>
      <point x="198.63795601358993" y="577.4071807580445" type="curve"/>
      <point x="266.61001480298546" y="577.4071807580445"/>
      <point x="318.06322527643306" y="542.466380775871"/>
      <point x="318.06322527643306" y="485.9549774246657" type="curve"/>
      <point x="317.99455618215086" y="482.373490506846"/>
      <point x="317.98026207967473" y="482.20285338185727"/>
      <point x="317.97142831747874" y="482.19412422180176" type="curve"/>
      <point x="315.6218937330044" y="429.91677457339154"/>
      <point x="268.65952707307247" y="394.5027740912868"/>
    </contour>
    <contour>
      <point x="625.005977009487" y="126.56051635742188" type="line"/>
      <point x="914.3188432204244" y="126.56051635742188" type="line"/>
      <point x="914.3188432204244" y="0" type="line"/>
      <point x="1020.391780232143" y="0" type="line"/>
      <point x="1020.391780232143" y="126.56051635742188" type="line"/>
      <point x="1089.9008897292133" y="126.56051635742188" type="line"/>
      <point x="1089.9008897292133" y="222.63873291015625" type="line"/>
      <point x="1020.391780232143" y="222.63873291015625" type="line"/>
      <point x="1020.391780232143" y="369.41251373291016" type="line"/>
      <point x="914.3188432204244" y="369.41251373291016" type="line"/>
      <point x="914.3188432204244" y="222.63873291015625" type="line"/>
      <point x="796.3025544631001" y="222.63873291015625" type="line"/>
      <point x="991.2350877272603" y="546.4285736083984" type="line"/>
      <point x="874.7882112013814" y="546.4285736083984" type="line"/>
    </contour>
  </outline>
</glyph>
<glyph name="inv_question" format="2">
  <advance width="503.37828681291865"/>
  <unicode hex="00BF"/>
  <outline>
    <contour>
      <point x="254.96466986754265" y="528.5523573333335" type="curve" smooth="yes"/>
      <point x="254.96466986754265" y="477.04480935195727"/>
      <point x="296.7822645528331" y="435.2272146666668"/>
      <point x="348.2898125342093" y="435.2272146666668" type="curve" smooth="yes"/>
      <point x="399.7973605155854" y="435.2272146666668"/>
      <point x="441.6149552008759" y="477.04480935195727"/>
      <point x="441.6149552008759" y="528.5523573333335" type="curve" smooth="yes"/>
      <point x="441.614955200876" y="580.0599053147096"/>
      <point x="399.7973605155855" y="621.8775"/>
      <point x="348.2898125342093" y="621.8775" type="curve" smooth="yes"/>
      <point x="296.7822645528331" y="621.8775"/>
      <point x="254.96466986754265" y="580.0599053147097"/>
    </contour>
    <contour>
      <point x="317.4421428571429" y="151.86288571428594" type="curve"/>
      <point x="342.4061698302795" y="151.8628856722385"/>
      <point x="372.9507017438334" y="148.3353348206075"/>
      <point x="405.61836206926637" y="136.57840728759766" type="curve"/>
      <point x="399.057235360282" y="362.3314743041992" type="line"/>
      <point x="297.5223919154578" y="362.3314743041992" type="line"/>
      <point x="292.2480999232703" y="271.59349822998047" type="line"/>
      <point x="148.2322551022993" y="261.96717895679035"/>
      <point x="34.49800000000009" y="147.4013009473892"/>
      <point x="34.49799999999996" y="7.070642857143071" type="curve"/>
      <point x="34.497999999999976" y="-139.19815369664428"/>
      <point x="152.10152580488645" y="-258.12249999999995"/>
      <point x="296.94014285714286" y="-258.12249999999995" type="curve"/>
      <point x="359.5514147065636" y="-258.12249999999995"/>
      <point x="417.35565080333856" y="-238.765715178327"/>
      <point x="463.8802868129187" y="-205.7742156982422" type="curve"/>
      <point x="463.8802868129187" y="-69.50943756103516" type="line"/>
      <point x="423.4593490936227" y="-111.24908901900281"/>
      <point x="366.9092057963985" y="-137.17139999999986"/>
      <point x="304.2761428571429" y="-137.17139999999992" type="curve"/>
      <point x="224.52982522381845" y="-137.17139999999998"/>
      <point x="162.008" y="-72.54061235236887"/>
      <point x="162.008" y="7.070642857142957" type="curve"/>
      <point x="162.008" y="88.11131101906669"/>
      <point x="231.66515220073163" y="151.86288571428594"/>
    </contour>
  </outline>
</glyph>
<glyph name="A_with_grave" format="2">
  <advance width="810.27480859375"/>
  <unicode hex="00C0"/>
  <outline>
    <contour>
      <point x="363.5679575368654" y="901.6194076538086" type="line"/>
      <point x="460.5633341237795" y="901.6194076538086" type="line"/>
      <point x="354.3899103566896" y="1093.9554061889648" type="line"/>
      <point x="217.6702677175295" y="1093.9554061889648" type="line"/>
    </contour>
    <contour>
      <point x="-6.502000000000038" y="0" type="line"/>
      <point x="123.58438763427729" y="0" type="line"/>
      <point x="202.8494328002929" y="169.04232788085938" type="line"/>
      <point x="600.5449131469727" y="169.04232788085938" type="line"/>
      <point x="679.8099583129883" y="0" type="line"/>
      <point x="816.77680859375" y="0" type="line"/>
      <point x="405.13740429687493" y="873.6679992675781" type="line"/>
    </contour>
    <contour>
      <point x="401.69717297363275" y="593.1092910766602" type="line"/>
      <point x="546.7999714355469" y="283.6599578857422" type="line"/>
      <point x="256.5943745117187" y="283.6599578857422" type="line"/>
    </contour>
  </outline>
</glyph>
<glyph name="A_with_acute" format="2">
  <advance width="810.27480859375"/>
  <unicode hex="00C1"/>
  <outline>
    <contour>
      <point x="446.7068514190723" y="901.6194076538086" type="line"/>
      <point x="592.6045412384083" y="1093.9554061889648" type="line"/>
      <point x="455.88489859924806" y="1093.9554061889648" type="line"/>
      <point x="349.71147483215816" y="901.6194076538086" type="line"/>
    </contour>
    <contour>
      <point x="-6.502000000000038" y="0" type="line"/>
      <point x="123.58438763427729" y="0" type="line"/>
      <point x="202.8494328002929" y="169.04232788085938" type="line"/>
      <point x="600.5449131469727" y="169.04232788085938" type="line"/>
      <point x="679.8099583129883" y="0" type="line"/>
      <point x="816.77680859375" y="0" type="line"/>
      <point x="405.13740429687493" y="873.6679992675781" type="line"/>
    </contour>
    <contour>
      <point x="401.69717297363275" y="593.1092910766602" type="line"/>
      <point x="546.7999714355469" y="283.6599578857422" type="line"/>
      <point x="256.5943745117187" y="283.6599578857422" type="line"/>
    </contour>
  </outline>
</glyph>
<glyph name="A_with_tildeabove" format="2">
  <advance width="810.27480859375"/>
  <unicode hex="00C3"/>
  <outline>
    <contour>
      <point x="325.7239642857142" y="971.601545159017" type="curve"/>
      <point x="342.4003876615595" y="971.601545159017"/>
      <point x="351.182429723328" y="966.5787367923207"/>
      <point x="371.01841032639686" y="953.9725618689401" type="curve"/>
      <point x="375.23832830282913" y="951.2907169308082" type="line"/>
      <point x="406.6345104664133" y="931.3377954090341"/>
      <point x="440.40654833701996" y="911.5860677019705"/>
      <point x="484.5508452380953" y="911.5860677019705" type="curve"/>
      <point x="523.2498972842059" y="911.5860677019705"/>
      <point x="557.8475165244638" y="929.2860554587106"/>
      <point x="580.6829028843472" y="957.0556640625" type="curve"/>
      <point x="580.6829028843472" y="1066.6939086914062" type="line"/>
      <point x="552.0841909861822" y="1018.9872631149872"/>
      <point x="503.9972827322626" y="1012.1572704639717"/>
      <point x="484.5508452380952" y="1012.1572704639717" type="curve"/>
      <point x="467.8744218622499" y="1012.1572704639715"/>
      <point x="459.09237985393946" y="1017.1800740608576"/>
      <point x="439.25640096927924" y="1029.7862516881762" type="curve"/>
      <point x="435.03648335842223" y="1032.4680972015456" type="line"/>
      <point x="403.64030391471715" y="1052.4210230030842"/>
      <point x="369.8682611867896" y="1072.172747921018"/>
      <point x="325.7239642857142" y="1072.172747921018" type="curve"/>
      <point x="287.0249122396037" y="1072.172747921018"/>
      <point x="252.427295124706" y="1054.4727627488815"/>
      <point x="229.5919070957728" y="1026.7031555175781" type="curve"/>
      <point x="229.5919070957728" y="917.0649032592773" type="line"/>
      <point x="258.19061613881195" y="964.7715505472592"/>
      <point x="306.2775267915468" y="971.601545159017"/>
    </contour>
    <contour>
      <point x="-6.502000000000038" y="0" type="line"/>
      <point x="123.58438763427729" y="0" type="line"/>
      <point x="202.8494328002929" y="169.04232788085938" type="line"/>
      <point x="600.5449131469727" y="169.04232788085938" type="line"/>
      <point x="679.8099583129883" y="0" type="line"/>
      <point x="816.77680859375" y="0" type="line"/>
      <point x="405.13740429687493" y="873.6679992675781" type="line"/>
    </contour>
    <contour>
      <point x="401.69717297363275" y="593.1092910766602" type="line"/>
      <point x="546.7999714355469" y="283.6599578857422" type="line"/>
      <point x="256.5943745117187" y="283.6599578857422" type="line"/>
    </contour>
  </outline>
</glyph>
<glyph name="AE" format="2">
  <advance width="1088.6137749633788"/>
  <unicode hex="00C6"/>
  <anchor x="583.0405399780273" y="997.1214046305419" name="top" identifier="top"/>
  <outline>
    <contour>
      <point x="529.7655399780273" y="0" type="line"/>
      <point x="1019.1157749633788" y="0" type="line"/>
      <point x="1019.1157749633788" y="121.1344985961914" type="line"/>
      <point x="657.2755421142577" y="121.1344985961914" type="line"/>
      <point x="657.2755421142577" y="371.24693298339844" type="line"/>
      <point x="989.1157749633788" y="371.24693298339844" type="line"/>
      <point x="989.1157749633788" y="486.9190673828125" type="line"/>
      <point x="657.2755421142577" y="486.9190673828125" type="line"/>
      <point x="657.2755421142577" y="728.8655014038086" type="line"/>
      <point x="1019.1157749633788" y="728.8655014038086" type="line"/>
      <point x="1019.1157749633788" y="850" type="line"/>
      <point x="496.11445507812493" y="850" type="line"/>
      <point x="-14.502000000000038" y="0" type="line"/>
      <point x="124.25055584716793" y="0" type="line"/>
      <point x="225.2078693847656" y="168.83867645263672" type="line"/>
      <point x="529.7655399780273" y="168.83867645263672" type="line"/>
    </contour>
    <contour>
      <point x="293.9871815185546" y="283.86360931396484" type="line"/>
      <point x="529.7655399780273" y="678.1738739013672" type="line"/>
      <point x="529.7655399780273" y="283.86360931396484" type="line"/>
    </contour>
  </outline>
</glyph>
<glyph name="C_with_cedilla" format="2">
  <advance width="792.1650433308229"/>
  <unicode hex="00C7"/>
  <outline>
    <contour>
      <point x="472.9430823119221" y="-160.95408422615918" type="curve"/>
      <point x="472.9430823119221" y="-190.69742761553528"/>
      <point x="447.02506520636683" y="-210.9305865388659"/>
      <point x="415.0985980197545" y="-210.9305865388659" type="curve"/>
      <point x="401.78368395567816" y="-210.9305865388659"/>
      <point x="362.33389459297905" y="-208.90142509072408"/>
      <point x="330.64216862522323" y="-186.87166595458984" type="curve"/>
      <point x="330.6421721512099" y="-278.00477600097656" type="line"/>
      <point x="363.30614527623567" y="-293.83935223410106"/>
      <point x="395.1635352733361" y="-296.8775"/>
      <point x="415.09859801975443" y="-296.8775" type="curve"/>
      <point x="497.9021880348455" y="-296.8775"/>
      <point x="565.0260952340402" y="-236.0226289485677"/>
      <point x="565.0260952340402" y="-161.15495663995227" type="curve"/>
      <point x="565.0260951713539" y="-106.71214246772472"/>
      <point x="532.9119036954071" y="-61.04198968783449"/>
      <point x="486.230486496317" y="-39.23693084716797" type="curve"/>
      <point x="497.17243032992087" y="-14.531539916992188" type="line"/>
      <point x="587.6302800107418" y="-10.558437100509918"/>
      <point x="671.0625921347255" y="18.868292378289667"/>
      <point x="739.5483992630263" y="67.10414123535155" type="curve"/>
      <point x="739.5483992630263" y="211.44265747070312" type="line"/>
      <point x="671.5691805783115" y="146.57768890609148"/>
      <point x="579.3654148661672" y="106.80858276551729"/>
      <point x="477.8843980197545" y="106.80858276551731" type="curve"/>
      <point x="302.4699300470545" y="106.80858276551722"/>
      <point x="166.91018078527173" y="249.3887671966549"/>
      <point x="166.91018078527173" y="425.0" type="curve" smooth="yes"/>
      <point x="166.91018078527173" y="600.6112328033452"/>
      <point x="302.4699300470545" y="743.1914172344827"/>
      <point x="477.8843980197545" y="743.1914172344827" type="curve"/>
      <point x="579.3652822172132" y="743.1914157083135"/>
      <point x="671.5689396708506" y="703.422414287458"/>
      <point x="739.5483992630263" y="638.5608444213867" type="curve"/>
      <point x="739.5483992630263" y="782.9015579223633" type="line"/>
      <point x="665.7630319099587" y="834.8642880895414"/>
      <point x="574.6284833782493" y="865.0"/>
      <point x="476.05039801975454" y="865.0" type="curve"/>
      <point x="229.9749565020743" y="865.0"/>
      <point x="30.192915254237263" y="671.0754415176802"/>
      <point x="30.19291525423725" y="425.0" type="curve" smooth="yes"/>
      <point x="30.19291525423725" y="202.24266732053525"/>
      <point x="193.90619841341066" y="22.2208689665878"/>
      <point x="407.4737990432997" y="-9.892166137695312" type="curve"/>
      <point x="357.4762328201552" y="-122.77973175048828" type="line"/>
      <point x="380.4799937773932" y="-111.31110322385783"/>
      <point x="402.59670215643087" y="-109.87718191345246"/>
      <point x="412.5985980197545" y="-109.87718191345247" type="curve"/>
      <point x="446.6157239652889" y="-109.87718191345246"/>
      <point x="472.9430823119221" y="-130.79879582725377"/>
    </contour>
  </outline>
</glyph>
<glyph name="E_with_grave" format="2">
  <advance width="653.3462349853515"/>
  <unicode hex="00C8"/>
  <outline>
    <contour>
      <point x="301.5883593225797" y="901.6194076538086" type="line"/>
      <point x="398.5837359094938" y="901.6194076538086" type="line"/>
      <point x="292.41031214240394" y="1093.9554061889648" type="line"/>
      <point x="155.69066950324378" y="1093.9554061889648" type="line"/>
    </contour>
    <contour>
      <point x="94.49799999999996" y="0" type="line"/>
      <point x="583.8482349853516" y="0" type="line"/>
      <point x="583.8482349853516" y="121.1344985961914" type="line"/>
      <point x="222.0080021362304" y="121.1344985961914" type="line"/>
      <point x="222.0080021362304" y="371.24693298339844" type="line"/>
      <point x="553.8482349853516" y="371.24693298339844" type="line"/>
      <point x="553.8482349853516" y="486.9190673828125" type="line"/>
      <point x="222.0080021362304" y="486.9190673828125" type="line"/>
      <point x="222.0080021362304" y="728.8655014038086" type="line"/>
      <point x="583.8482349853516" y="728.8655014038086" type="line"/>
      <point x="583.8482349853516" y="850" type="line"/>
      <point x="94.49799999999996" y="850" type="line"/>
    </contour>
  </outline>
</glyph>
<glyph name="E_with_acute" format="2">
  <advance width="653.3462349853515"/>
  <unicode hex="00C9"/>
  <outline>
    <contour>
      <point x="384.72725320478656" y="901.6194076538086" type="line"/>
      <point x="530.6249430241226" y="1093.9554061889648" type="line"/>
      <point x="393.90530038496235" y="1093.9554061889648" type="line"/>
      <point x="287.7318766178725" y="901.6194076538086" type="line"/>
    </contour>
    <contour>
      <point x="94.49799999999996" y="0" type="line"/>
      <point x="583.8482349853516" y="0" type="line"/>
      <point x="583.8482349853516" y="121.1344985961914" type="line"/>
      <point x="222.0080021362304" y="121.1344985961914" type="line"/>
      <point x="222.0080021362304" y="371.24693298339844" type="line"/>
      <point x="553.8482349853516" y="371.24693298339844" type="line"/>
      <point x="553.8482349853516" y="486.9190673828125" type="line"/>
      <point x="222.0080021362304" y="486.9190673828125" type="line"/>
      <point x="222.0080021362304" y="728.8655014038086" type="line"/>
      <point x="583.8482349853516" y="728.8655014038086" type="line"/>
      <point x="583.8482349853516" y="850" type="line"/>
      <point x="94.49799999999996" y="850" type="line"/>
    </contour>
  </outline>
</glyph>
<glyph name="E_with_circumflex" format="2">
  <advance width="653.3462349853515"/>
  <unicode hex="00CA"/>
  <outline>
    <contour>
      <point x="149.93206845238092" y="916.3353805541992" type="line"/>
      <point x="282.1295782180059" y="916.3353805541992" type="line"/>
      <point x="343.15780697777154" y="976.0504760742188" type="line"/>
      <point x="404.18603573753717" y="916.3353805541992" type="line"/>
      <point x="536.3835455031623" y="916.3353805541992" type="line"/>
      <point x="343.15780697777154" y="1100.3598937988281" type="line"/>
    </contour>
    <contour>
      <point x="94.49799999999996" y="0" type="line"/>
      <point x="583.8482349853516" y="0" type="line"/>
      <point x="583.8482349853516" y="121.1344985961914" type="line"/>
      <point x="222.0080021362304" y="121.1344985961914" type="line"/>
      <point x="222.0080021362304" y="371.24693298339844" type="line"/>
      <point x="553.8482349853516" y="371.24693298339844" type="line"/>
      <point x="553.8482349853516" y="486.9190673828125" type="line"/>
      <point x="222.0080021362304" y="486.9190673828125" type="line"/>
      <point x="222.0080021362304" y="728.8655014038086" type="line"/>
      <point x="583.8482349853516" y="728.8655014038086" type="line"/>
      <point x="583.8482349853516" y="850" type="line"/>
      <point x="94.49799999999996" y="850" type="line"/>
    </contour>
  </outline>
</glyph>
<glyph name="E_with_diaeresis" format="2">
  <advance width="653.3462349853515"/>
  <unicode hex="00CB"/>
  <outline>
    <contour>
      <point x="316.9555914142036" y="997.1214046305419" type="curve" smooth="yes"/>
      <point x="316.9555914142036" y="1041.0266776511985"/>
      <point x="281.31007956827574" y="1076.6721894971265"/>
      <point x="237.404806547619" y="1076.6721894971265" type="curve" smooth="yes"/>
      <point x="193.4995335269623" y="1076.6721894971265"/>
      <point x="157.85402168103445" y="1041.0266776511985"/>
      <point x="157.85402168103445" y="997.1214046305419" type="curve" smooth="yes"/>
      <point x="157.85402168103445" y="953.2161316098851"/>
      <point x="193.4995335269623" y="917.5706197639573"/>
      <point x="237.404806547619" y="917.5706197639573" type="curve" smooth="yes"/>
      <point x="281.31007956827574" y="917.5706197639573"/>
      <point x="316.9555914142035" y="953.2161316098851"/>
    </contour>
    <contour>
      <point x="528.4615914142037" y="997.1214046305419" type="curve" smooth="yes"/>
      <point x="528.4615914142037" y="1041.0266776511985"/>
      <point x="492.8160795682757" y="1076.6721894971265"/>
      <point x="448.910806547619" y="1076.6721894971265" type="curve" smooth="yes"/>
      <point x="405.00553352696227" y="1076.6721894971265"/>
      <point x="369.3600216810345" y="1041.0266776511985"/>
      <point x="369.3600216810345" y="997.1214046305419" type="curve" smooth="yes"/>
      <point x="369.3600216810345" y="953.2161316098851"/>
      <point x="405.00553352696227" y="917.5706197639573"/>
      <point x="448.910806547619" y="917.5706197639573" type="curve" smooth="yes"/>
      <point x="492.8160795682757" y="917.5706197639573"/>
      <point x="528.4615914142037" y="953.2161316098851"/>
    </contour>
    <contour>
      <point x="94.49799999999996" y="0" type="line"/>
      <point x="583.8482349853516" y="0" type="line"/>
      <point x="583.8482349853516" y="121.1344985961914" type="line"/>
      <point x="222.0080021362304" y="121.1344985961914" type="line"/>
      <point x="222.0080021362304" y="371.24693298339844" type="line"/>
      <point x="553.8482349853516" y="371.24693298339844" type="line"/>
      <point x="553.8482349853516" y="486.9190673828125" type="line"/>
      <point x="222.0080021362304" y="486.9190673828125" type="line"/>
      <point x="222.0080021362304" y="728.8655014038086" type="line"/>
      <point x="583.8482349853516" y="728.8655014038086" type="line"/>
      <point x="583.8482349853516" y="850" type="line"/>
      <point x="94.49799999999996" y="850" type="line"/>
    </contour>
  </outline>
</glyph>
<glyph name="I_with_grave" format="2">
  <advance width="318.7312232512717"/>
  <unicode hex="00CC"/>
  <outline>
    <contour>
      <point x="117.39568981933589" y="901.6194076538086" type="line"/>
      <point x="214.39106640624993" y="901.6194076538086" type="line"/>
      <point x="108.2176426391601" y="1093.9554061889648" type="line"/>
      <point x="-28.502000000000038" y="1093.9554061889648" type="line"/>
    </contour>
    <contour>
      <point x="93.69705083747864" y="0" type="line"/>
      <point x="224.23322325127168" y="0" type="line"/>
      <point x="224.23322325127168" y="850" type="line"/>
      <point x="93.69705083747864" y="850" type="line"/>
    </contour>
  </outline>
</glyph>
<glyph name="I_with_acute" format="2">
  <advance width="319.7312226833999"/>
  <unicode hex="00CD"/>
  <outline>
    <contour>
      <point x="201.33553286406408" y="901.6194076538086" type="line"/>
      <point x="347.23322268339996" y="1093.9554061889648" type="line"/>
      <point x="210.51358004423986" y="1093.9554061889648" type="line"/>
      <point x="104.34015627715" y="901.6194076538086" type="line"/>
    </contour>
    <contour>
      <point x="94.49799999999996" y="0" type="line"/>
      <point x="225.03417241379304" y="0" type="line"/>
      <point x="225.03417241379304" y="850" type="line"/>
      <point x="94.49799999999996" y="850" type="line"/>
    </contour>
  </outline>
</glyph>
<glyph name="I_with_circumflex" format="2">
  <advance width="319.4474770507811"/>
  <unicode hex="00CE"/>
  <outline>
    <contour>
      <point x="-33.50200000000005" y="916.3353805541992" type="line"/>
      <point x="98.69550976562493" y="916.3353805541992" type="line"/>
      <point x="159.72373852539056" y="976.0504760742188" type="line"/>
      <point x="220.75196728515618" y="916.3353805541992" type="line"/>
      <point x="352.9494770507812" y="916.3353805541992" type="line"/>
      <point x="159.72373852539056" y="1100.3598937988281" type="line"/>
    </contour>
    <contour>
      <point x="94.45565188834149" y="0" type="line"/>
      <point x="224.9918243021346" y="0" type="line"/>
      <point x="224.9918243021346" y="850" type="line"/>
      <point x="94.45565188834149" y="850" type="line"/>
    </contour>
  </outline>
</glyph>
<glyph name="ETH" format="2">
  <advance width="832.779553605235"/>
  <unicode hex="00D0"/>
  <outline>
    <contour>
      <point x="108.48425410648811" y="0" type="line"/>
      <point x="328.45699427982794" y="0.0" type="line"/>
      <point x="697.8450856873183" y="0.0"/>
      <point x="803.4569922017263" y="256.7957197583929"/>
      <point x="803.4569922017263" y="425.0" type="curve" smooth="yes"/>
      <point x="803.4569922017263" y="593.2042802416071"/>
      <point x="697.8450836092165" y="850.0"/>
      <point x="328.4569922017262" y="850.0" type="curve"/>
      <point x="108.48425410648811" y="850" type="line"/>
      <point x="108.48425410648811" y="482.83606719970703" type="line"/>
      <point x="5.09449122807014" y="482.83606719970703" type="line"/>
      <point x="5.09449122807014" y="367.16393280029297" type="line"/>
      <point x="108.48425410648811" y="367.16393280029297" type="line"/>
    </contour>
    <contour>
      <point x="235.99425624271856" y="121.1344985961914" type="line"/>
      <point x="235.99425624271856" y="367.16393280029297" type="line"/>
      <point x="443.84948848148815" y="367.16393280029297" type="line"/>
      <point x="443.84948848148815" y="482.83606719970703" type="line"/>
      <point x="235.99425624271856" y="482.83606719970703" type="line"/>
      <point x="235.99425624271856" y="728.8655014038086" type="line"/>
      <point x="325.2692425098084" y="728.8655014038086" type="line"/>
      <point x="622.3545584021632" y="728.8655014038086"/>
      <point x="674.2320266706918" y="530.2930646031385"/>
      <point x="674.2320266706918" y="425.0" type="curve" smooth="yes"/>
      <point x="674.2320266706918" y="319.70693539686147"/>
      <point x="622.354558094081" y="121.13450249047227"/>
      <point x="325.26924220172623" y="121.13449949602989" type="curve"/>
    </contour>
  </outline>
</glyph>
<glyph name="O_with_diaeresis" format="2">
  <advance width="950.7109655310345"/>
  <unicode hex="00D6"/>
  <outline>
    <contour>
      <point x="449.15326763210174" y="997.1214046305419" type="curve" smooth="yes"/>
      <point x="449.15326763210174" y="1041.0266776511985"/>
      <point x="413.5077557861739" y="1076.6721894971265"/>
      <point x="369.6024827655172" y="1076.6721894971265" type="curve" smooth="yes"/>
      <point x="325.6972097448605" y="1076.6721894971265"/>
      <point x="290.0516978989326" y="1041.0266776511985"/>
      <point x="290.0516978989326" y="997.1214046305419" type="curve" smooth="yes"/>
      <point x="290.0516978989326" y="953.2161316098851"/>
      <point x="325.69720974486046" y="917.5706197639573"/>
      <point x="369.60248276551715" y="917.5706197639573" type="curve" smooth="yes"/>
      <point x="413.5077557861739" y="917.5706197639573"/>
      <point x="449.15326763210174" y="953.2161316098851"/>
    </contour>
    <contour>
      <point x="660.6592676321019" y="997.1214046305419" type="curve" smooth="yes"/>
      <point x="660.6592676321019" y="1041.0266776511985"/>
      <point x="625.013755786174" y="1076.6721894971265"/>
      <point x="581.1084827655174" y="1076.6721894971265" type="curve" smooth="yes"/>
      <point x="537.2032097448606" y="1076.6721894971265"/>
      <point x="501.55769789893264" y="1041.0266776511985"/>
      <point x="501.55769789893264" y="997.1214046305419" type="curve" smooth="yes"/>
      <point x="501.55769789893264" y="953.2161316098851"/>
      <point x="537.2032097448606" y="917.5706197639573"/>
      <point x="581.1084827655172" y="917.5706197639573" type="curve" smooth="yes"/>
      <point x="625.013755786174" y="917.5706197639573"/>
      <point x="660.6592676321018" y="953.2161316098851"/>
    </contour>
    <contour>
      <point x="921.2129655310346" y="425.0" type="curve" smooth="yes"/>
      <point x="921.2129655310346" y="671.0754415176801"/>
      <point x="721.4309242831974" y="865.0"/>
      <point x="475.35548276551725" y="865.0" type="curve" smooth="yes"/>
      <point x="229.28004124783706" y="865.0"/>
      <point x="29.497999999999962" y="671.0754415176801"/>
      <point x="29.497999999999962" y="425.0" type="curve" smooth="yes"/>
      <point x="29.497999999999962" y="178.92455848231987"/>
      <point x="229.28004124783706" y="-15.0"/>
      <point x="475.35548276551725" y="-15.0" type="curve" smooth="yes"/>
      <point x="721.4309242831974" y="-15.0"/>
      <point x="921.2129655310346" y="178.92455848231987"/>
    </contour>
    <contour>
      <point x="786.37555" y="425.0" type="curve" smooth="yes"/>
      <point x="786.37555" y="249.01280407346607"/>
      <point x="651.1245428703252" y="106.1345"/>
      <point x="475.35548276551725" y="106.1345" type="curve" smooth="yes"/>
      <point x="299.58642266070933" y="106.1345"/>
      <point x="164.33541553103447" y="249.01280407346607"/>
      <point x="164.33541553103447" y="425.0" type="curve" smooth="yes"/>
      <point x="164.33541553103447" y="600.9871959265339"/>
      <point x="299.58642266070933" y="743.8655"/>
      <point x="475.35548276551725" y="743.8655" type="curve" smooth="yes"/>
      <point x="651.1245428703252" y="743.8655"/>
      <point x="786.37555" y="600.9871959265339"/>
    </contour>
  </outline>
</glyph>
<glyph name="multiply" format="2">
  <advance width="624.9504067382812"/>
  <unicode hex="00D7"/>
  <outline>
    <contour>
      <point x="139.4620808105468" y="164.02279663085938" type="line"/>
      <point x="312.47520336914056" y="337.0359191894531" type="line"/>
      <point x="485.48831829833983" y="164.02279663085938" type="line"/>
      <point x="573.4524067382813" y="251.98687744140625" type="line"/>
      <point x="400.43928417968743" y="425" type="line"/>
      <point x="573.4524067382813" y="598.0131225585938" type="line"/>
      <point x="485.48831829833983" y="685.9772033691406" type="line"/>
      <point x="312.47520336914056" y="512.9640808105469" type="line"/>
      <point x="139.4620808105468" y="685.9772033691406" type="line"/>
      <point x="51.49799999999996" y="598.0131225585938" type="line"/>
      <point x="224.51112255859368" y="425" type="line"/>
      <point x="51.49799999999996" y="251.98687744140625" type="line"/>
    </contour>
  </outline>
</glyph>
